ISO-10303-21;
HEADER;
/* Generated by software containing ST-Developer
 * from STEP Tools, Inc. (www.steptools.com) 
 */
/* OPTION: using custom renumber hook */

FILE_DESCRIPTION(
/* description */ ('STEP AP242 Edition 2',
'CAx-IF Rec.Pracs.---Representation and Presentation of Product Manufa
cturing Information (PMI)---4.0---2014-10-13',
'CAx-IF Rec.Pracs.---3D Tessellated Geometry---0.4---2014-09-14','2;1',
'CAx-IF Rec.Pracs.---User Defined Attributes---1.5---2016-08-15'),
/* implementation_level */ '2;1');

FILE_NAME(
/* name */ 'V2 - housing',
/* time_stamp */ '2026-08-14T14:00:21Z',
/* author */ (''),
/* organization */ (''),
/* preprocessor_version */ 'ST-DEVELOPER v20',
/* originating_system */ 'ONSHAPE BY PTC INC, 1.219',
/* authorisation */ '  ');

FILE_SCHEMA (('AP242_MANAGED_MODEL_BASED_3D_ENGINEERING_MIM_LF { 1 0 10303 442 3 1 4 }'));
ENDSEC;

DATA;
#10=SHAPE_REPRESENTATION_RELATIONSHIP('','',#1079,#11);
#11=ADVANCED_BREP_SHAPE_REPRESENTATION('',(#1077),#1928);
#12=B_SPLINE_SURFACE_WITH_KNOTS('',3,1,((#1867,#1868),(#1869,#1870),(#1871,
#1872),(#1873,#1874),(#1875,#1876),(#1877,#1878),(#1879,#1880)),
 .SURF_OF_LINEAR_EXTRUSION.,.F.,.F.,.F.,(4,1,1,1,4),(2,2),(0.218272621571004,
0.413704466178253,0.609136310785502,0.804568155392751,1.),(0.,1.),
 .UNSPECIFIED.);
#13=B_SPLINE_SURFACE_WITH_KNOTS('',3,1,((#1881,#1882),(#1883,#1884),(#1885,
#1886),(#1887,#1888),(#1889,#1890),(#1891,#1892),(#1893,#1894)),
 .SURF_OF_LINEAR_EXTRUSION.,.F.,.F.,.F.,(4,1,1,1,4),(2,2),(8.65693827311747E-16,
0.195431844607252,0.390863689214502,0.586295533821753,0.781727378429004),
(0.,1.),.UNSPECIFIED.);
#14=B_SPLINE_SURFACE_WITH_KNOTS('',5,1,((#1895,#1896),(#1897,#1898),(#1899,
#1900),(#1901,#1902),(#1903,#1904),(#1905,#1906),(#1907,#1908),(#1909,#1910)),
 .SURF_OF_LINEAR_EXTRUSION.,.F.,.F.,.F.,(6,2,6),(2,2),(0.,0.5,1.),(0.,1.),
 .UNSPECIFIED.);
#15=B_SPLINE_SURFACE_WITH_KNOTS('',5,1,((#1911,#1912),(#1913,#1914),(#1915,
#1916),(#1917,#1918),(#1919,#1920),(#1921,#1922),(#1923,#1924),(#1925,#1926)),
 .SURF_OF_LINEAR_EXTRUSION.,.F.,.F.,.F.,(6,2,6),(2,2),(0.,0.5,1.),(0.,1.),
 .UNSPECIFIED.);
#16=CYLINDRICAL_SURFACE('',#1100,0.0049);
#17=CYLINDRICAL_SURFACE('',#1105,0.0049);
#18=CYLINDRICAL_SURFACE('',#1109,0.0049);
#19=CYLINDRICAL_SURFACE('',#1115,0.0029);
#20=CYLINDRICAL_SURFACE('',#1118,0.0029);
#21=CYLINDRICAL_SURFACE('',#1121,0.0029);
#22=CYLINDRICAL_SURFACE('',#1124,0.0049);
#23=CYLINDRICAL_SURFACE('',#1127,0.0029);
#24=CYLINDRICAL_SURFACE('',#1138,0.00175);
#25=CYLINDRICAL_SURFACE('',#1140,0.00175);
#26=CYLINDRICAL_SURFACE('',#1142,0.00175);
#27=CYLINDRICAL_SURFACE('',#1144,0.00175);
#28=CYLINDRICAL_SURFACE('',#1150,0.00075);
#29=CYLINDRICAL_SURFACE('',#1155,0.00075);
#30=CYLINDRICAL_SURFACE('',#1162,0.00075);
#31=CYLINDRICAL_SURFACE('',#1165,0.00075);
#32=CIRCLE('',#1084,0.00175);
#33=CIRCLE('',#1085,0.00175);
#34=CIRCLE('',#1086,0.00175);
#35=CIRCLE('',#1087,0.00175);
#36=CIRCLE('',#1090,0.00175);
#37=CIRCLE('',#1091,0.00175);
#38=CIRCLE('',#1092,0.00175);
#39=CIRCLE('',#1093,0.00175);
#40=CIRCLE('',#1101,0.0049);
#41=CIRCLE('',#1102,0.0049);
#42=CIRCLE('',#1106,0.0049);
#43=CIRCLE('',#1107,0.0049);
#44=CIRCLE('',#1110,0.0049);
#45=CIRCLE('',#1111,0.0049);
#46=CIRCLE('',#1116,0.0029);
#47=CIRCLE('',#1117,0.0029);
#48=CIRCLE('',#1119,0.0029);
#49=CIRCLE('',#1120,0.0029);
#50=CIRCLE('',#1122,0.0029);
#51=CIRCLE('',#1123,0.0029);
#52=CIRCLE('',#1125,0.0049);
#53=CIRCLE('',#1126,0.0049);
#54=CIRCLE('',#1128,0.0029);
#55=CIRCLE('',#1129,0.0029);
#56=CIRCLE('',#1139,0.00175);
#57=CIRCLE('',#1141,0.00175);
#58=CIRCLE('',#1143,0.00175);
#59=CIRCLE('',#1145,0.00175);
#60=CIRCLE('',#1147,0.00075);
#61=CIRCLE('',#1149,0.00075);
#62=CIRCLE('',#1152,0.00075);
#63=CIRCLE('',#1154,0.00075);
#64=CIRCLE('',#1157,0.00075);
#65=CIRCLE('',#1159,0.00075);
#66=CIRCLE('',#1161,0.00075);
#67=CIRCLE('',#1164,0.00075);
#68=B_SPLINE_CURVE_WITH_KNOTS('',3,(#1457,#1458,#1459,#1460),
 .UNSPECIFIED.,.F.,.F.,(4,4),(0.,1.),.UNSPECIFIED.);
#69=B_SPLINE_CURVE_WITH_KNOTS('',3,(#1472,#1473,#1474,#1475),
 .UNSPECIFIED.,.F.,.F.,(4,4),(0.,1.),.UNSPECIFIED.);
#70=B_SPLINE_CURVE_WITH_KNOTS('',3,(#1513,#1514,#1515,#1516,#1517,#1518,
#1519,#1520,#1521,#1522,#1523,#1524,#1525,#1526,#1527,#1528,#1529,#1530,
#1531,#1532,#1533,#1534),.UNSPECIFIED.,.F.,.F.,(4,1,1,1,1,1,1,1,1,1,1,1,
1,1,1,1,1,1,1,4),(0.,0.0625,0.125,0.140625,0.15625,0.1875,0.25,0.3125,0.375,
0.5,0.625,0.75,0.78125,0.8125,0.84375,0.875,0.890625,0.90625,0.9375,1.),
 .UNSPECIFIED.);
#71=B_SPLINE_CURVE_WITH_KNOTS('',3,(#1544,#1545,#1546,#1547,#1548,#1549,
#1550),.UNSPECIFIED.,.F.,.F.,(4,1,1,1,4),(0.,0.00169679056265082,0.00339358112530164,
0.00509037168795246,0.00678716225060328),.UNSPECIFIED.);
#72=B_SPLINE_CURVE_WITH_KNOTS('',3,(#1556,#1557,#1558,#1559,#1560,#1561,
#1562),.UNSPECIFIED.,.F.,.F.,(4,1,1,1,4),(0.,0.00169473377183907,0.00338946754367815,
0.00508420131551722,0.0067789350873563),.UNSPECIFIED.);
#73=B_SPLINE_CURVE_WITH_KNOTS('',3,(#1572,#1573,#1574,#1575,#1576,#1577,
#1578,#1579,#1580,#1581,#1582,#1583,#1584,#1585,#1586,#1587,#1588,#1589,
#1590,#1591,#1592,#1593),.UNSPECIFIED.,.F.,.F.,(4,1,1,1,1,1,1,1,1,1,1,1,
1,1,1,1,1,1,1,4),(0.,0.0625,0.125,0.140625,0.15625,0.1875,0.25,0.3125,0.375,
0.5,0.625,0.75,0.78125,0.8125,0.84375,0.875,0.890625,0.90625,0.9375,1.),
 .UNSPECIFIED.);
#74=B_SPLINE_CURVE_WITH_KNOTS('',3,(#1601,#1602,#1603,#1604,#1605,#1606,
#1607,#1608,#1609,#1610,#1611,#1612,#1613),.UNSPECIFIED.,.F.,.F.,(4,1,1,
1,1,1,1,1,1,1,4),(0.,0.0625,0.125,0.15625,0.1875,0.25,0.375,0.5,0.625,0.75,
1.),.UNSPECIFIED.);
#75=B_SPLINE_CURVE_WITH_KNOTS('',3,(#1623,#1624,#1625,#1626,#1627,#1628,
#1629),.UNSPECIFIED.,.F.,.F.,(4,1,1,1,4),(0.,0.00214758492602792,0.00429516985205584,
0.00644275477808375,0.00859033970411167),.UNSPECIFIED.);
#76=B_SPLINE_CURVE_WITH_KNOTS('',3,(#1633,#1634,#1635,#1636,#1637,#1638,
#1639),.UNSPECIFIED.,.F.,.F.,(4,1,1,1,4),(0.,0.0021475849260279,0.0042951698520558,
0.0064427547780837,0.0085903397041116),.UNSPECIFIED.);
#77=B_SPLINE_CURVE_WITH_KNOTS('',3,(#1646,#1647,#1648,#1649,#1650,#1651,
#1652,#1653,#1654,#1655,#1656,#1657,#1658,#1659),.UNSPECIFIED.,.F.,.F.,
(4,1,1,1,1,1,1,1,1,1,1,4),(0.,0.25,0.5,0.5625,0.625,0.75,0.8125,0.875,0.890625,
0.90625,0.9375,1.),.UNSPECIFIED.);
#78=B_SPLINE_CURVE_WITH_KNOTS('',3,(#1669,#1670,#1671,#1672),
 .UNSPECIFIED.,.F.,.F.,(4,4),(0.,1.),.UNSPECIFIED.);
#79=B_SPLINE_CURVE_WITH_KNOTS('',3,(#1776,#1777,#1778,#1779),
 .UNSPECIFIED.,.F.,.F.,(4,4),(0.,1.),.UNSPECIFIED.);
#80=B_SPLINE_CURVE_WITH_KNOTS('',3,(#1780,#1781,#1782,#1783),
 .UNSPECIFIED.,.F.,.F.,(4,4),(0.,1.),.UNSPECIFIED.);
#81=B_SPLINE_CURVE_WITH_KNOTS('',3,(#1785,#1786,#1787,#1788),
 .UNSPECIFIED.,.F.,.F.,(4,4),(0.,1.),.UNSPECIFIED.);
#82=B_SPLINE_CURVE_WITH_KNOTS('',3,(#1802,#1803,#1804,#1805),
 .UNSPECIFIED.,.F.,.F.,(4,4),(0.,1.),.UNSPECIFIED.);
#83=B_SPLINE_CURVE_WITH_KNOTS('',3,(#1809,#1810,#1811,#1812),
 .UNSPECIFIED.,.F.,.F.,(4,4),(0.,1.),.UNSPECIFIED.);
#84=ORIENTED_EDGE('',*,*,#368,.F.);
#85=ORIENTED_EDGE('',*,*,#369,.T.);
#86=ORIENTED_EDGE('',*,*,#370,.F.);
#87=ORIENTED_EDGE('',*,*,#371,.T.);
#88=ORIENTED_EDGE('',*,*,#372,.T.);
#89=ORIENTED_EDGE('',*,*,#373,.F.);
#90=ORIENTED_EDGE('',*,*,#374,.F.);
#91=ORIENTED_EDGE('',*,*,#375,.T.);
#92=ORIENTED_EDGE('',*,*,#376,.F.);
#93=ORIENTED_EDGE('',*,*,#377,.T.);
#94=ORIENTED_EDGE('',*,*,#378,.F.);
#95=ORIENTED_EDGE('',*,*,#379,.F.);
#96=ORIENTED_EDGE('',*,*,#380,.T.);
#97=ORIENTED_EDGE('',*,*,#381,.T.);
#98=ORIENTED_EDGE('',*,*,#382,.F.);
#99=ORIENTED_EDGE('',*,*,#383,.F.);
#100=ORIENTED_EDGE('',*,*,#384,.T.);
#101=ORIENTED_EDGE('',*,*,#385,.T.);
#102=ORIENTED_EDGE('',*,*,#386,.T.);
#103=ORIENTED_EDGE('',*,*,#387,.T.);
#104=ORIENTED_EDGE('',*,*,#388,.T.);
#105=ORIENTED_EDGE('',*,*,#389,.F.);
#106=ORIENTED_EDGE('',*,*,#390,.F.);
#107=ORIENTED_EDGE('',*,*,#391,.T.);
#108=ORIENTED_EDGE('',*,*,#392,.T.);
#109=ORIENTED_EDGE('',*,*,#393,.T.);
#110=ORIENTED_EDGE('',*,*,#394,.T.);
#111=ORIENTED_EDGE('',*,*,#395,.T.);
#112=ORIENTED_EDGE('',*,*,#396,.T.);
#113=ORIENTED_EDGE('',*,*,#397,.F.);
#114=ORIENTED_EDGE('',*,*,#398,.T.);
#115=ORIENTED_EDGE('',*,*,#368,.T.);
#116=ORIENTED_EDGE('',*,*,#399,.T.);
#117=ORIENTED_EDGE('',*,*,#400,.F.);
#118=ORIENTED_EDGE('',*,*,#401,.F.);
#119=ORIENTED_EDGE('',*,*,#376,.T.);
#120=ORIENTED_EDGE('',*,*,#402,.T.);
#121=ORIENTED_EDGE('',*,*,#403,.T.);
#122=ORIENTED_EDGE('',*,*,#404,.T.);
#123=ORIENTED_EDGE('',*,*,#405,.F.);
#124=ORIENTED_EDGE('',*,*,#406,.T.);
#125=ORIENTED_EDGE('',*,*,#407,.T.);
#126=ORIENTED_EDGE('',*,*,#408,.F.);
#127=ORIENTED_EDGE('',*,*,#409,.T.);
#128=ORIENTED_EDGE('',*,*,#410,.T.);
#129=ORIENTED_EDGE('',*,*,#404,.F.);
#130=ORIENTED_EDGE('',*,*,#370,.T.);
#131=ORIENTED_EDGE('',*,*,#411,.T.);
#132=ORIENTED_EDGE('',*,*,#412,.F.);
#133=ORIENTED_EDGE('',*,*,#413,.F.);
#134=ORIENTED_EDGE('',*,*,#414,.T.);
#135=ORIENTED_EDGE('',*,*,#415,.F.);
#136=ORIENTED_EDGE('',*,*,#416,.T.);
#137=ORIENTED_EDGE('',*,*,#417,.F.);
#138=ORIENTED_EDGE('',*,*,#418,.T.);
#139=ORIENTED_EDGE('',*,*,#419,.F.);
#140=ORIENTED_EDGE('',*,*,#420,.F.);
#141=ORIENTED_EDGE('',*,*,#409,.F.);
#142=ORIENTED_EDGE('',*,*,#421,.T.);
#143=ORIENTED_EDGE('',*,*,#422,.T.);
#144=ORIENTED_EDGE('',*,*,#374,.T.);
#145=ORIENTED_EDGE('',*,*,#423,.F.);
#146=ORIENTED_EDGE('',*,*,#424,.F.);
#147=ORIENTED_EDGE('',*,*,#425,.T.);
#148=ORIENTED_EDGE('',*,*,#413,.T.);
#149=ORIENTED_EDGE('',*,*,#426,.T.);
#150=ORIENTED_EDGE('',*,*,#396,.F.);
#151=ORIENTED_EDGE('',*,*,#427,.F.);
#152=ORIENTED_EDGE('',*,*,#419,.T.);
#153=ORIENTED_EDGE('',*,*,#428,.T.);
#154=ORIENTED_EDGE('',*,*,#406,.F.);
#155=ORIENTED_EDGE('',*,*,#429,.F.);
#156=ORIENTED_EDGE('',*,*,#430,.F.);
#157=ORIENTED_EDGE('',*,*,#431,.F.);
#158=ORIENTED_EDGE('',*,*,#423,.T.);
#159=ORIENTED_EDGE('',*,*,#373,.T.);
#160=ORIENTED_EDGE('',*,*,#432,.F.);
#161=ORIENTED_EDGE('',*,*,#433,.F.);
#162=ORIENTED_EDGE('',*,*,#424,.T.);
#163=ORIENTED_EDGE('',*,*,#431,.T.);
#164=ORIENTED_EDGE('',*,*,#434,.T.);
#165=ORIENTED_EDGE('',*,*,#371,.F.);
#166=ORIENTED_EDGE('',*,*,#425,.F.);
#167=ORIENTED_EDGE('',*,*,#433,.T.);
#168=ORIENTED_EDGE('',*,*,#435,.F.);
#169=ORIENTED_EDGE('',*,*,#436,.F.);
#170=ORIENTED_EDGE('',*,*,#437,.T.);
#171=ORIENTED_EDGE('',*,*,#438,.T.);
#172=ORIENTED_EDGE('',*,*,#439,.T.);
#173=ORIENTED_EDGE('',*,*,#440,.F.);
#174=ORIENTED_EDGE('',*,*,#441,.F.);
#175=ORIENTED_EDGE('',*,*,#436,.T.);
#176=ORIENTED_EDGE('',*,*,#442,.F.);
#177=ORIENTED_EDGE('',*,*,#391,.F.);
#178=ORIENTED_EDGE('',*,*,#443,.T.);
#179=ORIENTED_EDGE('',*,*,#440,.T.);
#180=ORIENTED_EDGE('',*,*,#444,.T.);
#181=ORIENTED_EDGE('',*,*,#445,.F.);
#182=ORIENTED_EDGE('',*,*,#446,.F.);
#183=ORIENTED_EDGE('',*,*,#389,.T.);
#184=ORIENTED_EDGE('',*,*,#447,.F.);
#185=ORIENTED_EDGE('',*,*,#448,.F.);
#186=ORIENTED_EDGE('',*,*,#449,.T.);
#187=ORIENTED_EDGE('',*,*,#445,.T.);
#188=ORIENTED_EDGE('',*,*,#450,.T.);
#189=ORIENTED_EDGE('',*,*,#451,.F.);
#190=ORIENTED_EDGE('',*,*,#452,.F.);
#191=ORIENTED_EDGE('',*,*,#448,.T.);
#192=ORIENTED_EDGE('',*,*,#453,.T.);
#193=ORIENTED_EDGE('',*,*,#454,.F.);
#194=ORIENTED_EDGE('',*,*,#455,.F.);
#195=ORIENTED_EDGE('',*,*,#451,.T.);
#196=ORIENTED_EDGE('',*,*,#456,.F.);
#197=ORIENTED_EDGE('',*,*,#457,.F.);
#198=ORIENTED_EDGE('',*,*,#458,.T.);
#199=ORIENTED_EDGE('',*,*,#454,.T.);
#200=ORIENTED_EDGE('',*,*,#459,.F.);
#201=ORIENTED_EDGE('',*,*,#460,.F.);
#202=ORIENTED_EDGE('',*,*,#461,.T.);
#203=ORIENTED_EDGE('',*,*,#457,.T.);
#204=ORIENTED_EDGE('',*,*,#462,.T.);
#205=ORIENTED_EDGE('',*,*,#463,.F.);
#206=ORIENTED_EDGE('',*,*,#464,.F.);
#207=ORIENTED_EDGE('',*,*,#460,.T.);
#208=ORIENTED_EDGE('',*,*,#465,.T.);
#209=ORIENTED_EDGE('',*,*,#466,.F.);
#210=ORIENTED_EDGE('',*,*,#467,.T.);
#211=ORIENTED_EDGE('',*,*,#468,.F.);
#212=ORIENTED_EDGE('',*,*,#469,.F.);
#213=ORIENTED_EDGE('',*,*,#470,.T.);
#214=ORIENTED_EDGE('',*,*,#471,.F.);
#215=ORIENTED_EDGE('',*,*,#438,.F.);
#216=ORIENTED_EDGE('',*,*,#472,.T.);
#217=ORIENTED_EDGE('',*,*,#463,.T.);
#218=ORIENTED_EDGE('',*,*,#473,.F.);
#219=ORIENTED_EDGE('',*,*,#474,.T.);
#220=ORIENTED_EDGE('',*,*,#435,.T.);
#221=ORIENTED_EDGE('',*,*,#471,.T.);
#222=ORIENTED_EDGE('',*,*,#462,.F.);
#223=ORIENTED_EDGE('',*,*,#459,.T.);
#224=ORIENTED_EDGE('',*,*,#456,.T.);
#225=ORIENTED_EDGE('',*,*,#453,.F.);
#226=ORIENTED_EDGE('',*,*,#450,.F.);
#227=ORIENTED_EDGE('',*,*,#447,.T.);
#228=ORIENTED_EDGE('',*,*,#444,.F.);
#229=ORIENTED_EDGE('',*,*,#388,.F.);
#230=ORIENTED_EDGE('',*,*,#442,.T.);
#231=ORIENTED_EDGE('',*,*,#439,.F.);
#232=ORIENTED_EDGE('',*,*,#430,.T.);
#233=ORIENTED_EDGE('',*,*,#372,.F.);
#234=ORIENTED_EDGE('',*,*,#434,.F.);
#235=ORIENTED_EDGE('',*,*,#432,.T.);
#236=ORIENTED_EDGE('',*,*,#469,.T.);
#237=ORIENTED_EDGE('',*,*,#467,.F.);
#238=ORIENTED_EDGE('',*,*,#465,.F.);
#239=ORIENTED_EDGE('',*,*,#473,.T.);
#240=ORIENTED_EDGE('',*,*,#378,.T.);
#241=ORIENTED_EDGE('',*,*,#475,.T.);
#242=ORIENTED_EDGE('',*,*,#476,.T.);
#243=ORIENTED_EDGE('',*,*,#477,.F.);
#244=ORIENTED_EDGE('',*,*,#437,.F.);
#245=ORIENTED_EDGE('',*,*,#441,.T.);
#246=ORIENTED_EDGE('',*,*,#443,.F.);
#247=ORIENTED_EDGE('',*,*,#390,.T.);
#248=ORIENTED_EDGE('',*,*,#446,.T.);
#249=ORIENTED_EDGE('',*,*,#449,.F.);
#250=ORIENTED_EDGE('',*,*,#452,.T.);
#251=ORIENTED_EDGE('',*,*,#455,.T.);
#252=ORIENTED_EDGE('',*,*,#458,.F.);
#253=ORIENTED_EDGE('',*,*,#461,.F.);
#254=ORIENTED_EDGE('',*,*,#464,.T.);
#255=ORIENTED_EDGE('',*,*,#472,.F.);
#256=ORIENTED_EDGE('',*,*,#470,.F.);
#257=ORIENTED_EDGE('',*,*,#466,.T.);
#258=ORIENTED_EDGE('',*,*,#474,.F.);
#259=ORIENTED_EDGE('',*,*,#468,.T.);
#260=ORIENTED_EDGE('',*,*,#417,.T.);
#261=ORIENTED_EDGE('',*,*,#478,.T.);
#262=ORIENTED_EDGE('',*,*,#392,.F.);
#263=ORIENTED_EDGE('',*,*,#479,.T.);
#264=ORIENTED_EDGE('',*,*,#394,.F.);
#265=ORIENTED_EDGE('',*,*,#480,.T.);
#266=ORIENTED_EDGE('',*,*,#415,.T.);
#267=ORIENTED_EDGE('',*,*,#481,.T.);
#268=ORIENTED_EDGE('',*,*,#477,.T.);
#269=ORIENTED_EDGE('',*,*,#482,.F.);
#270=ORIENTED_EDGE('',*,*,#399,.F.);
#271=ORIENTED_EDGE('',*,*,#379,.T.);
#272=ORIENTED_EDGE('',*,*,#476,.F.);
#273=ORIENTED_EDGE('',*,*,#483,.F.);
#274=ORIENTED_EDGE('',*,*,#400,.T.);
#275=ORIENTED_EDGE('',*,*,#482,.T.);
#276=ORIENTED_EDGE('',*,*,#475,.F.);
#277=ORIENTED_EDGE('',*,*,#377,.F.);
#278=ORIENTED_EDGE('',*,*,#401,.T.);
#279=ORIENTED_EDGE('',*,*,#483,.T.);
#280=ORIENTED_EDGE('',*,*,#410,.F.);
#281=ORIENTED_EDGE('',*,*,#420,.T.);
#282=ORIENTED_EDGE('',*,*,#429,.T.);
#283=ORIENTED_EDGE('',*,*,#405,.T.);
#284=ORIENTED_EDGE('',*,*,#484,.F.);
#285=ORIENTED_EDGE('',*,*,#414,.F.);
#286=ORIENTED_EDGE('',*,*,#427,.T.);
#287=ORIENTED_EDGE('',*,*,#395,.F.);
#288=ORIENTED_EDGE('',*,*,#481,.F.);
#289=ORIENTED_EDGE('',*,*,#485,.T.);
#290=ORIENTED_EDGE('',*,*,#486,.T.);
#291=ORIENTED_EDGE('',*,*,#397,.T.);
#292=ORIENTED_EDGE('',*,*,#426,.F.);
#293=ORIENTED_EDGE('',*,*,#412,.T.);
#294=ORIENTED_EDGE('',*,*,#487,.F.);
#295=ORIENTED_EDGE('',*,*,#403,.F.);
#296=ORIENTED_EDGE('',*,*,#488,.T.);
#297=ORIENTED_EDGE('',*,*,#421,.F.);
#298=ORIENTED_EDGE('',*,*,#408,.T.);
#299=ORIENTED_EDGE('',*,*,#489,.T.);
#300=ORIENTED_EDGE('',*,*,#489,.F.);
#301=ORIENTED_EDGE('',*,*,#490,.T.);
#302=ORIENTED_EDGE('',*,*,#491,.F.);
#303=ORIENTED_EDGE('',*,*,#490,.F.);
#304=ORIENTED_EDGE('',*,*,#491,.T.);
#305=ORIENTED_EDGE('',*,*,#485,.F.);
#306=ORIENTED_EDGE('',*,*,#492,.T.);
#307=ORIENTED_EDGE('',*,*,#493,.F.);
#308=ORIENTED_EDGE('',*,*,#492,.F.);
#309=ORIENTED_EDGE('',*,*,#493,.T.);
#310=ORIENTED_EDGE('',*,*,#494,.F.);
#311=ORIENTED_EDGE('',*,*,#487,.T.);
#312=ORIENTED_EDGE('',*,*,#484,.T.);
#313=ORIENTED_EDGE('',*,*,#495,.F.);
#314=ORIENTED_EDGE('',*,*,#496,.T.);
#315=ORIENTED_EDGE('',*,*,#494,.T.);
#316=ORIENTED_EDGE('',*,*,#496,.F.);
#317=ORIENTED_EDGE('',*,*,#497,.T.);
#318=ORIENTED_EDGE('',*,*,#495,.T.);
#319=ORIENTED_EDGE('',*,*,#497,.F.);
#320=ORIENTED_EDGE('',*,*,#498,.F.);
#321=ORIENTED_EDGE('',*,*,#499,.T.);
#322=ORIENTED_EDGE('',*,*,#500,.T.);
#323=ORIENTED_EDGE('',*,*,#380,.F.);
#324=ORIENTED_EDGE('',*,*,#501,.F.);
#325=ORIENTED_EDGE('',*,*,#502,.T.);
#326=ORIENTED_EDGE('',*,*,#498,.T.);
#327=ORIENTED_EDGE('',*,*,#383,.T.);
#328=ORIENTED_EDGE('',*,*,#503,.F.);
#329=ORIENTED_EDGE('',*,*,#504,.T.);
#330=ORIENTED_EDGE('',*,*,#501,.T.);
#331=ORIENTED_EDGE('',*,*,#382,.T.);
#332=ORIENTED_EDGE('',*,*,#500,.F.);
#333=ORIENTED_EDGE('',*,*,#505,.T.);
#334=ORIENTED_EDGE('',*,*,#503,.T.);
#335=ORIENTED_EDGE('',*,*,#381,.F.);
#336=ORIENTED_EDGE('',*,*,#506,.F.);
#337=ORIENTED_EDGE('',*,*,#499,.F.);
#338=ORIENTED_EDGE('',*,*,#507,.F.);
#339=ORIENTED_EDGE('',*,*,#387,.F.);
#340=ORIENTED_EDGE('',*,*,#507,.T.);
#341=ORIENTED_EDGE('',*,*,#502,.F.);
#342=ORIENTED_EDGE('',*,*,#508,.F.);
#343=ORIENTED_EDGE('',*,*,#384,.F.);
#344=ORIENTED_EDGE('',*,*,#506,.T.);
#345=ORIENTED_EDGE('',*,*,#386,.F.);
#346=ORIENTED_EDGE('',*,*,#509,.F.);
#347=ORIENTED_EDGE('',*,*,#505,.F.);
#348=ORIENTED_EDGE('',*,*,#508,.T.);
#349=ORIENTED_EDGE('',*,*,#504,.F.);
#350=ORIENTED_EDGE('',*,*,#509,.T.);
#351=ORIENTED_EDGE('',*,*,#385,.F.);
#352=ORIENTED_EDGE('',*,*,#398,.F.);
#353=ORIENTED_EDGE('',*,*,#486,.F.);
#354=ORIENTED_EDGE('',*,*,#411,.F.);
#355=ORIENTED_EDGE('',*,*,#369,.F.);
#356=ORIENTED_EDGE('',*,*,#402,.F.);
#357=ORIENTED_EDGE('',*,*,#375,.F.);
#358=ORIENTED_EDGE('',*,*,#422,.F.);
#359=ORIENTED_EDGE('',*,*,#488,.F.);
#360=ORIENTED_EDGE('',*,*,#393,.F.);
#361=ORIENTED_EDGE('',*,*,#478,.F.);
#362=ORIENTED_EDGE('',*,*,#416,.F.);
#363=ORIENTED_EDGE('',*,*,#480,.F.);
#364=ORIENTED_EDGE('',*,*,#407,.F.);
#365=ORIENTED_EDGE('',*,*,#428,.F.);
#366=ORIENTED_EDGE('',*,*,#418,.F.);
#367=ORIENTED_EDGE('',*,*,#479,.F.);
#368=EDGE_CURVE('',#510,#511,#610,.T.);
#369=EDGE_CURVE('',#510,#512,#68,.T.);
#370=EDGE_CURVE('',#513,#512,#611,.T.);
#371=EDGE_CURVE('',#513,#514,#612,.T.);
#372=EDGE_CURVE('',#514,#515,#613,.T.);
#373=EDGE_CURVE('',#516,#515,#614,.T.);
#374=EDGE_CURVE('',#517,#516,#615,.T.);
#375=EDGE_CURVE('',#517,#518,#69,.T.);
#376=EDGE_CURVE('',#519,#518,#616,.T.);
#377=EDGE_CURVE('',#519,#520,#617,.T.);
#378=EDGE_CURVE('',#521,#520,#618,.T.);
#379=EDGE_CURVE('',#511,#521,#619,.T.);
#380=EDGE_CURVE('',#522,#523,#620,.T.);
#381=EDGE_CURVE('',#523,#524,#621,.T.);
#382=EDGE_CURVE('',#525,#524,#622,.T.);
#383=EDGE_CURVE('',#522,#525,#623,.T.);
#384=EDGE_CURVE('',#526,#527,#624,.T.);
#385=EDGE_CURVE('',#527,#528,#625,.T.);
#386=EDGE_CURVE('',#528,#529,#626,.T.);
#387=EDGE_CURVE('',#529,#526,#627,.T.);
#388=EDGE_CURVE('',#530,#531,#628,.T.);
#389=EDGE_CURVE('',#532,#531,#629,.T.);
#390=EDGE_CURVE('',#533,#532,#630,.T.);
#391=EDGE_CURVE('',#533,#530,#631,.T.);
#392=EDGE_CURVE('',#534,#535,#632,.T.);
#393=EDGE_CURVE('',#535,#536,#70,.T.);
#394=EDGE_CURVE('',#536,#537,#633,.T.);
#395=EDGE_CURVE('',#537,#538,#32,.T.);
#396=EDGE_CURVE('',#538,#539,#634,.T.);
#397=EDGE_CURVE('',#540,#539,#33,.T.);
#398=EDGE_CURVE('',#540,#510,#71,.T.);
#399=EDGE_CURVE('',#511,#541,#635,.T.);
#400=EDGE_CURVE('',#542,#541,#636,.T.);
#401=EDGE_CURVE('',#519,#542,#637,.T.);
#402=EDGE_CURVE('',#518,#543,#72,.T.);
#403=EDGE_CURVE('',#543,#544,#34,.T.);
#404=EDGE_CURVE('',#544,#545,#638,.T.);
#405=EDGE_CURVE('',#546,#545,#35,.T.);
#406=EDGE_CURVE('',#546,#547,#639,.T.);
#407=EDGE_CURVE('',#547,#534,#73,.T.);
#408=EDGE_CURVE('',#548,#544,#640,.T.);
#409=EDGE_CURVE('',#548,#549,#641,.T.);
#410=EDGE_CURVE('',#549,#545,#642,.T.);
#411=EDGE_CURVE('',#512,#550,#74,.T.);
#412=EDGE_CURVE('',#551,#550,#36,.F.);
#413=EDGE_CURVE('',#552,#551,#643,.T.);
#414=EDGE_CURVE('',#552,#553,#37,.T.);
#415=EDGE_CURVE('',#554,#553,#644,.T.);
#416=EDGE_CURVE('',#554,#555,#75,.T.);
#417=EDGE_CURVE('',#556,#555,#645,.T.);
#418=EDGE_CURVE('',#556,#557,#76,.T.);
#419=EDGE_CURVE('',#558,#557,#646,.T.);
#420=EDGE_CURVE('',#549,#558,#38,.F.);
#421=EDGE_CURVE('',#548,#559,#39,.T.);
#422=EDGE_CURVE('',#559,#517,#77,.T.);
#423=EDGE_CURVE('',#560,#516,#647,.T.);
#424=EDGE_CURVE('',#561,#560,#648,.T.);
#425=EDGE_CURVE('',#561,#513,#649,.T.);
#426=EDGE_CURVE('',#551,#539,#650,.T.);
#427=EDGE_CURVE('',#552,#538,#651,.T.);
#428=EDGE_CURVE('',#557,#547,#78,.T.);
#429=EDGE_CURVE('',#558,#546,#652,.T.);
#430=EDGE_CURVE('',#562,#515,#653,.T.);
#431=EDGE_CURVE('',#560,#562,#654,.T.);
#432=EDGE_CURVE('',#563,#562,#655,.T.);
#433=EDGE_CURVE('',#561,#563,#656,.T.);
#434=EDGE_CURVE('',#563,#514,#657,.T.);
#435=EDGE_CURVE('',#564,#565,#658,.T.);
#436=EDGE_CURVE('',#566,#564,#659,.T.);
#437=EDGE_CURVE('',#566,#567,#660,.T.);
#438=EDGE_CURVE('',#567,#565,#661,.T.);
#439=EDGE_CURVE('',#564,#568,#40,.F.);
#440=EDGE_CURVE('',#569,#568,#662,.T.);
#441=EDGE_CURVE('',#566,#569,#41,.F.);
#442=EDGE_CURVE('',#530,#568,#663,.T.);
#443=EDGE_CURVE('',#533,#569,#664,.T.);
#444=EDGE_CURVE('',#531,#570,#665,.T.);
#445=EDGE_CURVE('',#571,#570,#666,.T.);
#446=EDGE_CURVE('',#532,#571,#667,.T.);
#447=EDGE_CURVE('',#572,#570,#42,.T.);
#448=EDGE_CURVE('',#573,#572,#668,.T.);
#449=EDGE_CURVE('',#573,#571,#43,.T.);
#450=EDGE_CURVE('',#572,#574,#669,.T.);
#451=EDGE_CURVE('',#575,#574,#670,.T.);
#452=EDGE_CURVE('',#573,#575,#671,.T.);
#453=EDGE_CURVE('',#574,#576,#44,.F.);
#454=EDGE_CURVE('',#577,#576,#672,.T.);
#455=EDGE_CURVE('',#575,#577,#45,.F.);
#456=EDGE_CURVE('',#578,#576,#673,.T.);
#457=EDGE_CURVE('',#579,#578,#674,.T.);
#458=EDGE_CURVE('',#579,#577,#675,.T.);
#459=EDGE_CURVE('',#580,#578,#676,.T.);
#460=EDGE_CURVE('',#581,#580,#677,.T.);
#461=EDGE_CURVE('',#581,#579,#678,.T.);
#462=EDGE_CURVE('',#580,#582,#679,.T.);
#463=EDGE_CURVE('',#583,#582,#680,.T.);
#464=EDGE_CURVE('',#581,#583,#681,.T.);
#465=EDGE_CURVE('',#584,#584,#46,.T.);
#466=EDGE_CURVE('',#585,#585,#47,.T.);
#467=EDGE_CURVE('',#586,#586,#48,.T.);
#468=EDGE_CURVE('',#587,#587,#49,.T.);
#469=EDGE_CURVE('',#588,#588,#50,.F.);
#470=EDGE_CURVE('',#589,#589,#51,.F.);
#471=EDGE_CURVE('',#565,#582,#52,.T.);
#472=EDGE_CURVE('',#567,#583,#53,.T.);
#473=EDGE_CURVE('',#590,#590,#54,.F.);
#474=EDGE_CURVE('',#591,#591,#55,.F.);
#475=EDGE_CURVE('',#520,#592,#682,.T.);
#476=EDGE_CURVE('',#592,#593,#683,.T.);
#477=EDGE_CURVE('',#521,#593,#684,.T.);
#478=EDGE_CURVE('',#555,#535,#79,.T.);
#479=EDGE_CURVE('',#534,#556,#80,.T.);
#480=EDGE_CURVE('',#536,#554,#81,.T.);
#481=EDGE_CURVE('',#553,#537,#685,.T.);
#482=EDGE_CURVE('',#541,#593,#686,.T.);
#483=EDGE_CURVE('',#542,#592,#687,.T.);
#484=EDGE_CURVE('',#594,#594,#56,.T.);
#485=EDGE_CURVE('',#595,#595,#57,.T.);
#486=EDGE_CURVE('',#550,#540,#82,.T.);
#487=EDGE_CURVE('',#596,#596,#58,.T.);
#488=EDGE_CURVE('',#543,#559,#83,.T.);
#489=EDGE_CURVE('',#597,#597,#59,.T.);
#490=EDGE_CURVE('',#598,#598,#60,.F.);
#491=EDGE_CURVE('',#599,#599,#61,.T.);
#492=EDGE_CURVE('',#600,#600,#62,.F.);
#493=EDGE_CURVE('',#601,#601,#63,.T.);
#494=EDGE_CURVE('',#602,#602,#64,.T.);
#495=EDGE_CURVE('',#603,#603,#65,.T.);
#496=EDGE_CURVE('',#604,#604,#66,.T.);
#497=EDGE_CURVE('',#605,#605,#67,.T.);
#498=EDGE_CURVE('',#606,#522,#688,.T.);
#499=EDGE_CURVE('',#606,#607,#689,.T.);
#500=EDGE_CURVE('',#607,#523,#690,.T.);
#501=EDGE_CURVE('',#608,#525,#691,.T.);
#502=EDGE_CURVE('',#608,#606,#692,.T.);
#503=EDGE_CURVE('',#609,#524,#693,.T.);
#504=EDGE_CURVE('',#609,#608,#694,.T.);
#505=EDGE_CURVE('',#607,#609,#695,.T.);
#506=EDGE_CURVE('',#607,#529,#696,.T.);
#507=EDGE_CURVE('',#526,#606,#697,.T.);
#508=EDGE_CURVE('',#527,#608,#698,.F.);
#509=EDGE_CURVE('',#609,#528,#699,.T.);
#510=VERTEX_POINT('',#1455);
#511=VERTEX_POINT('',#1456);
#512=VERTEX_POINT('',#1461);
#513=VERTEX_POINT('',#1463);
#514=VERTEX_POINT('',#1465);
#515=VERTEX_POINT('',#1467);
#516=VERTEX_POINT('',#1469);
#517=VERTEX_POINT('',#1471);
#518=VERTEX_POINT('',#1476);
#519=VERTEX_POINT('',#1478);
#520=VERTEX_POINT('',#1480);
#521=VERTEX_POINT('',#1482);
#522=VERTEX_POINT('',#1485);
#523=VERTEX_POINT('',#1486);
#524=VERTEX_POINT('',#1488);
#525=VERTEX_POINT('',#1490);
#526=VERTEX_POINT('',#1494);
#527=VERTEX_POINT('',#1495);
#528=VERTEX_POINT('',#1497);
#529=VERTEX_POINT('',#1499);
#530=VERTEX_POINT('',#1502);
#531=VERTEX_POINT('',#1503);
#532=VERTEX_POINT('',#1505);
#533=VERTEX_POINT('',#1507);
#534=VERTEX_POINT('',#1511);
#535=VERTEX_POINT('',#1512);
#536=VERTEX_POINT('',#1535);
#537=VERTEX_POINT('',#1537);
#538=VERTEX_POINT('',#1539);
#539=VERTEX_POINT('',#1541);
#540=VERTEX_POINT('',#1543);
#541=VERTEX_POINT('',#1552);
#542=VERTEX_POINT('',#1554);
#543=VERTEX_POINT('',#1563);
#544=VERTEX_POINT('',#1565);
#545=VERTEX_POINT('',#1567);
#546=VERTEX_POINT('',#1569);
#547=VERTEX_POINT('',#1571);
#548=VERTEX_POINT('',#1596);
#549=VERTEX_POINT('',#1598);
#550=VERTEX_POINT('',#1614);
#551=VERTEX_POINT('',#1616);
#552=VERTEX_POINT('',#1618);
#553=VERTEX_POINT('',#1620);
#554=VERTEX_POINT('',#1622);
#555=VERTEX_POINT('',#1630);
#556=VERTEX_POINT('',#1632);
#557=VERTEX_POINT('',#1640);
#558=VERTEX_POINT('',#1642);
#559=VERTEX_POINT('',#1645);
#560=VERTEX_POINT('',#1661);
#561=VERTEX_POINT('',#1663);
#562=VERTEX_POINT('',#1676);
#563=VERTEX_POINT('',#1680);
#564=VERTEX_POINT('',#1686);
#565=VERTEX_POINT('',#1687);
#566=VERTEX_POINT('',#1689);
#567=VERTEX_POINT('',#1691);
#568=VERTEX_POINT('',#1695);
#569=VERTEX_POINT('',#1697);
#570=VERTEX_POINT('',#1704);
#571=VERTEX_POINT('',#1706);
#572=VERTEX_POINT('',#1710);
#573=VERTEX_POINT('',#1712);
#574=VERTEX_POINT('',#1716);
#575=VERTEX_POINT('',#1718);
#576=VERTEX_POINT('',#1722);
#577=VERTEX_POINT('',#1724);
#578=VERTEX_POINT('',#1728);
#579=VERTEX_POINT('',#1730);
#580=VERTEX_POINT('',#1734);
#581=VERTEX_POINT('',#1736);
#582=VERTEX_POINT('',#1740);
#583=VERTEX_POINT('',#1742);
#584=VERTEX_POINT('',#1746);
#585=VERTEX_POINT('',#1748);
#586=VERTEX_POINT('',#1751);
#587=VERTEX_POINT('',#1753);
#588=VERTEX_POINT('',#1756);
#589=VERTEX_POINT('',#1758);
#590=VERTEX_POINT('',#1764);
#591=VERTEX_POINT('',#1766);
#592=VERTEX_POINT('',#1770);
#593=VERTEX_POINT('',#1772);
#594=VERTEX_POINT('',#1797);
#595=VERTEX_POINT('',#1800);
#596=VERTEX_POINT('',#1807);
#597=VERTEX_POINT('',#1814);
#598=VERTEX_POINT('',#1817);
#599=VERTEX_POINT('',#1820);
#600=VERTEX_POINT('',#1824);
#601=VERTEX_POINT('',#1827);
#602=VERTEX_POINT('',#1831);
#603=VERTEX_POINT('',#1834);
#604=VERTEX_POINT('',#1837);
#605=VERTEX_POINT('',#1841);
#606=VERTEX_POINT('',#1845);
#607=VERTEX_POINT('',#1847);
#608=VERTEX_POINT('',#1851);
#609=VERTEX_POINT('',#1855);
#610=LINE('',#1454,#700);
#611=LINE('',#1462,#701);
#612=LINE('',#1464,#702);
#613=LINE('',#1466,#703);
#614=LINE('',#1468,#704);
#615=LINE('',#1470,#705);
#616=LINE('',#1477,#706);
#617=LINE('',#1479,#707);
#618=LINE('',#1481,#708);
#619=LINE('',#1483,#709);
#620=LINE('',#1484,#710);
#621=LINE('',#1487,#711);
#622=LINE('',#1489,#712);
#623=LINE('',#1491,#713);
#624=LINE('',#1493,#714);
#625=LINE('',#1496,#715);
#626=LINE('',#1498,#716);
#627=LINE('',#1500,#717);
#628=LINE('',#1501,#718);
#629=LINE('',#1504,#719);
#630=LINE('',#1506,#720);
#631=LINE('',#1508,#721);
#632=LINE('',#1510,#722);
#633=LINE('',#1536,#723);
#634=LINE('',#1540,#724);
#635=LINE('',#1551,#725);
#636=LINE('',#1553,#726);
#637=LINE('',#1555,#727);
#638=LINE('',#1566,#728);
#639=LINE('',#1570,#729);
#640=LINE('',#1595,#730);
#641=LINE('',#1597,#731);
#642=LINE('',#1599,#732);
#643=LINE('',#1617,#733);
#644=LINE('',#1621,#734);
#645=LINE('',#1631,#735);
#646=LINE('',#1641,#736);
#647=LINE('',#1660,#737);
#648=LINE('',#1662,#738);
#649=LINE('',#1664,#739);
#650=LINE('',#1666,#740);
#651=LINE('',#1667,#741);
#652=LINE('',#1673,#742);
#653=LINE('',#1675,#743);
#654=LINE('',#1677,#744);
#655=LINE('',#1679,#745);
#656=LINE('',#1681,#746);
#657=LINE('',#1683,#747);
#658=LINE('',#1685,#748);
#659=LINE('',#1688,#749);
#660=LINE('',#1690,#750);
#661=LINE('',#1692,#751);
#662=LINE('',#1696,#752);
#663=LINE('',#1700,#753);
#664=LINE('',#1701,#754);
#665=LINE('',#1703,#755);
#666=LINE('',#1705,#756);
#667=LINE('',#1707,#757);
#668=LINE('',#1711,#758);
#669=LINE('',#1715,#759);
#670=LINE('',#1717,#760);
#671=LINE('',#1719,#761);
#672=LINE('',#1723,#762);
#673=LINE('',#1727,#763);
#674=LINE('',#1729,#764);
#675=LINE('',#1731,#765);
#676=LINE('',#1733,#766);
#677=LINE('',#1735,#767);
#678=LINE('',#1737,#768);
#679=LINE('',#1739,#769);
#680=LINE('',#1741,#770);
#681=LINE('',#1743,#771);
#682=LINE('',#1769,#772);
#683=LINE('',#1771,#773);
#684=LINE('',#1773,#774);
#685=LINE('',#1789,#775);
#686=LINE('',#1791,#776);
#687=LINE('',#1793,#777);
#688=LINE('',#1844,#778);
#689=LINE('',#1846,#779);
#690=LINE('',#1848,#780);
#691=LINE('',#1850,#781);
#692=LINE('',#1852,#782);
#693=LINE('',#1854,#783);
#694=LINE('',#1856,#784);
#695=LINE('',#1858,#785);
#696=LINE('',#1860,#786);
#697=LINE('',#1861,#787);
#698=LINE('',#1863,#788);
#699=LINE('',#1865,#789);
#700=VECTOR('',#1178,1.);
#701=VECTOR('',#1179,1.);
#702=VECTOR('',#1180,1.);
#703=VECTOR('',#1181,1.);
#704=VECTOR('',#1182,1.);
#705=VECTOR('',#1183,1.);
#706=VECTOR('',#1184,1.);
#707=VECTOR('',#1185,1.);
#708=VECTOR('',#1186,1.);
#709=VECTOR('',#1187,1.);
#710=VECTOR('',#1188,1.);
#711=VECTOR('',#1189,1.);
#712=VECTOR('',#1190,1.);
#713=VECTOR('',#1191,1.);
#714=VECTOR('',#1194,1.);
#715=VECTOR('',#1195,1.);
#716=VECTOR('',#1196,1.);
#717=VECTOR('',#1197,1.);
#718=VECTOR('',#1198,1.);
#719=VECTOR('',#1199,1.);
#720=VECTOR('',#1200,1.);
#721=VECTOR('',#1201,1.);
#722=VECTOR('',#1204,1.);
#723=VECTOR('',#1205,1.);
#724=VECTOR('',#1208,1.);
#725=VECTOR('',#1211,1.);
#726=VECTOR('',#1212,1.);
#727=VECTOR('',#1213,1.);
#728=VECTOR('',#1216,1.);
#729=VECTOR('',#1219,1.);
#730=VECTOR('',#1222,1.);
#731=VECTOR('',#1223,1.);
#732=VECTOR('',#1224,1.);
#733=VECTOR('',#1229,1.);
#734=VECTOR('',#1232,1.);
#735=VECTOR('',#1233,1.);
#736=VECTOR('',#1234,1.);
#737=VECTOR('',#1239,1.);
#738=VECTOR('',#1240,1.);
#739=VECTOR('',#1241,1.);
#740=VECTOR('',#1244,1.);
#741=VECTOR('',#1245,1.);
#742=VECTOR('',#1248,1.);
#743=VECTOR('',#1251,1.);
#744=VECTOR('',#1252,1.);
#745=VECTOR('',#1255,1.);
#746=VECTOR('',#1256,1.);
#747=VECTOR('',#1259,1.);
#748=VECTOR('',#1262,1.);
#749=VECTOR('',#1263,1.);
#750=VECTOR('',#1264,1.);
#751=VECTOR('',#1265,1.);
#752=VECTOR('',#1270,1.);
#753=VECTOR('',#1275,1.);
#754=VECTOR('',#1276,1.);
#755=VECTOR('',#1279,1.);
#756=VECTOR('',#1280,1.);
#757=VECTOR('',#1281,1.);
#758=VECTOR('',#1286,1.);
#759=VECTOR('',#1291,1.);
#760=VECTOR('',#1292,1.);
#761=VECTOR('',#1293,1.);
#762=VECTOR('',#1298,1.);
#763=VECTOR('',#1303,1.);
#764=VECTOR('',#1304,1.);
#765=VECTOR('',#1305,1.);
#766=VECTOR('',#1308,1.);
#767=VECTOR('',#1309,1.);
#768=VECTOR('',#1310,1.);
#769=VECTOR('',#1313,1.);
#770=VECTOR('',#1314,1.);
#771=VECTOR('',#1315,1.);
#772=VECTOR('',#1350,1.);
#773=VECTOR('',#1351,1.);
#774=VECTOR('',#1352,1.);
#775=VECTOR('',#1359,1.);
#776=VECTOR('',#1362,1.);
#777=VECTOR('',#1365,1.);
#778=VECTOR('',#1426,1.);
#779=VECTOR('',#1427,1.);
#780=VECTOR('',#1428,1.);
#781=VECTOR('',#1431,1.);
#782=VECTOR('',#1432,1.);
#783=VECTOR('',#1435,1.);
#784=VECTOR('',#1436,1.);
#785=VECTOR('',#1439,1.);
#786=VECTOR('',#1442,1.);
#787=VECTOR('',#1443,1.);
#788=VECTOR('',#1446,1.);
#789=VECTOR('',#1449,1.);
#790=EDGE_LOOP('',(#84,#85,#86,#87,#88,#89,#90,#91,#92,#93,#94,#95));
#791=EDGE_LOOP('',(#96,#97,#98,#99));
#792=EDGE_LOOP('',(#100,#101,#102,#103));
#793=EDGE_LOOP('',(#104,#105,#106,#107));
#794=EDGE_LOOP('',(#108,#109,#110,#111,#112,#113,#114,#115,#116,#117,#118,
#119,#120,#121,#122,#123,#124,#125));
#795=EDGE_LOOP('',(#126,#127,#128,#129));
#796=EDGE_LOOP('',(#130,#131,#132,#133,#134,#135,#136,#137,#138,#139,#140,
#141,#142,#143,#144,#145,#146,#147));
#797=EDGE_LOOP('',(#148,#149,#150,#151));
#798=EDGE_LOOP('',(#152,#153,#154,#155));
#799=EDGE_LOOP('',(#156,#157,#158,#159));
#800=EDGE_LOOP('',(#160,#161,#162,#163));
#801=EDGE_LOOP('',(#164,#165,#166,#167));
#802=EDGE_LOOP('',(#168,#169,#170,#171));
#803=EDGE_LOOP('',(#172,#173,#174,#175));
#804=EDGE_LOOP('',(#176,#177,#178,#179));
#805=EDGE_LOOP('',(#180,#181,#182,#183));
#806=EDGE_LOOP('',(#184,#185,#186,#187));
#807=EDGE_LOOP('',(#188,#189,#190,#191));
#808=EDGE_LOOP('',(#192,#193,#194,#195));
#809=EDGE_LOOP('',(#196,#197,#198,#199));
#810=EDGE_LOOP('',(#200,#201,#202,#203));
#811=EDGE_LOOP('',(#204,#205,#206,#207));
#812=EDGE_LOOP('',(#208));
#813=EDGE_LOOP('',(#209));
#814=EDGE_LOOP('',(#210));
#815=EDGE_LOOP('',(#211));
#816=EDGE_LOOP('',(#212));
#817=EDGE_LOOP('',(#213));
#818=EDGE_LOOP('',(#214,#215,#216,#217));
#819=EDGE_LOOP('',(#218));
#820=EDGE_LOOP('',(#219));
#821=EDGE_LOOP('',(#220,#221,#222,#223,#224,#225,#226,#227,#228,#229,#230,
#231));
#822=EDGE_LOOP('',(#232,#233,#234,#235));
#823=EDGE_LOOP('',(#236));
#824=EDGE_LOOP('',(#237));
#825=EDGE_LOOP('',(#238));
#826=EDGE_LOOP('',(#239));
#827=EDGE_LOOP('',(#240,#241,#242,#243));
#828=EDGE_LOOP('',(#244,#245,#246,#247,#248,#249,#250,#251,#252,#253,#254,
#255));
#829=EDGE_LOOP('',(#256));
#830=EDGE_LOOP('',(#257));
#831=EDGE_LOOP('',(#258));
#832=EDGE_LOOP('',(#259));
#833=EDGE_LOOP('',(#260,#261,#262,#263));
#834=EDGE_LOOP('',(#264,#265,#266,#267));
#835=EDGE_LOOP('',(#268,#269,#270,#271));
#836=EDGE_LOOP('',(#272,#273,#274,#275));
#837=EDGE_LOOP('',(#276,#277,#278,#279));
#838=EDGE_LOOP('',(#280,#281,#282,#283));
#839=EDGE_LOOP('',(#284));
#840=EDGE_LOOP('',(#285,#286,#287,#288));
#841=EDGE_LOOP('',(#289));
#842=EDGE_LOOP('',(#290,#291,#292,#293));
#843=EDGE_LOOP('',(#294));
#844=EDGE_LOOP('',(#295,#296,#297,#298));
#845=EDGE_LOOP('',(#299));
#846=EDGE_LOOP('',(#300));
#847=EDGE_LOOP('',(#301));
#848=EDGE_LOOP('',(#302));
#849=EDGE_LOOP('',(#303));
#850=EDGE_LOOP('',(#304));
#851=EDGE_LOOP('',(#305));
#852=EDGE_LOOP('',(#306));
#853=EDGE_LOOP('',(#307));
#854=EDGE_LOOP('',(#308));
#855=EDGE_LOOP('',(#309));
#856=EDGE_LOOP('',(#310));
#857=EDGE_LOOP('',(#311));
#858=EDGE_LOOP('',(#312));
#859=EDGE_LOOP('',(#313));
#860=EDGE_LOOP('',(#314));
#861=EDGE_LOOP('',(#315));
#862=EDGE_LOOP('',(#316));
#863=EDGE_LOOP('',(#317));
#864=EDGE_LOOP('',(#318));
#865=EDGE_LOOP('',(#319));
#866=EDGE_LOOP('',(#320,#321,#322,#323));
#867=EDGE_LOOP('',(#324,#325,#326,#327));
#868=EDGE_LOOP('',(#328,#329,#330,#331));
#869=EDGE_LOOP('',(#332,#333,#334,#335));
#870=EDGE_LOOP('',(#336,#337,#338,#339));
#871=EDGE_LOOP('',(#340,#341,#342,#343));
#872=EDGE_LOOP('',(#344,#345,#346,#347));
#873=EDGE_LOOP('',(#348,#349,#350,#351));
#874=EDGE_LOOP('',(#352,#353,#354,#355));
#875=EDGE_LOOP('',(#356,#357,#358,#359));
#876=EDGE_LOOP('',(#360,#361,#362,#363));
#877=EDGE_LOOP('',(#364,#365,#366,#367));
#878=FACE_BOUND('',#790,.T.);
#879=FACE_BOUND('',#791,.T.);
#880=FACE_BOUND('',#792,.T.);
#881=FACE_BOUND('',#793,.T.);
#882=FACE_BOUND('',#794,.T.);
#883=FACE_BOUND('',#795,.T.);
#884=FACE_BOUND('',#796,.T.);
#885=FACE_BOUND('',#797,.T.);
#886=FACE_BOUND('',#798,.T.);
#887=FACE_BOUND('',#799,.T.);
#888=FACE_BOUND('',#800,.T.);
#889=FACE_BOUND('',#801,.T.);
#890=FACE_BOUND('',#802,.T.);
#891=FACE_BOUND('',#803,.T.);
#892=FACE_BOUND('',#804,.T.);
#893=FACE_BOUND('',#805,.T.);
#894=FACE_BOUND('',#806,.T.);
#895=FACE_BOUND('',#807,.T.);
#896=FACE_BOUND('',#808,.T.);
#897=FACE_BOUND('',#809,.T.);
#898=FACE_BOUND('',#810,.T.);
#899=FACE_BOUND('',#811,.T.);
#900=FACE_BOUND('',#812,.T.);
#901=FACE_BOUND('',#813,.T.);
#902=FACE_BOUND('',#814,.T.);
#903=FACE_BOUND('',#815,.T.);
#904=FACE_BOUND('',#816,.T.);
#905=FACE_BOUND('',#817,.T.);
#906=FACE_BOUND('',#818,.T.);
#907=FACE_BOUND('',#819,.T.);
#908=FACE_BOUND('',#820,.T.);
#909=FACE_BOUND('',#821,.T.);
#910=FACE_BOUND('',#822,.T.);
#911=FACE_BOUND('',#823,.T.);
#912=FACE_BOUND('',#824,.T.);
#913=FACE_BOUND('',#825,.T.);
#914=FACE_BOUND('',#826,.T.);
#915=FACE_BOUND('',#827,.T.);
#916=FACE_BOUND('',#828,.T.);
#917=FACE_BOUND('',#829,.T.);
#918=FACE_BOUND('',#830,.T.);
#919=FACE_BOUND('',#831,.T.);
#920=FACE_BOUND('',#832,.T.);
#921=FACE_BOUND('',#833,.T.);
#922=FACE_BOUND('',#834,.T.);
#923=FACE_BOUND('',#835,.T.);
#924=FACE_BOUND('',#836,.T.);
#925=FACE_BOUND('',#837,.T.);
#926=FACE_BOUND('',#838,.T.);
#927=FACE_BOUND('',#839,.T.);
#928=FACE_BOUND('',#840,.T.);
#929=FACE_BOUND('',#841,.T.);
#930=FACE_BOUND('',#842,.T.);
#931=FACE_BOUND('',#843,.T.);
#932=FACE_BOUND('',#844,.T.);
#933=FACE_BOUND('',#845,.T.);
#934=FACE_BOUND('',#846,.T.);
#935=FACE_BOUND('',#847,.T.);
#936=FACE_BOUND('',#848,.T.);
#937=FACE_BOUND('',#849,.T.);
#938=FACE_BOUND('',#850,.T.);
#939=FACE_BOUND('',#851,.T.);
#940=FACE_BOUND('',#852,.T.);
#941=FACE_BOUND('',#853,.T.);
#942=FACE_BOUND('',#854,.T.);
#943=FACE_BOUND('',#855,.T.);
#944=FACE_BOUND('',#856,.T.);
#945=FACE_BOUND('',#857,.T.);
#946=FACE_BOUND('',#858,.T.);
#947=FACE_BOUND('',#859,.T.);
#948=FACE_BOUND('',#860,.T.);
#949=FACE_BOUND('',#861,.T.);
#950=FACE_BOUND('',#862,.T.);
#951=FACE_BOUND('',#863,.T.);
#952=FACE_BOUND('',#864,.T.);
#953=FACE_BOUND('',#865,.T.);
#954=FACE_BOUND('',#866,.T.);
#955=FACE_BOUND('',#867,.T.);
#956=FACE_BOUND('',#868,.T.);
#957=FACE_BOUND('',#869,.T.);
#958=FACE_BOUND('',#870,.T.);
#959=FACE_BOUND('',#871,.T.);
#960=FACE_BOUND('',#872,.T.);
#961=FACE_BOUND('',#873,.T.);
#962=FACE_BOUND('',#874,.T.);
#963=FACE_BOUND('',#875,.T.);
#964=FACE_BOUND('',#876,.T.);
#965=FACE_BOUND('',#877,.T.);
#966=PLANE('',#1081);
#967=PLANE('',#1082);
#968=PLANE('',#1083);
#969=PLANE('',#1088);
#970=PLANE('',#1089);
#971=PLANE('',#1094);
#972=PLANE('',#1095);
#973=PLANE('',#1096);
#974=PLANE('',#1097);
#975=PLANE('',#1098);
#976=PLANE('',#1099);
#977=PLANE('',#1103);
#978=PLANE('',#1104);
#979=PLANE('',#1108);
#980=PLANE('',#1112);
#981=PLANE('',#1113);
#982=PLANE('',#1114);
#983=PLANE('',#1130);
#984=PLANE('',#1131);
#985=PLANE('',#1132);
#986=PLANE('',#1133);
#987=PLANE('',#1134);
#988=PLANE('',#1135);
#989=PLANE('',#1136);
#990=PLANE('',#1137);
#991=PLANE('',#1146);
#992=PLANE('',#1148);
#993=PLANE('',#1151);
#994=PLANE('',#1153);
#995=PLANE('',#1156);
#996=PLANE('',#1158);
#997=PLANE('',#1160);
#998=PLANE('',#1163);
#999=PLANE('',#1166);
#1000=PLANE('',#1167);
#1001=PLANE('',#1168);
#1002=PLANE('',#1169);
#1003=PLANE('',#1170);
#1004=PLANE('',#1171);
#1005=PLANE('',#1172);
#1006=PLANE('',#1173);
#1007=ADVANCED_FACE('',(#878,#879),#966,.F.);
#1008=ADVANCED_FACE('',(#880,#881),#967,.F.);
#1009=ADVANCED_FACE('',(#882),#968,.T.);
#1010=ADVANCED_FACE('',(#883),#969,.F.);
#1011=ADVANCED_FACE('',(#884),#970,.F.);
#1012=ADVANCED_FACE('',(#885),#971,.F.);
#1013=ADVANCED_FACE('',(#886),#972,.F.);
#1014=ADVANCED_FACE('',(#887),#973,.T.);
#1015=ADVANCED_FACE('',(#888),#974,.T.);
#1016=ADVANCED_FACE('',(#889),#975,.F.);
#1017=ADVANCED_FACE('',(#890),#976,.T.);
#1018=ADVANCED_FACE('',(#891),#16,.T.);
#1019=ADVANCED_FACE('',(#892),#977,.T.);
#1020=ADVANCED_FACE('',(#893),#978,.F.);
#1021=ADVANCED_FACE('',(#894),#17,.T.);
#1022=ADVANCED_FACE('',(#895),#979,.F.);
#1023=ADVANCED_FACE('',(#896),#18,.T.);
#1024=ADVANCED_FACE('',(#897),#980,.T.);
#1025=ADVANCED_FACE('',(#898),#981,.T.);
#1026=ADVANCED_FACE('',(#899),#982,.F.);
#1027=ADVANCED_FACE('',(#900,#901),#19,.F.);
#1028=ADVANCED_FACE('',(#902,#903),#20,.F.);
#1029=ADVANCED_FACE('',(#904,#905),#21,.F.);
#1030=ADVANCED_FACE('',(#906),#22,.T.);
#1031=ADVANCED_FACE('',(#907,#908),#23,.F.);
#1032=ADVANCED_FACE('',(#909,#910,#911,#912,#913,#914),#983,.F.);
#1033=ADVANCED_FACE('',(#915),#984,.F.);
#1034=ADVANCED_FACE('',(#916,#917,#918,#919,#920),#985,.T.);
#1035=ADVANCED_FACE('',(#921),#986,.F.);
#1036=ADVANCED_FACE('',(#922),#987,.F.);
#1037=ADVANCED_FACE('',(#923),#988,.F.);
#1038=ADVANCED_FACE('',(#924),#989,.T.);
#1039=ADVANCED_FACE('',(#925),#990,.T.);
#1040=ADVANCED_FACE('',(#926,#927),#24,.T.);
#1041=ADVANCED_FACE('',(#928,#929),#25,.T.);
#1042=ADVANCED_FACE('',(#930,#931),#26,.T.);
#1043=ADVANCED_FACE('',(#932,#933),#27,.T.);
#1044=ADVANCED_FACE('',(#934,#935),#991,.T.);
#1045=ADVANCED_FACE('',(#936),#992,.T.);
#1046=ADVANCED_FACE('',(#937,#938),#28,.T.);
#1047=ADVANCED_FACE('',(#939,#940),#993,.T.);
#1048=ADVANCED_FACE('',(#941),#994,.T.);
#1049=ADVANCED_FACE('',(#942,#943),#29,.T.);
#1050=ADVANCED_FACE('',(#944,#945),#995,.T.);
#1051=ADVANCED_FACE('',(#946,#947),#996,.T.);
#1052=ADVANCED_FACE('',(#948),#997,.T.);
#1053=ADVANCED_FACE('',(#949,#950),#30,.T.);
#1054=ADVANCED_FACE('',(#951),#998,.T.);
#1055=ADVANCED_FACE('',(#952,#953),#31,.T.);
#1056=ADVANCED_FACE('',(#954),#999,.T.);
#1057=ADVANCED_FACE('',(#955),#1000,.F.);
#1058=ADVANCED_FACE('',(#956),#1001,.F.);
#1059=ADVANCED_FACE('',(#957),#1002,.T.);
#1060=ADVANCED_FACE('',(#958),#1003,.T.);
#1061=ADVANCED_FACE('',(#959),#1004,.F.);
#1062=ADVANCED_FACE('',(#960),#1005,.T.);
#1063=ADVANCED_FACE('',(#961),#1006,.F.);
#1064=ADVANCED_FACE('',(#962),#12,.F.);
#1065=ADVANCED_FACE('',(#963),#13,.F.);
#1066=ADVANCED_FACE('',(#964),#14,.T.);
#1067=ADVANCED_FACE('',(#965),#15,.T.);
#1068=CLOSED_SHELL('',(#1007,#1008,#1009,#1010,#1011,#1012,#1013,#1014,
#1015,#1016,#1017,#1018,#1019,#1020,#1021,#1022,#1023,#1024,#1025,#1026,
#1027,#1028,#1029,#1030,#1031,#1032,#1033,#1034,#1035,#1036,#1037,#1038,
#1039,#1040,#1041,#1042,#1043,#1044,#1045,#1046,#1047,#1048,#1049,#1050,
#1051,#1052,#1053,#1054,#1055,#1056,#1057,#1058,#1059,#1060,#1061,#1062,
#1063,#1064,#1065,#1066,#1067));
#1069=STYLED_ITEM('',(#1070),#1077);
#1070=PRESENTATION_STYLE_ASSIGNMENT((#1071));
#1071=SURFACE_STYLE_USAGE(.BOTH.,#1072);
#1072=SURFACE_SIDE_STYLE('',(#1073));
#1073=SURFACE_STYLE_FILL_AREA(#1074);
#1074=FILL_AREA_STYLE('',(#1075));
#1075=FILL_AREA_STYLE_COLOUR('',#1076);
#1076=COLOUR_RGB('',0.647058823529412,0.647058823529412,0.647058823529412);
#1077=MANIFOLD_SOLID_BREP('housing',#1068);
#1078=SHAPE_DEFINITION_REPRESENTATION(#1933,#1079);
#1079=SHAPE_REPRESENTATION('housing',(#1080),#1928);
#1080=AXIS2_PLACEMENT_3D('',#1452,#1174,#1175);
#1081=AXIS2_PLACEMENT_3D('',#1453,#1176,#1177);
#1082=AXIS2_PLACEMENT_3D('',#1492,#1192,#1193);
#1083=AXIS2_PLACEMENT_3D('',#1509,#1202,#1203);
#1084=AXIS2_PLACEMENT_3D('',#1538,#1206,#1207);
#1085=AXIS2_PLACEMENT_3D('',#1542,#1209,#1210);
#1086=AXIS2_PLACEMENT_3D('',#1564,#1214,#1215);
#1087=AXIS2_PLACEMENT_3D('',#1568,#1217,#1218);
#1088=AXIS2_PLACEMENT_3D('',#1594,#1220,#1221);
#1089=AXIS2_PLACEMENT_3D('',#1600,#1225,#1226);
#1090=AXIS2_PLACEMENT_3D('',#1615,#1227,#1228);
#1091=AXIS2_PLACEMENT_3D('',#1619,#1230,#1231);
#1092=AXIS2_PLACEMENT_3D('',#1643,#1235,#1236);
#1093=AXIS2_PLACEMENT_3D('',#1644,#1237,#1238);
#1094=AXIS2_PLACEMENT_3D('',#1665,#1242,#1243);
#1095=AXIS2_PLACEMENT_3D('',#1668,#1246,#1247);
#1096=AXIS2_PLACEMENT_3D('',#1674,#1249,#1250);
#1097=AXIS2_PLACEMENT_3D('',#1678,#1253,#1254);
#1098=AXIS2_PLACEMENT_3D('',#1682,#1257,#1258);
#1099=AXIS2_PLACEMENT_3D('',#1684,#1260,#1261);
#1100=AXIS2_PLACEMENT_3D('',#1693,#1266,#1267);
#1101=AXIS2_PLACEMENT_3D('',#1694,#1268,#1269);
#1102=AXIS2_PLACEMENT_3D('',#1698,#1271,#1272);
#1103=AXIS2_PLACEMENT_3D('',#1699,#1273,#1274);
#1104=AXIS2_PLACEMENT_3D('',#1702,#1277,#1278);
#1105=AXIS2_PLACEMENT_3D('',#1708,#1282,#1283);
#1106=AXIS2_PLACEMENT_3D('',#1709,#1284,#1285);
#1107=AXIS2_PLACEMENT_3D('',#1713,#1287,#1288);
#1108=AXIS2_PLACEMENT_3D('',#1714,#1289,#1290);
#1109=AXIS2_PLACEMENT_3D('',#1720,#1294,#1295);
#1110=AXIS2_PLACEMENT_3D('',#1721,#1296,#1297);
#1111=AXIS2_PLACEMENT_3D('',#1725,#1299,#1300);
#1112=AXIS2_PLACEMENT_3D('',#1726,#1301,#1302);
#1113=AXIS2_PLACEMENT_3D('',#1732,#1306,#1307);
#1114=AXIS2_PLACEMENT_3D('',#1738,#1311,#1312);
#1115=AXIS2_PLACEMENT_3D('',#1744,#1316,#1317);
#1116=AXIS2_PLACEMENT_3D('',#1745,#1318,#1319);
#1117=AXIS2_PLACEMENT_3D('',#1747,#1320,#1321);
#1118=AXIS2_PLACEMENT_3D('',#1749,#1322,#1323);
#1119=AXIS2_PLACEMENT_3D('',#1750,#1324,#1325);
#1120=AXIS2_PLACEMENT_3D('',#1752,#1326,#1327);
#1121=AXIS2_PLACEMENT_3D('',#1754,#1328,#1329);
#1122=AXIS2_PLACEMENT_3D('',#1755,#1330,#1331);
#1123=AXIS2_PLACEMENT_3D('',#1757,#1332,#1333);
#1124=AXIS2_PLACEMENT_3D('',#1759,#1334,#1335);
#1125=AXIS2_PLACEMENT_3D('',#1760,#1336,#1337);
#1126=AXIS2_PLACEMENT_3D('',#1761,#1338,#1339);
#1127=AXIS2_PLACEMENT_3D('',#1762,#1340,#1341);
#1128=AXIS2_PLACEMENT_3D('',#1763,#1342,#1343);
#1129=AXIS2_PLACEMENT_3D('',#1765,#1344,#1345);
#1130=AXIS2_PLACEMENT_3D('',#1767,#1346,#1347);
#1131=AXIS2_PLACEMENT_3D('',#1768,#1348,#1349);
#1132=AXIS2_PLACEMENT_3D('',#1774,#1353,#1354);
#1133=AXIS2_PLACEMENT_3D('',#1775,#1355,#1356);
#1134=AXIS2_PLACEMENT_3D('',#1784,#1357,#1358);
#1135=AXIS2_PLACEMENT_3D('',#1790,#1360,#1361);
#1136=AXIS2_PLACEMENT_3D('',#1792,#1363,#1364);
#1137=AXIS2_PLACEMENT_3D('',#1794,#1366,#1367);
#1138=AXIS2_PLACEMENT_3D('',#1795,#1368,#1369);
#1139=AXIS2_PLACEMENT_3D('',#1796,#1370,#1371);
#1140=AXIS2_PLACEMENT_3D('',#1798,#1372,#1373);
#1141=AXIS2_PLACEMENT_3D('',#1799,#1374,#1375);
#1142=AXIS2_PLACEMENT_3D('',#1801,#1376,#1377);
#1143=AXIS2_PLACEMENT_3D('',#1806,#1378,#1379);
#1144=AXIS2_PLACEMENT_3D('',#1808,#1380,#1381);
#1145=AXIS2_PLACEMENT_3D('',#1813,#1382,#1383);
#1146=AXIS2_PLACEMENT_3D('',#1815,#1384,#1385);
#1147=AXIS2_PLACEMENT_3D('',#1816,#1386,#1387);
#1148=AXIS2_PLACEMENT_3D('',#1818,#1388,#1389);
#1149=AXIS2_PLACEMENT_3D('',#1819,#1390,#1391);
#1150=AXIS2_PLACEMENT_3D('',#1821,#1392,#1393);
#1151=AXIS2_PLACEMENT_3D('',#1822,#1394,#1395);
#1152=AXIS2_PLACEMENT_3D('',#1823,#1396,#1397);
#1153=AXIS2_PLACEMENT_3D('',#1825,#1398,#1399);
#1154=AXIS2_PLACEMENT_3D('',#1826,#1400,#1401);
#1155=AXIS2_PLACEMENT_3D('',#1828,#1402,#1403);
#1156=AXIS2_PLACEMENT_3D('',#1829,#1404,#1405);
#1157=AXIS2_PLACEMENT_3D('',#1830,#1406,#1407);
#1158=AXIS2_PLACEMENT_3D('',#1832,#1408,#1409);
#1159=AXIS2_PLACEMENT_3D('',#1833,#1410,#1411);
#1160=AXIS2_PLACEMENT_3D('',#1835,#1412,#1413);
#1161=AXIS2_PLACEMENT_3D('',#1836,#1414,#1415);
#1162=AXIS2_PLACEMENT_3D('',#1838,#1416,#1417);
#1163=AXIS2_PLACEMENT_3D('',#1839,#1418,#1419);
#1164=AXIS2_PLACEMENT_3D('',#1840,#1420,#1421);
#1165=AXIS2_PLACEMENT_3D('',#1842,#1422,#1423);
#1166=AXIS2_PLACEMENT_3D('',#1843,#1424,#1425);
#1167=AXIS2_PLACEMENT_3D('',#1849,#1429,#1430);
#1168=AXIS2_PLACEMENT_3D('',#1853,#1433,#1434);
#1169=AXIS2_PLACEMENT_3D('',#1857,#1437,#1438);
#1170=AXIS2_PLACEMENT_3D('',#1859,#1440,#1441);
#1171=AXIS2_PLACEMENT_3D('',#1862,#1444,#1445);
#1172=AXIS2_PLACEMENT_3D('',#1864,#1447,#1448);
#1173=AXIS2_PLACEMENT_3D('',#1866,#1450,#1451);
#1174=DIRECTION('',(0.,0.,1.));
#1175=DIRECTION('',(1.,0.,0.));
#1176=DIRECTION('',(1.,0.,0.));
#1177=DIRECTION('',(0.,0.,-1.));
#1178=DIRECTION('',(0.,1.,0.));
#1179=DIRECTION('',(0.,1.,0.));
#1180=DIRECTION('',(0.,0.,1.));
#1181=DIRECTION('',(0.,1.,0.));
#1182=DIRECTION('',(0.,0.,1.));
#1183=DIRECTION('',(0.,1.,0.));
#1184=DIRECTION('',(0.,1.,0.));
#1185=DIRECTION('',(0.,0.,-1.));
#1186=DIRECTION('',(0.,1.,0.));
#1187=DIRECTION('',(0.,0.,-1.));
#1188=DIRECTION('',(0.,0.,-1.));
#1189=DIRECTION('',(0.,1.,-1.44560289664734E-16));
#1190=DIRECTION('',(0.,0.,-1.));
#1191=DIRECTION('',(0.,1.,-7.2280144832367E-17));
#1192=DIRECTION('',(-1.,0.,0.));
#1193=DIRECTION('',(0.,0.,1.));
#1194=DIRECTION('',(0.,1.,-7.2280144832367E-17));
#1195=DIRECTION('',(0.,0.,-1.));
#1196=DIRECTION('',(0.,-1.,1.44560289664734E-16));
#1197=DIRECTION('',(0.,0.,1.));
#1198=DIRECTION('',(0.,-1.,0.));
#1199=DIRECTION('',(0.,0.,1.));
#1200=DIRECTION('',(0.,-1.,0.));
#1201=DIRECTION('',(0.,0.,1.));
#1202=DIRECTION('',(0.,0.,1.));
#1203=DIRECTION('',(1.,0.,0.));
#1204=DIRECTION('',(0.,-1.,0.));
#1205=DIRECTION('',(1.,2.31296463463575E-15,0.));
#1206=DIRECTION('',(0.,0.,-1.));
#1207=DIRECTION('',(1.,0.,0.));
#1208=DIRECTION('',(1.,2.31296463463575E-15,0.));
#1209=DIRECTION('',(0.,0.,1.));
#1210=DIRECTION('',(1.,0.,0.));
#1211=DIRECTION('',(-1.,0.,0.));
#1212=DIRECTION('',(0.,-1.,0.));
#1213=DIRECTION('',(-1.,0.,0.));
#1214=DIRECTION('',(0.,0.,-1.));
#1215=DIRECTION('',(1.,0.,0.));
#1216=DIRECTION('',(-1.,0.,0.));
#1217=DIRECTION('',(0.,0.,1.));
#1218=DIRECTION('',(1.,0.,0.));
#1219=DIRECTION('',(-1.,0.,0.));
#1220=DIRECTION('',(0.,-1.,0.));
#1221=DIRECTION('',(0.,0.,-1.));
#1222=DIRECTION('',(0.,0.,1.));
#1223=DIRECTION('',(-1.,0.,0.));
#1224=DIRECTION('',(0.,0.,1.));
#1225=DIRECTION('',(0.,0.,-1.));
#1226=DIRECTION('',(1.,0.,0.));
#1227=DIRECTION('',(0.,0.,-1.));
#1228=DIRECTION('',(-1.,0.,0.));
#1229=DIRECTION('',(1.,2.31296463463575E-15,0.));
#1230=DIRECTION('',(0.,0.,-1.));
#1231=DIRECTION('',(-1.,0.,0.));
#1232=DIRECTION('',(1.,2.31296463463575E-15,0.));
#1233=DIRECTION('',(0.,-1.,0.));
#1234=DIRECTION('',(-1.,0.,0.));
#1235=DIRECTION('',(0.,0.,-1.));
#1236=DIRECTION('',(-1.,0.,0.));
#1237=DIRECTION('',(0.,0.,-1.));
#1238=DIRECTION('',(-1.,0.,0.));
#1239=DIRECTION('',(1.,0.,0.));
#1240=DIRECTION('',(0.,1.,0.));
#1241=DIRECTION('',(1.,0.,0.));
#1242=DIRECTION('',(-2.31296463463575E-15,1.,0.));
#1243=DIRECTION('',(-1.,-2.31296463463575E-15,0.));
#1244=DIRECTION('',(0.,0.,1.));
#1245=DIRECTION('',(0.,0.,1.));
#1246=DIRECTION('',(0.,-1.,0.));
#1247=DIRECTION('',(0.,0.,-1.));
#1248=DIRECTION('',(0.,0.,1.));
#1249=DIRECTION('',(0.,-1.,0.));
#1250=DIRECTION('',(0.,0.,-1.));
#1251=DIRECTION('',(1.,0.,0.));
#1252=DIRECTION('',(0.,0.,1.));
#1253=DIRECTION('',(1.,0.,0.));
#1254=DIRECTION('',(0.,0.,-1.));
#1255=DIRECTION('',(0.,1.,0.));
#1256=DIRECTION('',(0.,0.,1.));
#1257=DIRECTION('',(0.,-1.,0.));
#1258=DIRECTION('',(0.,0.,-1.));
#1259=DIRECTION('',(1.,0.,0.));
#1260=DIRECTION('',(0.,1.,0.));
#1261=DIRECTION('',(0.,0.,1.));
#1262=DIRECTION('',(-1.,0.,0.));
#1263=DIRECTION('',(0.,0.,1.));
#1264=DIRECTION('',(-1.,0.,0.));
#1265=DIRECTION('',(0.,0.,1.));
#1266=DIRECTION('',(0.,0.,1.));
#1267=DIRECTION('',(1.,0.,0.));
#1268=DIRECTION('',(0.,0.,1.));
#1269=DIRECTION('',(1.,0.,0.));
#1270=DIRECTION('',(0.,0.,1.));
#1271=DIRECTION('',(0.,0.,1.));
#1272=DIRECTION('',(1.,0.,0.));
#1273=DIRECTION('',(0.,-1.,0.));
#1274=DIRECTION('',(0.,0.,-1.));
#1275=DIRECTION('',(1.,0.,0.));
#1276=DIRECTION('',(1.,0.,0.));
#1277=DIRECTION('',(0.,-1.,0.));
#1278=DIRECTION('',(0.,0.,-1.));
#1279=DIRECTION('',(1.,0.,0.));
#1280=DIRECTION('',(0.,0.,1.));
#1281=DIRECTION('',(1.,0.,0.));
#1282=DIRECTION('',(0.,0.,1.));
#1283=DIRECTION('',(1.,0.,0.));
#1284=DIRECTION('',(0.,0.,1.));
#1285=DIRECTION('',(1.,0.,0.));
#1286=DIRECTION('',(0.,0.,1.));
#1287=DIRECTION('',(0.,0.,1.));
#1288=DIRECTION('',(1.,0.,0.));
#1289=DIRECTION('',(-5.45296181053613E-16,1.,0.));
#1290=DIRECTION('',(-1.,-5.45296181053613E-16,0.));
#1291=DIRECTION('',(-1.,-5.45296181053613E-16,0.));
#1292=DIRECTION('',(0.,0.,1.));
#1293=DIRECTION('',(-1.,-5.45296181053613E-16,0.));
#1294=DIRECTION('',(0.,0.,1.));
#1295=DIRECTION('',(1.,0.,0.));
#1296=DIRECTION('',(0.,0.,1.));
#1297=DIRECTION('',(1.,0.,0.));
#1298=DIRECTION('',(0.,0.,1.));
#1299=DIRECTION('',(0.,0.,1.));
#1300=DIRECTION('',(1.,0.,0.));
#1301=DIRECTION('',(0.,1.,0.));
#1302=DIRECTION('',(0.,0.,1.));
#1303=DIRECTION('',(-1.,0.,0.));
#1304=DIRECTION('',(0.,0.,1.));
#1305=DIRECTION('',(-1.,0.,0.));
#1306=DIRECTION('',(-1.,0.,0.));
#1307=DIRECTION('',(0.,0.,1.));
#1308=DIRECTION('',(0.,-1.,0.));
#1309=DIRECTION('',(0.,0.,1.));
#1310=DIRECTION('',(0.,-1.,0.));
#1311=DIRECTION('',(0.,1.,0.));
#1312=DIRECTION('',(0.,0.,1.));
#1313=DIRECTION('',(-1.,0.,0.));
#1314=DIRECTION('',(0.,0.,1.));
#1315=DIRECTION('',(-1.,0.,0.));
#1316=DIRECTION('',(0.,0.,1.));
#1317=DIRECTION('',(1.,0.,0.));
#1318=DIRECTION('',(0.,0.,1.));
#1319=DIRECTION('',(1.,0.,0.));
#1320=DIRECTION('',(0.,0.,1.));
#1321=DIRECTION('',(1.,0.,0.));
#1322=DIRECTION('',(0.,0.,1.));
#1323=DIRECTION('',(1.,0.,0.));
#1324=DIRECTION('',(0.,0.,1.));
#1325=DIRECTION('',(1.,0.,0.));
#1326=DIRECTION('',(0.,0.,1.));
#1327=DIRECTION('',(1.,0.,0.));
#1328=DIRECTION('',(0.,0.,1.));
#1329=DIRECTION('',(1.,0.,0.));
#1330=DIRECTION('',(0.,0.,1.));
#1331=DIRECTION('',(1.,0.,0.));
#1332=DIRECTION('',(0.,0.,1.));
#1333=DIRECTION('',(1.,0.,0.));
#1334=DIRECTION('',(0.,0.,1.));
#1335=DIRECTION('',(1.,0.,0.));
#1336=DIRECTION('',(0.,0.,1.));
#1337=DIRECTION('',(1.,0.,0.));
#1338=DIRECTION('',(0.,0.,1.));
#1339=DIRECTION('',(1.,0.,0.));
#1340=DIRECTION('',(0.,0.,1.));
#1341=DIRECTION('',(1.,0.,0.));
#1342=DIRECTION('',(0.,0.,1.));
#1343=DIRECTION('',(1.,0.,0.));
#1344=DIRECTION('',(0.,0.,1.));
#1345=DIRECTION('',(1.,0.,0.));
#1346=DIRECTION('',(0.,0.,-1.));
#1347=DIRECTION('',(1.,0.,0.));
#1348=DIRECTION('',(0.,0.,-1.));
#1349=DIRECTION('',(1.,0.,0.));
#1350=DIRECTION('',(-1.,0.,0.));
#1351=DIRECTION('',(0.,-1.,0.));
#1352=DIRECTION('',(-1.,0.,0.));
#1353=DIRECTION('',(0.,0.,-1.));
#1354=DIRECTION('',(1.,0.,0.));
#1355=DIRECTION('',(1.,0.,0.));
#1356=DIRECTION('',(0.,0.,-1.));
#1357=DIRECTION('',(-2.31296463463575E-15,1.,0.));
#1358=DIRECTION('',(-1.,-2.31296463463575E-15,0.));
#1359=DIRECTION('',(0.,0.,1.));
#1360=DIRECTION('',(0.,-1.,0.));
#1361=DIRECTION('',(0.,0.,-1.));
#1362=DIRECTION('',(0.,0.,-1.));
#1363=DIRECTION('',(1.,0.,0.));
#1364=DIRECTION('',(0.,0.,-1.));
#1365=DIRECTION('',(0.,0.,-1.));
#1366=DIRECTION('',(0.,-1.,0.));
#1367=DIRECTION('',(0.,0.,-1.));
#1368=DIRECTION('',(0.,0.,1.));
#1369=DIRECTION('',(1.,0.,0.));
#1370=DIRECTION('',(0.,0.,1.));
#1371=DIRECTION('',(1.,0.,0.));
#1372=DIRECTION('',(0.,0.,1.));
#1373=DIRECTION('',(1.,0.,0.));
#1374=DIRECTION('',(0.,0.,-1.));
#1375=DIRECTION('',(1.,0.,0.));
#1376=DIRECTION('',(0.,0.,1.));
#1377=DIRECTION('',(1.,0.,0.));
#1378=DIRECTION('',(0.,0.,1.));
#1379=DIRECTION('',(1.,0.,0.));
#1380=DIRECTION('',(0.,0.,1.));
#1381=DIRECTION('',(1.,0.,0.));
#1382=DIRECTION('',(0.,0.,-1.));
#1383=DIRECTION('',(1.,0.,0.));
#1384=DIRECTION('',(0.,0.,1.));
#1385=DIRECTION('',(1.,0.,0.));
#1386=DIRECTION('',(0.,0.,1.));
#1387=DIRECTION('',(1.,0.,0.));
#1388=DIRECTION('',(0.,0.,1.));
#1389=DIRECTION('',(1.,0.,0.));
#1390=DIRECTION('',(0.,0.,-1.));
#1391=DIRECTION('',(1.,0.,0.));
#1392=DIRECTION('',(0.,0.,-1.));
#1393=DIRECTION('',(-1.,0.,0.));
#1394=DIRECTION('',(0.,0.,1.));
#1395=DIRECTION('',(1.,0.,0.));
#1396=DIRECTION('',(0.,0.,1.));
#1397=DIRECTION('',(1.,0.,0.));
#1398=DIRECTION('',(0.,0.,1.));
#1399=DIRECTION('',(1.,0.,0.));
#1400=DIRECTION('',(0.,0.,-1.));
#1401=DIRECTION('',(1.,0.,0.));
#1402=DIRECTION('',(0.,0.,-1.));
#1403=DIRECTION('',(-1.,0.,0.));
#1404=DIRECTION('',(0.,0.,1.));
#1405=DIRECTION('',(1.,0.,0.));
#1406=DIRECTION('',(0.,0.,1.));
#1407=DIRECTION('',(1.,0.,0.));
#1408=DIRECTION('',(0.,0.,1.));
#1409=DIRECTION('',(1.,0.,0.));
#1410=DIRECTION('',(0.,0.,1.));
#1411=DIRECTION('',(1.,0.,0.));
#1412=DIRECTION('',(0.,0.,1.));
#1413=DIRECTION('',(1.,0.,0.));
#1414=DIRECTION('',(0.,0.,1.));
#1415=DIRECTION('',(1.,0.,0.));
#1416=DIRECTION('',(0.,0.,-1.));
#1417=DIRECTION('',(-1.,0.,0.));
#1418=DIRECTION('',(0.,0.,1.));
#1419=DIRECTION('',(1.,0.,0.));
#1420=DIRECTION('',(0.,0.,1.));
#1421=DIRECTION('',(1.,0.,0.));
#1422=DIRECTION('',(0.,0.,-1.));
#1423=DIRECTION('',(-1.,0.,0.));
#1424=DIRECTION('',(0.,1.,0.));
#1425=DIRECTION('',(0.,0.,1.));
#1426=DIRECTION('',(-1.,0.,0.));
#1427=DIRECTION('',(0.,0.,-1.));
#1428=DIRECTION('',(-1.,0.,0.));
#1429=DIRECTION('',(0.,7.2280144832367E-17,1.));
#1430=DIRECTION('',(0.,-1.,7.2280144832367E-17));
#1431=DIRECTION('',(-1.,0.,0.));
#1432=DIRECTION('',(0.,-1.,7.2280144832367E-17));
#1433=DIRECTION('',(0.,1.,0.));
#1434=DIRECTION('',(0.,0.,1.));
#1435=DIRECTION('',(-1.,0.,0.));
#1436=DIRECTION('',(0.,0.,1.));
#1437=DIRECTION('',(0.,1.44560289664734E-16,1.));
#1438=DIRECTION('',(0.,-1.,1.44560289664734E-16));
#1439=DIRECTION('',(0.,1.,-1.44560289664734E-16));
#1440=DIRECTION('',(0.707106781186548,0.707106781186548,0.));
#1441=DIRECTION('',(0.,0.,1.));
#1442=DIRECTION('',(0.577350269189626,-0.577350269189626,-0.577350269189626));
#1443=DIRECTION('',(-0.577350269189626,0.577350269189626,-0.577350269189626));
#1444=DIRECTION('',(-0.707106781186548,5.11097805561125E-17,0.707106781186547));
#1445=DIRECTION('',(0.,1.,-7.2280144832367E-17));
#1446=DIRECTION('',(0.577350269189626,0.577350269189626,0.577350269189626));
#1447=DIRECTION('',(0.707106781186548,1.02219561112225E-16,0.707106781186547));
#1448=DIRECTION('',(0.,-1.,1.44560289664734E-16));
#1449=DIRECTION('',(0.577350269189626,0.577350269189626,-0.577350269189626));
#1450=DIRECTION('',(-0.707106781186548,0.707106781186548,0.));
#1451=DIRECTION('',(0.,0.,-1.));
#1452=CARTESIAN_POINT('',(0.,0.,0.));
#1453=CARTESIAN_POINT('',(0.0479,-0.0124,-0.031));
#1454=CARTESIAN_POINT('',(0.0479,-0.0124,-0.019));
#1455=CARTESIAN_POINT('',(0.0479,-0.04071127,-0.019));
#1456=CARTESIAN_POINT('',(0.0479,-0.0324,-0.019));
#1457=CARTESIAN_POINT('',(0.0479,-0.04071127,-0.0190000000000006));
#1458=CARTESIAN_POINT('',(0.0479,-0.04071127,-0.0230000000000004));
#1459=CARTESIAN_POINT('',(0.0479,-0.04071127,-0.0270000000000002));
#1460=CARTESIAN_POINT('',(0.0479,-0.04071127,-0.0310000000000001));
#1461=CARTESIAN_POINT('',(0.0479,-0.04071127,-0.031));
#1462=CARTESIAN_POINT('',(0.0479,-0.0124,-0.031));
#1463=CARTESIAN_POINT('',(0.0479,-0.04555,-0.031));
#1464=CARTESIAN_POINT('',(0.0479,-0.04555,-0.031));
#1465=CARTESIAN_POINT('',(0.0479,-0.04555,-0.003));
#1466=CARTESIAN_POINT('',(0.0479,-0.0124,-0.003));
#1467=CARTESIAN_POINT('',(0.0479,0.02075,-0.003));
#1468=CARTESIAN_POINT('',(0.0479,0.02075,-0.031));
#1469=CARTESIAN_POINT('',(0.0479,0.02075,-0.031));
#1470=CARTESIAN_POINT('',(0.0479,-0.0124,-0.031));
#1471=CARTESIAN_POINT('',(0.0479,0.01591127,-0.031));
#1472=CARTESIAN_POINT('',(0.0479,0.01591127,-0.0310000000000011));
#1473=CARTESIAN_POINT('',(0.0479,0.01591127,-0.0270000000000004));
#1474=CARTESIAN_POINT('',(0.0479,0.01591127,-0.0229999999999998));
#1475=CARTESIAN_POINT('',(0.0479,0.01591127,-0.0189999999999991));
#1476=CARTESIAN_POINT('',(0.0479,0.01591127,-0.019));
#1477=CARTESIAN_POINT('',(0.0479,-0.0124,-0.019));
#1478=CARTESIAN_POINT('',(0.0479,0.0076,-0.019));
#1479=CARTESIAN_POINT('',(0.0479,0.0076,-0.019));
#1480=CARTESIAN_POINT('',(0.0479,0.0076,-0.031));
#1481=CARTESIAN_POINT('',(0.0479,-0.0124,-0.031));
#1482=CARTESIAN_POINT('',(0.0479,-0.0324,-0.031));
#1483=CARTESIAN_POINT('',(0.0479,-0.0324,-0.019));
#1484=CARTESIAN_POINT('',(0.0479,-0.0214,-0.009));
#1485=CARTESIAN_POINT('',(0.0479,-0.0214,-0.005));
#1486=CARTESIAN_POINT('',(0.0479,-0.0214,-0.013));
#1487=CARTESIAN_POINT('',(0.0479,-0.0154,-0.013));
#1488=CARTESIAN_POINT('',(0.0479,-0.0094,-0.013));
#1489=CARTESIAN_POINT('',(0.0479,-0.0094,-0.009));
#1490=CARTESIAN_POINT('',(0.0479,-0.0094,-0.005));
#1491=CARTESIAN_POINT('',(0.0479,-0.0154,-0.005));
#1492=CARTESIAN_POINT('',(0.0509,0.,-0.031));
#1493=CARTESIAN_POINT('',(0.0509,1.98770398289009E-18,-0.0035));
#1494=CARTESIAN_POINT('',(0.0509,-0.0229,-0.0035));
#1495=CARTESIAN_POINT('',(0.0509,-0.0079,-0.0035));
#1496=CARTESIAN_POINT('',(0.0509,-0.0079,-0.031));
#1497=CARTESIAN_POINT('',(0.0509,-0.0079,-0.0145));
#1498=CARTESIAN_POINT('',(0.0509,-0.0214,-0.0145));
#1499=CARTESIAN_POINT('',(0.0509,-0.0229,-0.0145));
#1500=CARTESIAN_POINT('',(0.0509,-0.0229,-0.005));
#1501=CARTESIAN_POINT('',(0.0509,0.,-0.003));
#1502=CARTESIAN_POINT('',(0.0509,0.01395,-0.003));
#1503=CARTESIAN_POINT('',(0.0509,-0.03875,-0.003));
#1504=CARTESIAN_POINT('',(0.0509,-0.03875,-0.031));
#1505=CARTESIAN_POINT('',(0.0509,-0.03875,-0.033));
#1506=CARTESIAN_POINT('',(0.0509,0.,-0.033));
#1507=CARTESIAN_POINT('',(0.0509,0.01395,-0.033));
#1508=CARTESIAN_POINT('',(0.0509,0.01395,-0.031));
#1509=CARTESIAN_POINT('',(1.38777878078145E-17,-0.0124,-0.019));
#1510=CARTESIAN_POINT('',(-0.0291,-0.0124,-0.019));
#1511=CARTESIAN_POINT('',(-0.0291,0.00528873,-0.019));
#1512=CARTESIAN_POINT('',(-0.0291,-0.03008873,-0.019));
#1513=CARTESIAN_POINT('',(-0.0291,-0.03008873,-0.019));
#1514=CARTESIAN_POINT('',(-0.0291,-0.0303143159366512,-0.019));
#1515=CARTESIAN_POINT('',(-0.0290930861855097,-0.0307201948112127,-0.019));
#1516=CARTESIAN_POINT('',(-0.0290655663854928,-0.0311060922971485,-0.019));
#1517=CARTESIAN_POINT('',(-0.0290442262144903,-0.0312949009354346,-0.019));
#1518=CARTESIAN_POINT('',(-0.0290185044026044,-0.0314822337761241,-0.019));
#1519=CARTESIAN_POINT('',(-0.0289633608131215,-0.0317960139891103,-0.019));
#1520=CARTESIAN_POINT('',(-0.0288553935434165,-0.0322273002091931,-0.019));
#1521=CARTESIAN_POINT('',(-0.0286681553562135,-0.0327448117521329,-0.019));
#1522=CARTESIAN_POINT('',(-0.0283336236479432,-0.0334161568011908,-0.019));
#1523=CARTESIAN_POINT('',(-0.0277982677129916,-0.0341131470634293,-0.019));
#1524=CARTESIAN_POINT('',(-0.026950849579017,-0.0347504581386511,-0.019));
#1525=CARTESIAN_POINT('',(-0.0262197387986185,-0.0350674862469883,-0.019));
#1526=CARTESIAN_POINT('',(-0.0256589766940392,-0.035222577209113,-0.019));
#1527=CARTESIAN_POINT('',(-0.0254070748797043,-0.0352788576775029,-0.019));
#1528=CARTESIAN_POINT('',(-0.0251416712306673,-0.0353252542614333,-0.019));
#1529=CARTESIAN_POINT('',(-0.0249239471531889,-0.0353536083472829,-0.019));
#1530=CARTESIAN_POINT('',(-0.024725956259662,-0.0353722620102136,-0.019));
#1531=CARTESIAN_POINT('',(-0.0245981623515007,-0.0353815669736137,-0.019));
#1532=CARTESIAN_POINT('',(-0.0243188292988596,-0.0353955651827577,-0.019));
#1533=CARTESIAN_POINT('',(-0.024019179090801,-0.0354,-0.019));
#1534=CARTESIAN_POINT('',(-0.02378873,-0.0354,-0.019));
#1535=CARTESIAN_POINT('',(-0.02378873,-0.0354,-0.019));
#1536=CARTESIAN_POINT('',(-0.0276,-0.0354,-0.019));
#1537=CARTESIAN_POINT('',(-0.0226811388300842,-0.0354,-0.019));
#1538=CARTESIAN_POINT('',(-0.0211,-0.03465,-0.019));
#1539=CARTESIAN_POINT('',(-0.0195188611699158,-0.0354,-0.019));
#1540=CARTESIAN_POINT('',(-0.0276,-0.0354,-0.019));
#1541=CARTESIAN_POINT('',(0.0413188611699157,-0.0354,-0.019));
#1542=CARTESIAN_POINT('',(0.0429,-0.03465,-0.019));
#1543=CARTESIAN_POINT('',(0.0443925625250027,-0.0355636504303932,-0.019));
#1544=CARTESIAN_POINT('',(0.0443925625250027,-0.0355636504303932,-0.019));
#1545=CARTESIAN_POINT('',(0.0449496580682169,-0.0356952742112757,-0.019));
#1546=CARTESIAN_POINT('',(0.0460196642658781,-0.0361231066208598,-0.019));
#1547=CARTESIAN_POINT('',(0.0472342887911171,-0.0373766741699251,-0.019));
#1548=CARTESIAN_POINT('',(0.0478511082769982,-0.0390001182237489,-0.019));
#1549=CARTESIAN_POINT('',(0.0479,-0.0401401950772695,-0.019));
#1550=CARTESIAN_POINT('',(0.0479,-0.04071127,-0.019));
#1551=CARTESIAN_POINT('',(0.0109,-0.0324,-0.019));
#1552=CARTESIAN_POINT('',(-0.0261,-0.0324,-0.019));
#1553=CARTESIAN_POINT('',(-0.0261,-0.0124,-0.019));
#1554=CARTESIAN_POINT('',(-0.0261,0.0076,-0.019));
#1555=CARTESIAN_POINT('',(0.0109,0.0076,-0.019));
#1556=CARTESIAN_POINT('',(0.0479,0.01591127,-0.019));
#1557=CARTESIAN_POINT('',(0.0479,0.0153429170506441,-0.019));
#1558=CARTESIAN_POINT('',(0.0478532969563011,0.0142101021661096,-0.019));
#1559=CARTESIAN_POINT('',(0.0472355152016039,0.0125790657827765,-0.019));
#1560=CARTESIAN_POINT('',(0.0460280386964785,0.0113283504334314,-0.019));
#1561=CARTESIAN_POINT('',(0.0449504632571383,0.0108954644515523,-0.019));
#1562=CARTESIAN_POINT('',(0.0443925625250026,0.0107636504303933,-0.019));
#1563=CARTESIAN_POINT('',(0.0443925625250026,0.0107636504303933,-0.019));
#1564=CARTESIAN_POINT('',(0.0429,0.00985,-0.019));
#1565=CARTESIAN_POINT('',(0.0413188611699159,0.0106,-0.019));
#1566=CARTESIAN_POINT('',(0.0109,0.0106,-0.019));
#1567=CARTESIAN_POINT('',(-0.0195188611699158,0.0106,-0.019));
#1568=CARTESIAN_POINT('',(-0.0211,0.00985,-0.019));
#1569=CARTESIAN_POINT('',(-0.0226811388300842,0.0106,-0.019));
#1570=CARTESIAN_POINT('',(0.0109,0.0106,-0.019));
#1571=CARTESIAN_POINT('',(-0.02378873,0.0106,-0.019));
#1572=CARTESIAN_POINT('',(-0.02378873,0.0106,-0.019));
#1573=CARTESIAN_POINT('',(-0.0240143159366534,0.0106,-0.019));
#1574=CARTESIAN_POINT('',(-0.0244201948112172,0.0105930861855097,-0.019));
#1575=CARTESIAN_POINT('',(-0.0248060922971519,0.0105655663854927,-0.019));
#1576=CARTESIAN_POINT('',(-0.0249949009354347,0.0105442262144904,-0.019));
#1577=CARTESIAN_POINT('',(-0.0251822337761233,0.0105185044026042,-0.019));
#1578=CARTESIAN_POINT('',(-0.0254960139891086,0.010463360813121,-0.019));
#1579=CARTESIAN_POINT('',(-0.025927300209192,0.0103553935434158,-0.019));
#1580=CARTESIAN_POINT('',(-0.0264448117521323,0.0101681553562147,-0.019));
#1581=CARTESIAN_POINT('',(-0.0271161568011874,0.00983362364794663,-0.019));
#1582=CARTESIAN_POINT('',(-0.0278131470634232,0.00929826771299855,-0.019));
#1583=CARTESIAN_POINT('',(-0.0284504581386647,0.00845084957900178,-0.019));
#1584=CARTESIAN_POINT('',(-0.0287674862470085,0.00771973879858407,-0.019));
#1585=CARTESIAN_POINT('',(-0.028922577209112,0.00715897669404667,-0.019));
#1586=CARTESIAN_POINT('',(-0.028978857677505,0.00690707487967781,-0.019));
#1587=CARTESIAN_POINT('',(-0.0290252542614355,0.00664167123063675,-0.019));
#1588=CARTESIAN_POINT('',(-0.0290536083472846,0.00642394715316541,-0.019));
#1589=CARTESIAN_POINT('',(-0.0290722620102136,0.00622595625966274,-0.019));
#1590=CARTESIAN_POINT('',(-0.0290815669736137,0.00609816235150134,-0.019));
#1591=CARTESIAN_POINT('',(-0.0290955651827577,0.00581882929886212,-0.019));
#1592=CARTESIAN_POINT('',(-0.0291,0.00551917909080229,-0.019));
#1593=CARTESIAN_POINT('',(-0.0291,0.00528873,-0.019));
#1594=CARTESIAN_POINT('',(0.0109,0.0106,-0.019));
#1595=CARTESIAN_POINT('',(0.0413188611699159,0.0106,-0.031002));
#1596=CARTESIAN_POINT('',(0.0413188611699159,0.0106,-0.031));
#1597=CARTESIAN_POINT('',(0.0109,0.0106,-0.031));
#1598=CARTESIAN_POINT('',(-0.0195188611699158,0.0106,-0.031));
#1599=CARTESIAN_POINT('',(-0.0195188611699158,0.0106,-0.031002));
#1600=CARTESIAN_POINT('',(0.,-0.0124,-0.031));
#1601=CARTESIAN_POINT('',(0.0479,-0.04071127,-0.031));
#1602=CARTESIAN_POINT('',(0.0479,-0.0405306833432609,-0.031));
#1603=CARTESIAN_POINT('',(0.0478957602898655,-0.0402000079383606,-0.031));
#1604=CARTESIAN_POINT('',(0.0478819372779492,-0.0398901058709081,-0.031));
#1605=CARTESIAN_POINT('',(0.0478620282219085,-0.03965529417914,-0.031));
#1606=CARTESIAN_POINT('',(0.0478259296051556,-0.0393540501590231,-0.031));
#1607=CARTESIAN_POINT('',(0.0477432215074415,-0.0388840337863311,-0.031));
#1608=CARTESIAN_POINT('',(0.0475304987188967,-0.0381615148184458,-0.031));
#1609=CARTESIAN_POINT('',(0.0471491430755697,-0.0374112332787411,-0.031));
#1610=CARTESIAN_POINT('',(0.0466430578400698,-0.0367550294625181,-0.031));
#1611=CARTESIAN_POINT('',(0.045754262232015,-0.0360228533425117,-0.031));
#1612=CARTESIAN_POINT('',(0.0449716962239164,-0.03570048111952,-0.031));
#1613=CARTESIAN_POINT('',(0.0443925625250027,-0.0355636504303931,-0.031));
#1614=CARTESIAN_POINT('',(0.0443925625250027,-0.0355636504303932,-0.031));
#1615=CARTESIAN_POINT('',(0.0429,-0.03465,-0.031));
#1616=CARTESIAN_POINT('',(0.0413188611699157,-0.0354,-0.031));
#1617=CARTESIAN_POINT('',(-0.0276,-0.0354,-0.031));
#1618=CARTESIAN_POINT('',(-0.0195188611699158,-0.0354,-0.031));
#1619=CARTESIAN_POINT('',(-0.0211,-0.03465,-0.031));
#1620=CARTESIAN_POINT('',(-0.0226811388300842,-0.0354,-0.031));
#1621=CARTESIAN_POINT('',(-0.0276,-0.0354,-0.031));
#1622=CARTESIAN_POINT('',(-0.02378873,-0.0354,-0.031));
#1623=CARTESIAN_POINT('',(-0.02378873,-0.0354,-0.031));
#1624=CARTESIAN_POINT('',(-0.0245089529913527,-0.0354,-0.031));
#1625=CARTESIAN_POINT('',(-0.0259567932881202,-0.0353042280517551,-0.031));
#1626=CARTESIAN_POINT('',(-0.0279151876086443,-0.0342209196303495,-0.031));
#1627=CARTESIAN_POINT('',(-0.0290055537973634,-0.0322551797657766,-0.031));
#1628=CARTESIAN_POINT('',(-0.0291,-0.030811285013901,-0.031));
#1629=CARTESIAN_POINT('',(-0.0291,-0.03008873,-0.031));
#1630=CARTESIAN_POINT('',(-0.0291,-0.03008873,-0.031));
#1631=CARTESIAN_POINT('',(-0.0291,-0.0124,-0.031));
#1632=CARTESIAN_POINT('',(-0.0291,0.00528873,-0.031));
#1633=CARTESIAN_POINT('',(-0.0291,0.00528873,-0.031));
#1634=CARTESIAN_POINT('',(-0.0291,0.00600895299135267,-0.031));
#1635=CARTESIAN_POINT('',(-0.0290042280517551,0.00745679328812019,-0.031));
#1636=CARTESIAN_POINT('',(-0.0279209196303495,0.00941518760864433,-0.031));
#1637=CARTESIAN_POINT('',(-0.0259551797657766,0.0105055537973634,-0.031));
#1638=CARTESIAN_POINT('',(-0.024511285013901,0.0106,-0.031));
#1639=CARTESIAN_POINT('',(-0.02378873,0.0106,-0.031));
#1640=CARTESIAN_POINT('',(-0.02378873,0.0106,-0.031));
#1641=CARTESIAN_POINT('',(0.0109,0.0106,-0.031));
#1642=CARTESIAN_POINT('',(-0.0226811388300842,0.0106,-0.031));
#1643=CARTESIAN_POINT('',(-0.0211,0.00985,-0.031));
#1644=CARTESIAN_POINT('',(0.0429,0.00985,-0.031));
#1645=CARTESIAN_POINT('',(0.0443925625250026,0.0107636504303933,-0.031));
#1646=CARTESIAN_POINT('',(0.0443925625250026,0.0107636504303934,-0.031));
#1647=CARTESIAN_POINT('',(0.0449819733529746,0.0109029092749771,-0.031));
#1648=CARTESIAN_POINT('',(0.0460258033998327,0.0113430469018344,-0.031));
#1649=CARTESIAN_POINT('',(0.046913595823012,0.0122285383782642,-0.031));
#1650=CARTESIAN_POINT('',(0.0473493430190341,0.0130088454994022,-0.031));
#1651=CARTESIAN_POINT('',(0.047573400407707,0.0135135329237235,-0.031));
#1652=CARTESIAN_POINT('',(0.0477395870935322,0.0140623303410523,-0.031));
#1653=CARTESIAN_POINT('',(0.04783853623929,0.0146304661298331,-0.031));
#1654=CARTESIAN_POINT('',(0.0478703781633869,0.0149307027078392,-0.031));
#1655=CARTESIAN_POINT('',(0.0478855638318385,0.0151688127851461,-0.031));
#1656=CARTESIAN_POINT('',(0.0478903723306821,0.0152682164582506,-0.031));
#1657=CARTESIAN_POINT('',(0.0478976993551939,0.0154882410732116,-0.031));
#1658=CARTESIAN_POINT('',(0.0479,0.0157268001780738,-0.031));
#1659=CARTESIAN_POINT('',(0.0479,0.01591127,-0.031));
#1660=CARTESIAN_POINT('',(0.,0.02075,-0.031));
#1661=CARTESIAN_POINT('',(-0.0479,0.02075,-0.031));
#1662=CARTESIAN_POINT('',(-0.0479,-0.0124,-0.031));
#1663=CARTESIAN_POINT('',(-0.0479,-0.04555,-0.031));
#1664=CARTESIAN_POINT('',(2.77555756156289E-17,-0.04555,-0.031));
#1665=CARTESIAN_POINT('',(-0.0276,-0.0354,-0.019));
#1666=CARTESIAN_POINT('',(0.0413188611699157,-0.0354,-0.031002));
#1667=CARTESIAN_POINT('',(-0.0195188611699158,-0.0354,-0.031002));
#1668=CARTESIAN_POINT('',(0.0109,0.0106,-0.019));
#1669=CARTESIAN_POINT('',(-0.02378873,0.0106,-0.0310000000000015));
#1670=CARTESIAN_POINT('',(-0.02378873,0.0106,-0.0270000000000004));
#1671=CARTESIAN_POINT('',(-0.02378873,0.0106,-0.0229999999999993));
#1672=CARTESIAN_POINT('',(-0.02378873,0.0106,-0.0189999999999983));
#1673=CARTESIAN_POINT('',(-0.0226811388300842,0.0106,-0.031002));
#1674=CARTESIAN_POINT('',(0.,0.02075,-0.031));
#1675=CARTESIAN_POINT('',(0.,0.02075,-0.003));
#1676=CARTESIAN_POINT('',(-0.0479,0.02075,-0.003));
#1677=CARTESIAN_POINT('',(-0.0479,0.02075,-0.031));
#1678=CARTESIAN_POINT('',(-0.0479,-0.0124,-0.031));
#1679=CARTESIAN_POINT('',(-0.0479,-0.0124,-0.003));
#1680=CARTESIAN_POINT('',(-0.0479,-0.04555,-0.003));
#1681=CARTESIAN_POINT('',(-0.0479,-0.04555,-0.031));
#1682=CARTESIAN_POINT('',(2.77555756156289E-17,-0.04555,-0.031));
#1683=CARTESIAN_POINT('',(2.77555756156289E-17,-0.04555,-0.003));
#1684=CARTESIAN_POINT('',(0.,0.02375,-0.031));
#1685=CARTESIAN_POINT('',(0.,0.02375,-0.003));
#1686=CARTESIAN_POINT('',(0.0558,0.02375,-0.003));
#1687=CARTESIAN_POINT('',(-0.0558,0.02375,-0.003));
#1688=CARTESIAN_POINT('',(0.0558,0.02375,-0.031));
#1689=CARTESIAN_POINT('',(0.0558,0.02375,-0.033));
#1690=CARTESIAN_POINT('',(0.,0.02375,-0.033));
#1691=CARTESIAN_POINT('',(-0.0558,0.02375,-0.033));
#1692=CARTESIAN_POINT('',(-0.0558,0.02375,-0.031));
#1693=CARTESIAN_POINT('',(0.0558,0.01885,-0.031));
#1694=CARTESIAN_POINT('',(0.0558,0.01885,-0.003));
#1695=CARTESIAN_POINT('',(0.0558,0.01395,-0.003));
#1696=CARTESIAN_POINT('',(0.0558,0.01395,-0.031));
#1697=CARTESIAN_POINT('',(0.0558,0.01395,-0.033));
#1698=CARTESIAN_POINT('',(0.0558,0.01885,-0.033));
#1699=CARTESIAN_POINT('',(0.05335,0.01395,-0.031));
#1700=CARTESIAN_POINT('',(0.05335,0.01395,-0.003));
#1701=CARTESIAN_POINT('',(0.05335,0.01395,-0.033));
#1702=CARTESIAN_POINT('',(0.05335,-0.03875,-0.031));
#1703=CARTESIAN_POINT('',(0.05335,-0.03875,-0.003));
#1704=CARTESIAN_POINT('',(0.0558,-0.03875,-0.003));
#1705=CARTESIAN_POINT('',(0.0558,-0.03875,-0.031));
#1706=CARTESIAN_POINT('',(0.0558,-0.03875,-0.033));
#1707=CARTESIAN_POINT('',(0.05335,-0.03875,-0.033));
#1708=CARTESIAN_POINT('',(0.0558,-0.04365,-0.031));
#1709=CARTESIAN_POINT('',(0.0558,-0.04365,-0.003));
#1710=CARTESIAN_POINT('',(0.0558,-0.04855,-0.003));
#1711=CARTESIAN_POINT('',(0.0558,-0.04855,-0.031));
#1712=CARTESIAN_POINT('',(0.0558,-0.04855,-0.033));
#1713=CARTESIAN_POINT('',(0.0558,-0.04365,-0.033));
#1714=CARTESIAN_POINT('',(6.93889390390723E-18,-0.04855,-0.031));
#1715=CARTESIAN_POINT('',(6.93889390390723E-18,-0.04855,-0.003));
#1716=CARTESIAN_POINT('',(-0.0558,-0.04855,-0.003));
#1717=CARTESIAN_POINT('',(-0.0558,-0.04855,-0.031));
#1718=CARTESIAN_POINT('',(-0.0558,-0.04855,-0.033));
#1719=CARTESIAN_POINT('',(6.93889390390723E-18,-0.04855,-0.033));
#1720=CARTESIAN_POINT('',(-0.0558,-0.04365,-0.031));
#1721=CARTESIAN_POINT('',(-0.0558,-0.04365,-0.003));
#1722=CARTESIAN_POINT('',(-0.0558,-0.03875,-0.003));
#1723=CARTESIAN_POINT('',(-0.0558,-0.03875,-0.031));
#1724=CARTESIAN_POINT('',(-0.0558,-0.03875,-0.033));
#1725=CARTESIAN_POINT('',(-0.0558,-0.04365,-0.033));
#1726=CARTESIAN_POINT('',(-0.05335,-0.03875,-0.031));
#1727=CARTESIAN_POINT('',(-0.05335,-0.03875,-0.003));
#1728=CARTESIAN_POINT('',(-0.0509,-0.03875,-0.003));
#1729=CARTESIAN_POINT('',(-0.0509,-0.03875,-0.031));
#1730=CARTESIAN_POINT('',(-0.0509,-0.03875,-0.033));
#1731=CARTESIAN_POINT('',(-0.05335,-0.03875,-0.033));
#1732=CARTESIAN_POINT('',(-0.0509,0.,-0.031));
#1733=CARTESIAN_POINT('',(-0.0509,0.,-0.003));
#1734=CARTESIAN_POINT('',(-0.0509,0.01395,-0.003));
#1735=CARTESIAN_POINT('',(-0.0509,0.01395,-0.031));
#1736=CARTESIAN_POINT('',(-0.0509,0.01395,-0.033));
#1737=CARTESIAN_POINT('',(-0.0509,0.,-0.033));
#1738=CARTESIAN_POINT('',(-0.05335,0.01395,-0.031));
#1739=CARTESIAN_POINT('',(-0.05335,0.01395,-0.003));
#1740=CARTESIAN_POINT('',(-0.0558,0.01395,-0.003));
#1741=CARTESIAN_POINT('',(-0.0558,0.01395,-0.031));
#1742=CARTESIAN_POINT('',(-0.0558,0.01395,-0.033));
#1743=CARTESIAN_POINT('',(-0.05335,0.01395,-0.033));
#1744=CARTESIAN_POINT('',(0.0558,-0.04365,-0.031));
#1745=CARTESIAN_POINT('',(0.0558,-0.04365,-0.003));
#1746=CARTESIAN_POINT('',(0.0587,-0.04365,-0.003));
#1747=CARTESIAN_POINT('',(0.0558,-0.04365,-0.033));
#1748=CARTESIAN_POINT('',(0.0587,-0.04365,-0.033));
#1749=CARTESIAN_POINT('',(-0.0558,0.01885,-0.031));
#1750=CARTESIAN_POINT('',(-0.0558,0.01885,-0.003));
#1751=CARTESIAN_POINT('',(-0.0529,0.01885,-0.003));
#1752=CARTESIAN_POINT('',(-0.0558,0.01885,-0.033));
#1753=CARTESIAN_POINT('',(-0.0529,0.01885,-0.033));
#1754=CARTESIAN_POINT('',(-0.0558,-0.04365,-0.031));
#1755=CARTESIAN_POINT('',(-0.0558,-0.04365,-0.003));
#1756=CARTESIAN_POINT('',(-0.0529,-0.04365,-0.003));
#1757=CARTESIAN_POINT('',(-0.0558,-0.04365,-0.033));
#1758=CARTESIAN_POINT('',(-0.0529,-0.04365,-0.033));
#1759=CARTESIAN_POINT('',(-0.0558,0.01885,-0.031));
#1760=CARTESIAN_POINT('',(-0.0558,0.01885,-0.003));
#1761=CARTESIAN_POINT('',(-0.0558,0.01885,-0.033));
#1762=CARTESIAN_POINT('',(0.0558,0.01885,-0.031));
#1763=CARTESIAN_POINT('',(0.0558,0.01885,-0.003));
#1764=CARTESIAN_POINT('',(0.0587,0.01885,-0.003));
#1765=CARTESIAN_POINT('',(0.0558,0.01885,-0.033));
#1766=CARTESIAN_POINT('',(0.0587,0.01885,-0.033));
#1767=CARTESIAN_POINT('',(0.,-0.0124,-0.003));
#1768=CARTESIAN_POINT('',(0.,-0.0124,-0.031));
#1769=CARTESIAN_POINT('',(0.0109,0.0076,-0.031));
#1770=CARTESIAN_POINT('',(-0.0261,0.0076,-0.031));
#1771=CARTESIAN_POINT('',(-0.0261,-0.0124,-0.031));
#1772=CARTESIAN_POINT('',(-0.0261,-0.0324,-0.031));
#1773=CARTESIAN_POINT('',(0.0109,-0.0324,-0.031));
#1774=CARTESIAN_POINT('',(0.,-0.0124,-0.033));
#1775=CARTESIAN_POINT('',(-0.0291,-0.0124,-0.019));
#1776=CARTESIAN_POINT('',(-0.0291,-0.03008873,-0.0310000000000015));
#1777=CARTESIAN_POINT('',(-0.0291,-0.03008873,-0.0270000000000004));
#1778=CARTESIAN_POINT('',(-0.0291,-0.03008873,-0.0229999999999993));
#1779=CARTESIAN_POINT('',(-0.0291,-0.03008873,-0.0189999999999983));
#1780=CARTESIAN_POINT('',(-0.0291,0.00528873,-0.0189999999999983));
#1781=CARTESIAN_POINT('',(-0.0291,0.00528873,-0.0229999999999993));
#1782=CARTESIAN_POINT('',(-0.0291,0.00528873,-0.0270000000000004));
#1783=CARTESIAN_POINT('',(-0.0291,0.00528873,-0.0310000000000015));
#1784=CARTESIAN_POINT('',(-0.0276,-0.0354,-0.019));
#1785=CARTESIAN_POINT('',(-0.02378873,-0.0354,-0.0189999999999983));
#1786=CARTESIAN_POINT('',(-0.02378873,-0.0354,-0.0229999999999993));
#1787=CARTESIAN_POINT('',(-0.02378873,-0.0354,-0.0270000000000004));
#1788=CARTESIAN_POINT('',(-0.02378873,-0.0354,-0.0310000000000015));
#1789=CARTESIAN_POINT('',(-0.0226811388300842,-0.0354,-0.031002));
#1790=CARTESIAN_POINT('',(0.0109,-0.0324,-0.019));
#1791=CARTESIAN_POINT('',(-0.0261,-0.0324,-0.019));
#1792=CARTESIAN_POINT('',(-0.0261,-0.0124,-0.019));
#1793=CARTESIAN_POINT('',(-0.0261,0.0076,-0.019));
#1794=CARTESIAN_POINT('',(0.0109,0.0076,-0.019));
#1795=CARTESIAN_POINT('',(-0.0211,0.00985,-0.031002));
#1796=CARTESIAN_POINT('',(-0.0211,0.00985,-0.017));
#1797=CARTESIAN_POINT('',(-0.01935,0.00985,-0.017));
#1798=CARTESIAN_POINT('',(-0.0211,-0.03465,-0.031002));
#1799=CARTESIAN_POINT('',(-0.0211,-0.03465,-0.017));
#1800=CARTESIAN_POINT('',(-0.01935,-0.03465,-0.017));
#1801=CARTESIAN_POINT('',(0.0429,-0.03465,-0.031002));
#1802=CARTESIAN_POINT('',(0.0443925625250027,-0.0355636504303932,-0.031));
#1803=CARTESIAN_POINT('',(0.0443925625250027,-0.0355636504303932,-0.027));
#1804=CARTESIAN_POINT('',(0.0443925625250027,-0.0355636504303932,-0.023));
#1805=CARTESIAN_POINT('',(0.0443925625250027,-0.0355636504303932,-0.019));
#1806=CARTESIAN_POINT('',(0.0429,-0.03465,-0.017));
#1807=CARTESIAN_POINT('',(0.04465,-0.03465,-0.017));
#1808=CARTESIAN_POINT('',(0.0429,0.00985,-0.031002));
#1809=CARTESIAN_POINT('',(0.0443925625250026,0.0107636504303933,-0.019));
#1810=CARTESIAN_POINT('',(0.0443925625250026,0.0107636504303933,-0.023));
#1811=CARTESIAN_POINT('',(0.0443925625250026,0.0107636504303933,-0.027));
#1812=CARTESIAN_POINT('',(0.0443925625250026,0.0107636504303933,-0.031));
#1813=CARTESIAN_POINT('',(0.0429,0.00985,-0.017));
#1814=CARTESIAN_POINT('',(0.04465,0.00985,-0.017));
#1815=CARTESIAN_POINT('',(0.0094,-0.0124,-0.017));
#1816=CARTESIAN_POINT('',(0.0429,0.00985,-0.017));
#1817=CARTESIAN_POINT('',(0.04365,0.00985,-0.017));
#1818=CARTESIAN_POINT('',(0.0094,-0.0124,-0.014));
#1819=CARTESIAN_POINT('',(0.0429,0.00985,-0.014));
#1820=CARTESIAN_POINT('',(0.04365,0.00985,-0.014));
#1821=CARTESIAN_POINT('',(0.0429,0.00985,-0.014));
#1822=CARTESIAN_POINT('',(0.0094,-0.0124,-0.017));
#1823=CARTESIAN_POINT('',(-0.0211,-0.03465,-0.017));
#1824=CARTESIAN_POINT('',(-0.02035,-0.03465,-0.017));
#1825=CARTESIAN_POINT('',(0.0094,-0.0124,-0.014));
#1826=CARTESIAN_POINT('',(-0.0211,-0.03465,-0.014));
#1827=CARTESIAN_POINT('',(-0.02035,-0.03465,-0.014));
#1828=CARTESIAN_POINT('',(-0.0211,-0.03465,-0.014));
#1829=CARTESIAN_POINT('',(0.0094,-0.0124,-0.017));
#1830=CARTESIAN_POINT('',(0.0429,-0.03465,-0.017));
#1831=CARTESIAN_POINT('',(0.04365,-0.03465,-0.017));
#1832=CARTESIAN_POINT('',(0.0094,-0.0124,-0.017));
#1833=CARTESIAN_POINT('',(-0.0211,0.00985,-0.017));
#1834=CARTESIAN_POINT('',(-0.02035,0.00985,-0.017));
#1835=CARTESIAN_POINT('',(0.0094,-0.0124,-0.014));
#1836=CARTESIAN_POINT('',(0.0429,-0.03465,-0.014));
#1837=CARTESIAN_POINT('',(0.04365,-0.03465,-0.014));
#1838=CARTESIAN_POINT('',(0.0429,-0.03465,-0.014));
#1839=CARTESIAN_POINT('',(0.0094,-0.0124,-0.014));
#1840=CARTESIAN_POINT('',(-0.0211,0.00985,-0.014));
#1841=CARTESIAN_POINT('',(-0.02035,0.00985,-0.014));
#1842=CARTESIAN_POINT('',(-0.0211,0.00985,-0.014));
#1843=CARTESIAN_POINT('',(0.0729,-0.0214,-0.009));
#1844=CARTESIAN_POINT('',(0.0729,-0.0214,-0.005));
#1845=CARTESIAN_POINT('',(0.0494,-0.0214,-0.005));
#1846=CARTESIAN_POINT('',(0.0494,-0.0214,-0.013));
#1847=CARTESIAN_POINT('',(0.0494,-0.0214,-0.013));
#1848=CARTESIAN_POINT('',(0.0729,-0.0214,-0.013));
#1849=CARTESIAN_POINT('',(0.0729,-0.0154,-0.005));
#1850=CARTESIAN_POINT('',(0.0729,-0.0094,-0.005));
#1851=CARTESIAN_POINT('',(0.0494,-0.0094,-0.005));
#1852=CARTESIAN_POINT('',(0.0494,-0.0154,-0.005));
#1853=CARTESIAN_POINT('',(0.0729,-0.0094,-0.009));
#1854=CARTESIAN_POINT('',(0.0729,-0.0094,-0.013));
#1855=CARTESIAN_POINT('',(0.0494,-0.0094,-0.013));
#1856=CARTESIAN_POINT('',(0.0494,-0.0094,-0.009));
#1857=CARTESIAN_POINT('',(0.0729,-0.0154,-0.013));
#1858=CARTESIAN_POINT('',(0.0494,-0.0094,-0.013));
#1859=CARTESIAN_POINT('',(0.0494,-0.0214,-0.009));
#1860=CARTESIAN_POINT('',(0.0480666666666667,-0.0200666666666667,-0.0116666666666667));
#1861=CARTESIAN_POINT('',(0.0432666666666667,-0.0152666666666667,-0.0111333333333333));
#1862=CARTESIAN_POINT('',(0.0509,1.98770398289009E-18,-0.0035));
#1863=CARTESIAN_POINT('',(0.0417333333333334,-0.0170666666666667,-0.0126666666666667));
#1864=CARTESIAN_POINT('',(0.0494,-0.0154,-0.013));
#1865=CARTESIAN_POINT('',(0.0564,-0.0024,-0.02));
#1866=CARTESIAN_POINT('',(0.0509,-0.0079,-0.031));
#1867=CARTESIAN_POINT('',(0.0443925625250027,-0.0355636504303933,-0.019));
#1868=CARTESIAN_POINT('',(0.0443925625250027,-0.0355636504303933,-0.0310000000000001));
#1869=CARTESIAN_POINT('',(0.0449492372747915,-0.0356951747913068,-0.019));
#1870=CARTESIAN_POINT('',(0.0449492372747915,-0.0356951747913068,-0.0310000000000001));
#1871=CARTESIAN_POINT('',(0.0460667256349954,-0.0361497253931874,-0.019));
#1872=CARTESIAN_POINT('',(0.0460667256349954,-0.0361497253931874,-0.0310000000000001));
#1873=CARTESIAN_POINT('',(0.0472595184860522,-0.0374101022372718,-0.019));
#1874=CARTESIAN_POINT('',(0.0472595184860522,-0.0374101022372718,-0.0310000000000001));
#1875=CARTESIAN_POINT('',(0.0478750611390286,-0.0391189464394927,-0.019));
#1876=CARTESIAN_POINT('',(0.0478750611390286,-0.0391189464394927,-0.0310000000000001));
#1877=CARTESIAN_POINT('',(0.0479,-0.0401922743533463,-0.019));
#1878=CARTESIAN_POINT('',(0.0479,-0.0401922743533463,-0.0310000000000001));
#1879=CARTESIAN_POINT('',(0.0479,-0.04071127,-0.019));
#1880=CARTESIAN_POINT('',(0.0479,-0.04071127,-0.0310000000000001));
#1881=CARTESIAN_POINT('',(0.0479,0.01591127,-0.0189999999999991));
#1882=CARTESIAN_POINT('',(0.0479,0.01591127,-0.0310000000000011));
#1883=CARTESIAN_POINT('',(0.0479,0.0153922743533464,-0.0189999999999991));
#1884=CARTESIAN_POINT('',(0.0479,0.0153922743533464,-0.0310000000000011));
#1885=CARTESIAN_POINT('',(0.0478750611390286,0.0143189464394929,-0.0189999999999991));
#1886=CARTESIAN_POINT('',(0.0478750611390286,0.0143189464394929,-0.0310000000000011));
#1887=CARTESIAN_POINT('',(0.0472595184860522,0.0126101022372719,-0.0189999999999991));
#1888=CARTESIAN_POINT('',(0.0472595184860522,0.0126101022372719,-0.0310000000000011));
#1889=CARTESIAN_POINT('',(0.0460667256349953,0.0113497253931875,-0.0189999999999991));
#1890=CARTESIAN_POINT('',(0.0460667256349953,0.0113497253931875,-0.0310000000000011));
#1891=CARTESIAN_POINT('',(0.0449492372747914,0.0108951747913069,-0.0189999999999991));
#1892=CARTESIAN_POINT('',(0.0449492372747914,0.0108951747913069,-0.0310000000000011));
#1893=CARTESIAN_POINT('',(0.0443925625250026,0.0107636504303933,-0.0189999999999991));
#1894=CARTESIAN_POINT('',(0.0443925625250026,0.0107636504303933,-0.0310000000000011));
#1895=CARTESIAN_POINT('',(-0.02378873,-0.0354,-0.0189999999999983));
#1896=CARTESIAN_POINT('',(-0.02378873,-0.0354,-0.0310000000000015));
#1897=CARTESIAN_POINT('',(-0.0245854205,-0.0354,-0.0189999999999983));
#1898=CARTESIAN_POINT('',(-0.0245854205,-0.0354,-0.0310000000000015));
#1899=CARTESIAN_POINT('',(-0.025382111,-0.0354,-0.0189999999999983));
#1900=CARTESIAN_POINT('',(-0.025382111,-0.0354,-0.0310000000000015));
#1901=CARTESIAN_POINT('',(-0.0273295766666666,-0.034868873,-0.0189999999999983));
#1902=CARTESIAN_POINT('',(-0.0273295766666666,-0.034868873,-0.0310000000000015));
#1903=CARTESIAN_POINT('',(-0.028568873,-0.0336295766666667,-0.0189999999999983));
#1904=CARTESIAN_POINT('',(-0.028568873,-0.0336295766666667,-0.0310000000000015));
#1905=CARTESIAN_POINT('',(-0.0291,-0.031682111,-0.0189999999999983));
#1906=CARTESIAN_POINT('',(-0.0291,-0.031682111,-0.0310000000000015));
#1907=CARTESIAN_POINT('',(-0.0291,-0.0308854205,-0.0189999999999983));
#1908=CARTESIAN_POINT('',(-0.0291,-0.0308854205,-0.0310000000000015));
#1909=CARTESIAN_POINT('',(-0.0291,-0.03008873,-0.0189999999999983));
#1910=CARTESIAN_POINT('',(-0.0291,-0.03008873,-0.0310000000000015));
#1911=CARTESIAN_POINT('',(-0.0291,0.00528873,-0.0189999999999983));
#1912=CARTESIAN_POINT('',(-0.0291,0.00528873,-0.0310000000000015));
#1913=CARTESIAN_POINT('',(-0.0291,0.00608542050000002,-0.0189999999999983));
#1914=CARTESIAN_POINT('',(-0.0291,0.00608542050000002,-0.0310000000000015));
#1915=CARTESIAN_POINT('',(-0.0291,0.006882111,-0.0189999999999983));
#1916=CARTESIAN_POINT('',(-0.0291,0.006882111,-0.0310000000000015));
#1917=CARTESIAN_POINT('',(-0.028568873,0.00882957666666668,-0.0189999999999983));
#1918=CARTESIAN_POINT('',(-0.028568873,0.00882957666666668,-0.0310000000000015));
#1919=CARTESIAN_POINT('',(-0.0273295766666666,0.010068873,-0.0189999999999983));
#1920=CARTESIAN_POINT('',(-0.0273295766666666,0.010068873,-0.0310000000000015));
#1921=CARTESIAN_POINT('',(-0.025382111,0.0106,-0.0189999999999983));
#1922=CARTESIAN_POINT('',(-0.025382111,0.0106,-0.0310000000000015));
#1923=CARTESIAN_POINT('',(-0.0245854205,0.0106,-0.0189999999999983));
#1924=CARTESIAN_POINT('',(-0.0245854205,0.0106,-0.0310000000000015));
#1925=CARTESIAN_POINT('',(-0.02378873,0.0106,-0.0189999999999983));
#1926=CARTESIAN_POINT('',(-0.02378873,0.0106,-0.0310000000000015));
#1927=MECHANICAL_DESIGN_GEOMETRIC_PRESENTATION_REPRESENTATION('',(#1069),
#1928);
#1928=(
GEOMETRIC_REPRESENTATION_CONTEXT(3)
GLOBAL_UNCERTAINTY_ASSIGNED_CONTEXT((#1929))
GLOBAL_UNIT_ASSIGNED_CONTEXT((#1932,#1931,#1930))
REPRESENTATION_CONTEXT('housing','TOP_LEVEL_ASSEMBLY_PART')
);
#1929=UNCERTAINTY_MEASURE_WITH_UNIT(LENGTH_MEASURE(2.E-5),#1932,
'DISTANCE_ACCURACY_VALUE','Maximum Tolerance applied to model');
#1930=(
NAMED_UNIT(*)
SI_UNIT($,.STERADIAN.)
SOLID_ANGLE_UNIT()
);
#1931=(
NAMED_UNIT(*)
PLANE_ANGLE_UNIT()
SI_UNIT($,.RADIAN.)
);
#1932=(
LENGTH_UNIT()
NAMED_UNIT(*)
SI_UNIT($,.METRE.)
);
#1933=PRODUCT_DEFINITION_SHAPE('','',#1934);
#1934=PRODUCT_DEFINITION('','',#1936,#1935);
#1935=PRODUCT_DEFINITION_CONTEXT('',#1942,'design');
#1936=PRODUCT_DEFINITION_FORMATION_WITH_SPECIFIED_SOURCE('','',#1938,
 .NOT_KNOWN.);
#1937=PRODUCT_RELATED_PRODUCT_CATEGORY('','',(#1938));
#1938=PRODUCT('housing','housing','housing',(#1940));
#1939=PRODUCT_CATEGORY('','');
#1940=PRODUCT_CONTEXT('',#1942,'mechanical');
#1941=APPLICATION_PROTOCOL_DEFINITION('international standard',
'ap242_managed_model_based_3d_engineering',2020,#1942);
#1942=APPLICATION_CONTEXT('managed model based 3d engineering');
ENDSEC;
END-ISO-10303-21;
