ISO-10303-21;
HEADER;
/* Generated by software containing ST-Developer
 * from STEP Tools, Inc. (www.steptools.com) 
 */
/* OPTION: using custom renumber hook */

FILE_DESCRIPTION(
/* description */ ('STEP AP242 Edition 2',
'CAx-IF Rec.Pracs.---Representation and Presentation of Product Manufa
cturing Information (PMI)---4.0---2014-10-13',
'CAx-IF Rec.Pracs.---3D Tessellated Geometry---0.4---2014-09-14','2;1',
'CAx-IF Rec.Pracs.---User Defined Attributes---1.5---2016-08-15'),
/* implementation_level */ '2;1');

FILE_NAME(
/* name */ 'V2 - Top',
/* time_stamp */ '2026-08-14T13:59:53Z',
/* author */ (''),
/* organization */ (''),
/* preprocessor_version */ 'ST-DEVELOPER v20',
/* originating_system */ 'ONSHAPE BY PTC INC, 1.219',
/* authorisation */ '  ');

FILE_SCHEMA (('AP242_MANAGED_MODEL_BASED_3D_ENGINEERING_MIM_LF { 1 0 10303 442 3 1 4 }'));
ENDSEC;

DATA;
#10=SHAPE_REPRESENTATION_RELATIONSHIP('','',#1285,#11);
#11=ADVANCED_BREP_SHAPE_REPRESENTATION('',(#1283),#2149);
#12=B_SPLINE_SURFACE_WITH_KNOTS('',5,1,((#2116,#2117),(#2118,#2119),(#2120,
#2121),(#2122,#2123),(#2124,#2125),(#2126,#2127),(#2128,#2129),(#2130,#2131)),
 .SURF_OF_LINEAR_EXTRUSION.,.F.,.F.,.F.,(6,2,6),(2,2),(0.,0.5,1.),(0.,1.),
 .UNSPECIFIED.);
#13=B_SPLINE_SURFACE_WITH_KNOTS('',5,1,((#2132,#2133),(#2134,#2135),(#2136,
#2137),(#2138,#2139),(#2140,#2141),(#2142,#2143),(#2144,#2145),(#2146,#2147)),
 .SURF_OF_LINEAR_EXTRUSION.,.F.,.F.,.F.,(6,2,6),(2,2),(0.,0.5,1.),(0.,1.),
 .UNSPECIFIED.);
#14=CYLINDRICAL_SURFACE('',#1320,0.0025);
#15=CYLINDRICAL_SURFACE('',#1324,0.0025);
#16=CYLINDRICAL_SURFACE('',#1328,0.0025);
#17=CYLINDRICAL_SURFACE('',#1332,0.0025);
#18=CYLINDRICAL_SURFACE('',#1338,0.0015);
#19=CYLINDRICAL_SURFACE('',#1341,0.0015);
#20=CYLINDRICAL_SURFACE('',#1344,0.0015);
#21=CYLINDRICAL_SURFACE('',#1347,0.0015);
#22=CYLINDRICAL_SURFACE('',#1370,0.0029);
#23=CYLINDRICAL_SURFACE('',#1371,0.0049);
#24=CYLINDRICAL_SURFACE('',#1373,0.0049);
#25=CYLINDRICAL_SURFACE('',#1375,0.0029);
#26=CYLINDRICAL_SURFACE('',#1379,0.0049);
#27=CYLINDRICAL_SURFACE('',#1380,0.0029);
#28=CYLINDRICAL_SURFACE('',#1385,0.0029);
#29=CYLINDRICAL_SURFACE('',#1387,0.0049);
#30=CIRCLE('',#1298,0.0049);
#31=CIRCLE('',#1299,0.0049);
#32=CIRCLE('',#1300,0.0049);
#33=CIRCLE('',#1301,0.0049);
#34=CIRCLE('',#1302,0.0029);
#35=CIRCLE('',#1303,0.0029);
#36=CIRCLE('',#1304,0.0029);
#37=CIRCLE('',#1305,0.0029);
#38=CIRCLE('',#1307,0.0049);
#39=CIRCLE('',#1308,0.0049);
#40=CIRCLE('',#1309,0.0025);
#41=CIRCLE('',#1310,0.0025);
#42=CIRCLE('',#1311,0.0025);
#43=CIRCLE('',#1312,0.0025);
#44=CIRCLE('',#1313,0.0029);
#45=CIRCLE('',#1314,0.0029);
#46=CIRCLE('',#1321,0.0025);
#47=CIRCLE('',#1323,0.0015);
#48=CIRCLE('',#1325,0.0025);
#49=CIRCLE('',#1327,0.0015);
#50=CIRCLE('',#1329,0.0025);
#51=CIRCLE('',#1331,0.0015);
#52=CIRCLE('',#1333,0.0025);
#53=CIRCLE('',#1335,0.0015);
#54=CIRCLE('',#1337,0.0015);
#55=CIRCLE('',#1340,0.0015);
#56=CIRCLE('',#1343,0.0015);
#57=CIRCLE('',#1346,0.0015);
#58=CIRCLE('',#1374,0.0049);
#59=CIRCLE('',#1376,0.0029);
#60=CIRCLE('',#1383,0.0029);
#61=CIRCLE('',#1384,0.0049);
#62=B_SPLINE_CURVE_WITH_KNOTS('',3,(#1719,#1720,#1721,#1722),
 .UNSPECIFIED.,.F.,.F.,(4,4),(0.,1.),.UNSPECIFIED.);
#63=B_SPLINE_CURVE_WITH_KNOTS('',3,(#1739,#1740,#1741,#1742),
 .UNSPECIFIED.,.F.,.F.,(4,4),(0.,1.),.UNSPECIFIED.);
#64=B_SPLINE_CURVE_WITH_KNOTS('',3,(#1967,#1968,#1969,#1970,#1971,#1972,
#1973),.UNSPECIFIED.,.F.,.F.,(4,1,1,1,4),(0.,0.00087855744281277,0.00175711488562554,
0.00263567232843831,0.00351422977125108),.UNSPECIFIED.);
#65=B_SPLINE_CURVE_WITH_KNOTS('',3,(#1975,#1976,#1977,#1978,#1979,#1980,
#1981),.UNSPECIFIED.,.F.,.F.,(4,1,1,1,4),(0.,0.000878557442812766,0.00175711488562553,
0.0026356723284383,0.00351422977125106),.UNSPECIFIED.);
#66=B_SPLINE_CURVE_WITH_KNOTS('',3,(#2058,#2059,#2060,#2061),
 .UNSPECIFIED.,.F.,.F.,(4,4),(0.,0.00200619845778667),.UNSPECIFIED.);
#67=B_SPLINE_CURVE_WITH_KNOTS('',3,(#2063,#2064,#2065,#2066),
 .UNSPECIFIED.,.F.,.F.,(4,4),(0.,1.),.UNSPECIFIED.);
#68=B_SPLINE_CURVE_WITH_KNOTS('',3,(#2067,#2068,#2069,#2070),
 .UNSPECIFIED.,.F.,.F.,(4,4),(0.,1.),.UNSPECIFIED.);
#69=B_SPLINE_CURVE_WITH_KNOTS('',3,(#2074,#2075,#2076,#2077,#2078,#2079,
#2080),.UNSPECIFIED.,.F.,.F.,(4,1,1,1,4),(0.,0.000878557442812771,0.00175711488562554,
0.00263567232843831,0.00351422977125109),.UNSPECIFIED.);
#70=B_SPLINE_CURVE_WITH_KNOTS('',3,(#2089,#2090,#2091,#2092),
 .UNSPECIFIED.,.F.,.F.,(4,4),(0.,1.),.UNSPECIFIED.);
#71=B_SPLINE_CURVE_WITH_KNOTS('',3,(#2096,#2097,#2098,#2099),
 .UNSPECIFIED.,.F.,.F.,(4,4),(0.,1.),.UNSPECIFIED.);
#72=B_SPLINE_CURVE_WITH_KNOTS('',3,(#2102,#2103,#2104,#2105),
 .UNSPECIFIED.,.F.,.F.,(4,4),(0.,0.00200619845778661),.UNSPECIFIED.);
#73=B_SPLINE_CURVE_WITH_KNOTS('',3,(#2107,#2108,#2109,#2110,#2111,#2112,
#2113),.UNSPECIFIED.,.F.,.F.,(4,1,1,1,4),(0.,0.000878557442812787,0.00175711488562557,
0.00263567232843836,0.00351422977125115),.UNSPECIFIED.);
#74=ORIENTED_EDGE('',*,*,#406,.F.);
#75=ORIENTED_EDGE('',*,*,#407,.T.);
#76=ORIENTED_EDGE('',*,*,#408,.F.);
#77=ORIENTED_EDGE('',*,*,#409,.F.);
#78=ORIENTED_EDGE('',*,*,#410,.T.);
#79=ORIENTED_EDGE('',*,*,#411,.T.);
#80=ORIENTED_EDGE('',*,*,#412,.F.);
#81=ORIENTED_EDGE('',*,*,#413,.F.);
#82=ORIENTED_EDGE('',*,*,#414,.T.);
#83=ORIENTED_EDGE('',*,*,#415,.T.);
#84=ORIENTED_EDGE('',*,*,#416,.T.);
#85=ORIENTED_EDGE('',*,*,#417,.F.);
#86=ORIENTED_EDGE('',*,*,#418,.T.);
#87=ORIENTED_EDGE('',*,*,#419,.F.);
#88=ORIENTED_EDGE('',*,*,#420,.F.);
#89=ORIENTED_EDGE('',*,*,#421,.T.);
#90=ORIENTED_EDGE('',*,*,#422,.F.);
#91=ORIENTED_EDGE('',*,*,#423,.T.);
#92=ORIENTED_EDGE('',*,*,#424,.T.);
#93=ORIENTED_EDGE('',*,*,#425,.F.);
#94=ORIENTED_EDGE('',*,*,#426,.F.);
#95=ORIENTED_EDGE('',*,*,#422,.T.);
#96=ORIENTED_EDGE('',*,*,#427,.T.);
#97=ORIENTED_EDGE('',*,*,#428,.F.);
#98=ORIENTED_EDGE('',*,*,#424,.F.);
#99=ORIENTED_EDGE('',*,*,#429,.T.);
#100=ORIENTED_EDGE('',*,*,#430,.T.);
#101=ORIENTED_EDGE('',*,*,#431,.F.);
#102=ORIENTED_EDGE('',*,*,#432,.F.);
#103=ORIENTED_EDGE('',*,*,#428,.T.);
#104=ORIENTED_EDGE('',*,*,#433,.T.);
#105=ORIENTED_EDGE('',*,*,#430,.F.);
#106=ORIENTED_EDGE('',*,*,#434,.F.);
#107=ORIENTED_EDGE('',*,*,#435,.T.);
#108=ORIENTED_EDGE('',*,*,#436,.T.);
#109=ORIENTED_EDGE('',*,*,#437,.F.);
#110=ORIENTED_EDGE('',*,*,#438,.F.);
#111=ORIENTED_EDGE('',*,*,#437,.T.);
#112=ORIENTED_EDGE('',*,*,#439,.T.);
#113=ORIENTED_EDGE('',*,*,#440,.F.);
#114=ORIENTED_EDGE('',*,*,#441,.F.);
#115=ORIENTED_EDGE('',*,*,#442,.T.);
#116=ORIENTED_EDGE('',*,*,#443,.T.);
#117=ORIENTED_EDGE('',*,*,#444,.F.);
#118=ORIENTED_EDGE('',*,*,#445,.F.);
#119=ORIENTED_EDGE('',*,*,#444,.T.);
#120=ORIENTED_EDGE('',*,*,#446,.T.);
#121=ORIENTED_EDGE('',*,*,#447,.F.);
#122=ORIENTED_EDGE('',*,*,#448,.F.);
#123=ORIENTED_EDGE('',*,*,#449,.T.);
#124=ORIENTED_EDGE('',*,*,#450,.F.);
#125=ORIENTED_EDGE('',*,*,#409,.T.);
#126=ORIENTED_EDGE('',*,*,#451,.T.);
#127=ORIENTED_EDGE('',*,*,#452,.F.);
#128=ORIENTED_EDGE('',*,*,#453,.T.);
#129=ORIENTED_EDGE('',*,*,#454,.T.);
#130=ORIENTED_EDGE('',*,*,#455,.F.);
#131=ORIENTED_EDGE('',*,*,#421,.F.);
#132=ORIENTED_EDGE('',*,*,#456,.T.);
#133=ORIENTED_EDGE('',*,*,#457,.F.);
#134=ORIENTED_EDGE('',*,*,#458,.F.);
#135=ORIENTED_EDGE('',*,*,#459,.T.);
#136=ORIENTED_EDGE('',*,*,#460,.T.);
#137=ORIENTED_EDGE('',*,*,#461,.F.);
#138=ORIENTED_EDGE('',*,*,#462,.F.);
#139=ORIENTED_EDGE('',*,*,#463,.T.);
#140=ORIENTED_EDGE('',*,*,#464,.T.);
#141=ORIENTED_EDGE('',*,*,#465,.F.);
#142=ORIENTED_EDGE('',*,*,#466,.F.);
#143=ORIENTED_EDGE('',*,*,#467,.T.);
#144=ORIENTED_EDGE('',*,*,#468,.T.);
#145=ORIENTED_EDGE('',*,*,#469,.F.);
#146=ORIENTED_EDGE('',*,*,#470,.F.);
#147=ORIENTED_EDGE('',*,*,#471,.T.);
#148=ORIENTED_EDGE('',*,*,#472,.T.);
#149=ORIENTED_EDGE('',*,*,#473,.F.);
#150=ORIENTED_EDGE('',*,*,#474,.T.);
#151=ORIENTED_EDGE('',*,*,#475,.F.);
#152=ORIENTED_EDGE('',*,*,#476,.F.);
#153=ORIENTED_EDGE('',*,*,#477,.T.);
#154=ORIENTED_EDGE('',*,*,#478,.F.);
#155=ORIENTED_EDGE('',*,*,#411,.F.);
#156=ORIENTED_EDGE('',*,*,#479,.F.);
#157=ORIENTED_EDGE('',*,*,#480,.T.);
#158=ORIENTED_EDGE('',*,*,#481,.T.);
#159=ORIENTED_EDGE('',*,*,#482,.F.);
#160=ORIENTED_EDGE('',*,*,#483,.T.);
#161=ORIENTED_EDGE('',*,*,#419,.T.);
#162=ORIENTED_EDGE('',*,*,#484,.F.);
#163=ORIENTED_EDGE('',*,*,#485,.F.);
#164=ORIENTED_EDGE('',*,*,#486,.F.);
#165=ORIENTED_EDGE('',*,*,#487,.F.);
#166=ORIENTED_EDGE('',*,*,#488,.F.);
#167=ORIENTED_EDGE('',*,*,#489,.T.);
#168=ORIENTED_EDGE('',*,*,#490,.T.);
#169=ORIENTED_EDGE('',*,*,#491,.F.);
#170=ORIENTED_EDGE('',*,*,#492,.T.);
#171=ORIENTED_EDGE('',*,*,#493,.F.);
#172=ORIENTED_EDGE('',*,*,#481,.F.);
#173=ORIENTED_EDGE('',*,*,#494,.F.);
#174=ORIENTED_EDGE('',*,*,#448,.T.);
#175=ORIENTED_EDGE('',*,*,#495,.T.);
#176=ORIENTED_EDGE('',*,*,#458,.T.);
#177=ORIENTED_EDGE('',*,*,#496,.T.);
#178=ORIENTED_EDGE('',*,*,#489,.F.);
#179=ORIENTED_EDGE('',*,*,#497,.F.);
#180=ORIENTED_EDGE('',*,*,#497,.T.);
#181=ORIENTED_EDGE('',*,*,#488,.T.);
#182=ORIENTED_EDGE('',*,*,#498,.F.);
#183=ORIENTED_EDGE('',*,*,#459,.F.);
#184=ORIENTED_EDGE('',*,*,#498,.T.);
#185=ORIENTED_EDGE('',*,*,#491,.T.);
#186=ORIENTED_EDGE('',*,*,#499,.F.);
#187=ORIENTED_EDGE('',*,*,#460,.F.);
#188=ORIENTED_EDGE('',*,*,#461,.T.);
#189=ORIENTED_EDGE('',*,*,#499,.T.);
#190=ORIENTED_EDGE('',*,*,#490,.F.);
#191=ORIENTED_EDGE('',*,*,#496,.F.);
#192=ORIENTED_EDGE('',*,*,#500,.F.);
#193=ORIENTED_EDGE('',*,*,#484,.T.);
#194=ORIENTED_EDGE('',*,*,#501,.F.);
#195=ORIENTED_EDGE('',*,*,#500,.T.);
#196=ORIENTED_EDGE('',*,*,#502,.F.);
#197=ORIENTED_EDGE('',*,*,#485,.T.);
#198=ORIENTED_EDGE('',*,*,#503,.F.);
#199=ORIENTED_EDGE('',*,*,#502,.T.);
#200=ORIENTED_EDGE('',*,*,#504,.F.);
#201=ORIENTED_EDGE('',*,*,#486,.T.);
#202=ORIENTED_EDGE('',*,*,#505,.F.);
#203=ORIENTED_EDGE('',*,*,#504,.T.);
#204=ORIENTED_EDGE('',*,*,#506,.F.);
#205=ORIENTED_EDGE('',*,*,#487,.T.);
#206=ORIENTED_EDGE('',*,*,#507,.F.);
#207=ORIENTED_EDGE('',*,*,#506,.T.);
#208=ORIENTED_EDGE('',*,*,#508,.T.);
#209=ORIENTED_EDGE('',*,*,#501,.T.);
#210=ORIENTED_EDGE('',*,*,#508,.F.);
#211=ORIENTED_EDGE('',*,*,#509,.T.);
#212=ORIENTED_EDGE('',*,*,#503,.T.);
#213=ORIENTED_EDGE('',*,*,#509,.F.);
#214=ORIENTED_EDGE('',*,*,#510,.T.);
#215=ORIENTED_EDGE('',*,*,#505,.T.);
#216=ORIENTED_EDGE('',*,*,#510,.F.);
#217=ORIENTED_EDGE('',*,*,#511,.T.);
#218=ORIENTED_EDGE('',*,*,#507,.T.);
#219=ORIENTED_EDGE('',*,*,#511,.F.);
#220=ORIENTED_EDGE('',*,*,#512,.F.);
#221=ORIENTED_EDGE('',*,*,#447,.T.);
#222=ORIENTED_EDGE('',*,*,#513,.F.);
#223=ORIENTED_EDGE('',*,*,#514,.F.);
#224=ORIENTED_EDGE('',*,*,#515,.F.);
#225=ORIENTED_EDGE('',*,*,#440,.T.);
#226=ORIENTED_EDGE('',*,*,#516,.F.);
#227=ORIENTED_EDGE('',*,*,#517,.F.);
#228=ORIENTED_EDGE('',*,*,#453,.F.);
#229=ORIENTED_EDGE('',*,*,#518,.T.);
#230=ORIENTED_EDGE('',*,*,#519,.F.);
#231=ORIENTED_EDGE('',*,*,#520,.T.);
#232=ORIENTED_EDGE('',*,*,#406,.T.);
#233=ORIENTED_EDGE('',*,*,#521,.F.);
#234=ORIENTED_EDGE('',*,*,#416,.F.);
#235=ORIENTED_EDGE('',*,*,#522,.T.);
#236=ORIENTED_EDGE('',*,*,#523,.T.);
#237=ORIENTED_EDGE('',*,*,#524,.F.);
#238=ORIENTED_EDGE('',*,*,#525,.F.);
#239=ORIENTED_EDGE('',*,*,#517,.T.);
#240=ORIENTED_EDGE('',*,*,#526,.F.);
#241=ORIENTED_EDGE('',*,*,#435,.F.);
#242=ORIENTED_EDGE('',*,*,#527,.F.);
#243=ORIENTED_EDGE('',*,*,#514,.T.);
#244=ORIENTED_EDGE('',*,*,#528,.F.);
#245=ORIENTED_EDGE('',*,*,#442,.F.);
#246=ORIENTED_EDGE('',*,*,#478,.T.);
#247=ORIENTED_EDGE('',*,*,#418,.F.);
#248=ORIENTED_EDGE('',*,*,#529,.F.);
#249=ORIENTED_EDGE('',*,*,#412,.T.);
#250=ORIENTED_EDGE('',*,*,#436,.F.);
#251=ORIENTED_EDGE('',*,*,#526,.T.);
#252=ORIENTED_EDGE('',*,*,#516,.T.);
#253=ORIENTED_EDGE('',*,*,#439,.F.);
#254=ORIENTED_EDGE('',*,*,#443,.F.);
#255=ORIENTED_EDGE('',*,*,#528,.T.);
#256=ORIENTED_EDGE('',*,*,#513,.T.);
#257=ORIENTED_EDGE('',*,*,#446,.F.);
#258=ORIENTED_EDGE('',*,*,#529,.T.);
#259=ORIENTED_EDGE('',*,*,#417,.T.);
#260=ORIENTED_EDGE('',*,*,#521,.T.);
#261=ORIENTED_EDGE('',*,*,#413,.T.);
#262=ORIENTED_EDGE('',*,*,#427,.F.);
#263=ORIENTED_EDGE('',*,*,#425,.T.);
#264=ORIENTED_EDGE('',*,*,#431,.T.);
#265=ORIENTED_EDGE('',*,*,#433,.F.);
#266=ORIENTED_EDGE('',*,*,#530,.T.);
#267=ORIENTED_EDGE('',*,*,#469,.T.);
#268=ORIENTED_EDGE('',*,*,#531,.F.);
#269=ORIENTED_EDGE('',*,*,#532,.T.);
#270=ORIENTED_EDGE('',*,*,#531,.T.);
#271=ORIENTED_EDGE('',*,*,#468,.F.);
#272=ORIENTED_EDGE('',*,*,#533,.F.);
#273=ORIENTED_EDGE('',*,*,#534,.F.);
#274=ORIENTED_EDGE('',*,*,#533,.T.);
#275=ORIENTED_EDGE('',*,*,#467,.F.);
#276=ORIENTED_EDGE('',*,*,#535,.F.);
#277=ORIENTED_EDGE('',*,*,#536,.F.);
#278=ORIENTED_EDGE('',*,*,#535,.T.);
#279=ORIENTED_EDGE('',*,*,#466,.T.);
#280=ORIENTED_EDGE('',*,*,#530,.F.);
#281=ORIENTED_EDGE('',*,*,#537,.T.);
#282=ORIENTED_EDGE('',*,*,#532,.F.);
#283=ORIENTED_EDGE('',*,*,#534,.T.);
#284=ORIENTED_EDGE('',*,*,#536,.T.);
#285=ORIENTED_EDGE('',*,*,#537,.F.);
#286=ORIENTED_EDGE('',*,*,#512,.T.);
#287=ORIENTED_EDGE('',*,*,#527,.T.);
#288=ORIENTED_EDGE('',*,*,#441,.T.);
#289=ORIENTED_EDGE('',*,*,#445,.T.);
#290=ORIENTED_EDGE('',*,*,#538,.T.);
#291=ORIENTED_EDGE('',*,*,#465,.T.);
#292=ORIENTED_EDGE('',*,*,#539,.F.);
#293=ORIENTED_EDGE('',*,*,#540,.T.);
#294=ORIENTED_EDGE('',*,*,#539,.T.);
#295=ORIENTED_EDGE('',*,*,#464,.F.);
#296=ORIENTED_EDGE('',*,*,#541,.F.);
#297=ORIENTED_EDGE('',*,*,#542,.F.);
#298=ORIENTED_EDGE('',*,*,#541,.T.);
#299=ORIENTED_EDGE('',*,*,#463,.F.);
#300=ORIENTED_EDGE('',*,*,#543,.F.);
#301=ORIENTED_EDGE('',*,*,#544,.F.);
#302=ORIENTED_EDGE('',*,*,#543,.T.);
#303=ORIENTED_EDGE('',*,*,#462,.T.);
#304=ORIENTED_EDGE('',*,*,#538,.F.);
#305=ORIENTED_EDGE('',*,*,#545,.T.);
#306=ORIENTED_EDGE('',*,*,#540,.F.);
#307=ORIENTED_EDGE('',*,*,#542,.T.);
#308=ORIENTED_EDGE('',*,*,#544,.T.);
#309=ORIENTED_EDGE('',*,*,#545,.F.);
#310=ORIENTED_EDGE('',*,*,#515,.T.);
#311=ORIENTED_EDGE('',*,*,#525,.T.);
#312=ORIENTED_EDGE('',*,*,#434,.T.);
#313=ORIENTED_EDGE('',*,*,#438,.T.);
#314=ORIENTED_EDGE('',*,*,#546,.T.);
#315=ORIENTED_EDGE('',*,*,#473,.T.);
#316=ORIENTED_EDGE('',*,*,#547,.F.);
#317=ORIENTED_EDGE('',*,*,#548,.T.);
#318=ORIENTED_EDGE('',*,*,#547,.T.);
#319=ORIENTED_EDGE('',*,*,#472,.F.);
#320=ORIENTED_EDGE('',*,*,#549,.F.);
#321=ORIENTED_EDGE('',*,*,#550,.F.);
#322=ORIENTED_EDGE('',*,*,#549,.T.);
#323=ORIENTED_EDGE('',*,*,#471,.F.);
#324=ORIENTED_EDGE('',*,*,#551,.F.);
#325=ORIENTED_EDGE('',*,*,#552,.F.);
#326=ORIENTED_EDGE('',*,*,#551,.T.);
#327=ORIENTED_EDGE('',*,*,#470,.T.);
#328=ORIENTED_EDGE('',*,*,#546,.F.);
#329=ORIENTED_EDGE('',*,*,#553,.T.);
#330=ORIENTED_EDGE('',*,*,#423,.F.);
#331=ORIENTED_EDGE('',*,*,#426,.T.);
#332=ORIENTED_EDGE('',*,*,#432,.T.);
#333=ORIENTED_EDGE('',*,*,#429,.F.);
#334=ORIENTED_EDGE('',*,*,#548,.F.);
#335=ORIENTED_EDGE('',*,*,#550,.T.);
#336=ORIENTED_EDGE('',*,*,#552,.T.);
#337=ORIENTED_EDGE('',*,*,#553,.F.);
#338=ORIENTED_EDGE('',*,*,#474,.F.);
#339=ORIENTED_EDGE('',*,*,#492,.F.);
#340=ORIENTED_EDGE('',*,*,#495,.F.);
#341=ORIENTED_EDGE('',*,*,#457,.T.);
#342=ORIENTED_EDGE('',*,*,#554,.T.);
#343=ORIENTED_EDGE('',*,*,#482,.T.);
#344=ORIENTED_EDGE('',*,*,#456,.F.);
#345=ORIENTED_EDGE('',*,*,#420,.T.);
#346=ORIENTED_EDGE('',*,*,#483,.F.);
#347=ORIENTED_EDGE('',*,*,#554,.F.);
#348=ORIENTED_EDGE('',*,*,#454,.F.);
#349=ORIENTED_EDGE('',*,*,#524,.T.);
#350=ORIENTED_EDGE('',*,*,#555,.F.);
#351=ORIENTED_EDGE('',*,*,#556,.F.);
#352=ORIENTED_EDGE('',*,*,#475,.T.);
#353=ORIENTED_EDGE('',*,*,#557,.T.);
#354=ORIENTED_EDGE('',*,*,#558,.T.);
#355=ORIENTED_EDGE('',*,*,#523,.F.);
#356=ORIENTED_EDGE('',*,*,#559,.T.);
#357=ORIENTED_EDGE('',*,*,#557,.F.);
#358=ORIENTED_EDGE('',*,*,#560,.T.);
#359=ORIENTED_EDGE('',*,*,#561,.F.);
#360=ORIENTED_EDGE('',*,*,#555,.T.);
#361=ORIENTED_EDGE('',*,*,#414,.F.);
#362=ORIENTED_EDGE('',*,*,#455,.T.);
#363=ORIENTED_EDGE('',*,*,#556,.T.);
#364=ORIENTED_EDGE('',*,*,#561,.T.);
#365=ORIENTED_EDGE('',*,*,#562,.T.);
#366=ORIENTED_EDGE('',*,*,#449,.F.);
#367=ORIENTED_EDGE('',*,*,#494,.T.);
#368=ORIENTED_EDGE('',*,*,#480,.F.);
#369=ORIENTED_EDGE('',*,*,#563,.F.);
#370=ORIENTED_EDGE('',*,*,#476,.T.);
#371=ORIENTED_EDGE('',*,*,#493,.T.);
#372=ORIENTED_EDGE('',*,*,#410,.F.);
#373=ORIENTED_EDGE('',*,*,#450,.T.);
#374=ORIENTED_EDGE('',*,*,#563,.T.);
#375=ORIENTED_EDGE('',*,*,#479,.T.);
#376=ORIENTED_EDGE('',*,*,#564,.T.);
#377=ORIENTED_EDGE('',*,*,#565,.T.);
#378=ORIENTED_EDGE('',*,*,#566,.T.);
#379=ORIENTED_EDGE('',*,*,#567,.T.);
#380=ORIENTED_EDGE('',*,*,#519,.T.);
#381=ORIENTED_EDGE('',*,*,#568,.F.);
#382=ORIENTED_EDGE('',*,*,#477,.F.);
#383=ORIENTED_EDGE('',*,*,#566,.F.);
#384=ORIENTED_EDGE('',*,*,#569,.T.);
#385=ORIENTED_EDGE('',*,*,#451,.F.);
#386=ORIENTED_EDGE('',*,*,#408,.T.);
#387=ORIENTED_EDGE('',*,*,#570,.T.);
#388=ORIENTED_EDGE('',*,*,#564,.F.);
#389=ORIENTED_EDGE('',*,*,#571,.F.);
#390=ORIENTED_EDGE('',*,*,#518,.F.);
#391=ORIENTED_EDGE('',*,*,#452,.T.);
#392=ORIENTED_EDGE('',*,*,#571,.T.);
#393=ORIENTED_EDGE('',*,*,#568,.T.);
#394=ORIENTED_EDGE('',*,*,#558,.F.);
#395=ORIENTED_EDGE('',*,*,#559,.F.);
#396=ORIENTED_EDGE('',*,*,#522,.F.);
#397=ORIENTED_EDGE('',*,*,#415,.F.);
#398=ORIENTED_EDGE('',*,*,#562,.F.);
#399=ORIENTED_EDGE('',*,*,#560,.F.);
#400=ORIENTED_EDGE('',*,*,#570,.F.);
#401=ORIENTED_EDGE('',*,*,#407,.F.);
#402=ORIENTED_EDGE('',*,*,#520,.F.);
#403=ORIENTED_EDGE('',*,*,#567,.F.);
#404=ORIENTED_EDGE('',*,*,#569,.F.);
#405=ORIENTED_EDGE('',*,*,#565,.F.);
#406=EDGE_CURVE('',#572,#573,#690,.T.);
#407=EDGE_CURVE('',#572,#574,#62,.T.);
#408=EDGE_CURVE('',#575,#574,#691,.T.);
#409=EDGE_CURVE('',#576,#575,#692,.T.);
#410=EDGE_CURVE('',#576,#577,#693,.T.);
#411=EDGE_CURVE('',#577,#578,#694,.T.);
#412=EDGE_CURVE('',#579,#578,#695,.T.);
#413=EDGE_CURVE('',#573,#579,#696,.T.);
#414=EDGE_CURVE('',#580,#581,#697,.T.);
#415=EDGE_CURVE('',#581,#582,#63,.T.);
#416=EDGE_CURVE('',#582,#583,#698,.T.);
#417=EDGE_CURVE('',#584,#583,#699,.T.);
#418=EDGE_CURVE('',#584,#585,#700,.T.);
#419=EDGE_CURVE('',#586,#585,#701,.T.);
#420=EDGE_CURVE('',#587,#586,#702,.T.);
#421=EDGE_CURVE('',#587,#580,#703,.T.);
#422=EDGE_CURVE('',#588,#589,#704,.T.);
#423=EDGE_CURVE('',#588,#590,#705,.T.);
#424=EDGE_CURVE('',#590,#591,#706,.T.);
#425=EDGE_CURVE('',#589,#591,#707,.T.);
#426=EDGE_CURVE('',#588,#592,#708,.T.);
#427=EDGE_CURVE('',#589,#593,#709,.T.);
#428=EDGE_CURVE('',#592,#593,#710,.T.);
#429=EDGE_CURVE('',#590,#594,#711,.T.);
#430=EDGE_CURVE('',#594,#595,#712,.T.);
#431=EDGE_CURVE('',#591,#595,#713,.T.);
#432=EDGE_CURVE('',#592,#594,#714,.T.);
#433=EDGE_CURVE('',#593,#595,#715,.T.);
#434=EDGE_CURVE('',#596,#597,#716,.T.);
#435=EDGE_CURVE('',#596,#598,#717,.T.);
#436=EDGE_CURVE('',#598,#599,#718,.T.);
#437=EDGE_CURVE('',#597,#599,#719,.T.);
#438=EDGE_CURVE('',#597,#600,#720,.T.);
#439=EDGE_CURVE('',#599,#601,#721,.T.);
#440=EDGE_CURVE('',#600,#601,#722,.T.);
#441=EDGE_CURVE('',#602,#603,#723,.T.);
#442=EDGE_CURVE('',#602,#604,#724,.T.);
#443=EDGE_CURVE('',#604,#605,#725,.T.);
#444=EDGE_CURVE('',#603,#605,#726,.T.);
#445=EDGE_CURVE('',#603,#606,#727,.T.);
#446=EDGE_CURVE('',#605,#607,#728,.T.);
#447=EDGE_CURVE('',#606,#607,#729,.T.);
#448=EDGE_CURVE('',#608,#609,#730,.T.);
#449=EDGE_CURVE('',#608,#610,#30,.F.);
#450=EDGE_CURVE('',#576,#610,#731,.T.);
#451=EDGE_CURVE('',#575,#611,#732,.T.);
#452=EDGE_CURVE('',#612,#611,#31,.T.);
#453=EDGE_CURVE('',#612,#613,#733,.T.);
#454=EDGE_CURVE('',#613,#614,#32,.F.);
#455=EDGE_CURVE('',#580,#614,#734,.T.);
#456=EDGE_CURVE('',#587,#615,#735,.T.);
#457=EDGE_CURVE('',#609,#615,#33,.T.);
#458=EDGE_CURVE('',#616,#617,#736,.T.);
#459=EDGE_CURVE('',#616,#618,#737,.T.);
#460=EDGE_CURVE('',#618,#619,#738,.T.);
#461=EDGE_CURVE('',#617,#619,#739,.T.);
#462=EDGE_CURVE('',#620,#621,#740,.T.);
#463=EDGE_CURVE('',#620,#622,#741,.T.);
#464=EDGE_CURVE('',#622,#623,#742,.T.);
#465=EDGE_CURVE('',#621,#623,#743,.T.);
#466=EDGE_CURVE('',#624,#625,#744,.T.);
#467=EDGE_CURVE('',#624,#626,#745,.T.);
#468=EDGE_CURVE('',#626,#627,#746,.T.);
#469=EDGE_CURVE('',#625,#627,#747,.T.);
#470=EDGE_CURVE('',#628,#629,#748,.T.);
#471=EDGE_CURVE('',#628,#630,#749,.T.);
#472=EDGE_CURVE('',#630,#631,#750,.T.);
#473=EDGE_CURVE('',#629,#631,#751,.T.);
#474=EDGE_CURVE('',#632,#632,#34,.T.);
#475=EDGE_CURVE('',#633,#633,#35,.F.);
#476=EDGE_CURVE('',#634,#634,#36,.F.);
#477=EDGE_CURVE('',#635,#635,#37,.T.);
#478=EDGE_CURVE('',#578,#585,#752,.T.);
#479=EDGE_CURVE('',#636,#577,#753,.T.);
#480=EDGE_CURVE('',#636,#637,#38,.T.);
#481=EDGE_CURVE('',#637,#638,#754,.T.);
#482=EDGE_CURVE('',#639,#638,#39,.T.);
#483=EDGE_CURVE('',#639,#586,#755,.T.);
#484=EDGE_CURVE('',#640,#640,#40,.T.);
#485=EDGE_CURVE('',#641,#641,#41,.T.);
#486=EDGE_CURVE('',#642,#642,#42,.T.);
#487=EDGE_CURVE('',#643,#643,#43,.T.);
#488=EDGE_CURVE('',#644,#645,#756,.T.);
#489=EDGE_CURVE('',#644,#646,#757,.T.);
#490=EDGE_CURVE('',#646,#647,#758,.T.);
#491=EDGE_CURVE('',#645,#647,#759,.T.);
#492=EDGE_CURVE('',#648,#648,#44,.T.);
#493=EDGE_CURVE('',#649,#649,#45,.T.);
#494=EDGE_CURVE('',#608,#637,#760,.T.);
#495=EDGE_CURVE('',#609,#638,#761,.T.);
#496=EDGE_CURVE('',#617,#646,#762,.T.);
#497=EDGE_CURVE('',#616,#644,#763,.T.);
#498=EDGE_CURVE('',#618,#645,#764,.T.);
#499=EDGE_CURVE('',#619,#647,#765,.T.);
#500=EDGE_CURVE('',#650,#650,#46,.T.);
#501=EDGE_CURVE('',#651,#651,#47,.T.);
#502=EDGE_CURVE('',#652,#652,#48,.T.);
#503=EDGE_CURVE('',#653,#653,#49,.T.);
#504=EDGE_CURVE('',#654,#654,#50,.T.);
#505=EDGE_CURVE('',#655,#655,#51,.T.);
#506=EDGE_CURVE('',#656,#656,#52,.T.);
#507=EDGE_CURVE('',#657,#657,#53,.T.);
#508=EDGE_CURVE('',#658,#658,#54,.T.);
#509=EDGE_CURVE('',#659,#659,#55,.T.);
#510=EDGE_CURVE('',#660,#660,#56,.T.);
#511=EDGE_CURVE('',#661,#661,#57,.T.);
#512=EDGE_CURVE('',#606,#662,#766,.T.);
#513=EDGE_CURVE('',#663,#607,#767,.T.);
#514=EDGE_CURVE('',#662,#663,#768,.T.);
#515=EDGE_CURVE('',#600,#664,#769,.T.);
#516=EDGE_CURVE('',#665,#601,#770,.T.);
#517=EDGE_CURVE('',#664,#665,#771,.T.);
#518=EDGE_CURVE('',#612,#666,#772,.T.);
#519=EDGE_CURVE('',#667,#666,#773,.T.);
#520=EDGE_CURVE('',#667,#572,#64,.T.);
#521=EDGE_CURVE('',#583,#573,#774,.T.);
#522=EDGE_CURVE('',#582,#668,#65,.T.);
#523=EDGE_CURVE('',#668,#669,#775,.T.);
#524=EDGE_CURVE('',#613,#669,#776,.T.);
#525=EDGE_CURVE('',#664,#596,#777,.T.);
#526=EDGE_CURVE('',#598,#665,#778,.T.);
#527=EDGE_CURVE('',#662,#602,#779,.T.);
#528=EDGE_CURVE('',#604,#663,#780,.T.);
#529=EDGE_CURVE('',#579,#584,#781,.T.);
#530=EDGE_CURVE('',#670,#625,#782,.T.);
#531=EDGE_CURVE('',#671,#627,#783,.T.);
#532=EDGE_CURVE('',#671,#670,#784,.T.);
#533=EDGE_CURVE('',#672,#626,#785,.T.);
#534=EDGE_CURVE('',#671,#672,#786,.T.);
#535=EDGE_CURVE('',#673,#624,#787,.T.);
#536=EDGE_CURVE('',#672,#673,#788,.T.);
#537=EDGE_CURVE('',#670,#673,#789,.T.);
#538=EDGE_CURVE('',#674,#621,#790,.T.);
#539=EDGE_CURVE('',#675,#623,#791,.T.);
#540=EDGE_CURVE('',#675,#674,#792,.T.);
#541=EDGE_CURVE('',#676,#622,#793,.T.);
#542=EDGE_CURVE('',#675,#676,#794,.T.);
#543=EDGE_CURVE('',#677,#620,#795,.T.);
#544=EDGE_CURVE('',#676,#677,#796,.T.);
#545=EDGE_CURVE('',#674,#677,#797,.T.);
#546=EDGE_CURVE('',#678,#629,#798,.T.);
#547=EDGE_CURVE('',#679,#631,#799,.T.);
#548=EDGE_CURVE('',#679,#678,#800,.T.);
#549=EDGE_CURVE('',#680,#630,#801,.T.);
#550=EDGE_CURVE('',#679,#680,#802,.T.);
#551=EDGE_CURVE('',#681,#628,#803,.T.);
#552=EDGE_CURVE('',#680,#681,#804,.T.);
#553=EDGE_CURVE('',#678,#681,#805,.T.);
#554=EDGE_CURVE('',#615,#639,#806,.T.);
#555=EDGE_CURVE('',#682,#669,#58,.T.);
#556=EDGE_CURVE('',#614,#682,#807,.T.);
#557=EDGE_CURVE('',#683,#684,#59,.T.);
#558=EDGE_CURVE('',#684,#683,#66,.T.);
#559=EDGE_CURVE('',#668,#684,#67,.T.);
#560=EDGE_CURVE('',#683,#685,#68,.T.);
#561=EDGE_CURVE('',#682,#685,#808,.T.);
#562=EDGE_CURVE('',#685,#581,#69,.T.);
#563=EDGE_CURVE('',#610,#636,#809,.T.);
#564=EDGE_CURVE('',#686,#687,#810,.T.);
#565=EDGE_CURVE('',#687,#688,#70,.T.);
#566=EDGE_CURVE('',#688,#689,#60,.T.);
#567=EDGE_CURVE('',#689,#667,#71,.T.);
#568=EDGE_CURVE('',#686,#666,#61,.T.);
#569=EDGE_CURVE('',#688,#689,#72,.T.);
#570=EDGE_CURVE('',#574,#687,#73,.T.);
#571=EDGE_CURVE('',#611,#686,#811,.T.);
#572=VERTEX_POINT('',#1717);
#573=VERTEX_POINT('',#1718);
#574=VERTEX_POINT('',#1723);
#575=VERTEX_POINT('',#1725);
#576=VERTEX_POINT('',#1727);
#577=VERTEX_POINT('',#1729);
#578=VERTEX_POINT('',#1731);
#579=VERTEX_POINT('',#1733);
#580=VERTEX_POINT('',#1737);
#581=VERTEX_POINT('',#1738);
#582=VERTEX_POINT('',#1743);
#583=VERTEX_POINT('',#1745);
#584=VERTEX_POINT('',#1747);
#585=VERTEX_POINT('',#1749);
#586=VERTEX_POINT('',#1751);
#587=VERTEX_POINT('',#1753);
#588=VERTEX_POINT('',#1757);
#589=VERTEX_POINT('',#1758);
#590=VERTEX_POINT('',#1760);
#591=VERTEX_POINT('',#1762);
#592=VERTEX_POINT('',#1766);
#593=VERTEX_POINT('',#1768);
#594=VERTEX_POINT('',#1772);
#595=VERTEX_POINT('',#1774);
#596=VERTEX_POINT('',#1781);
#597=VERTEX_POINT('',#1782);
#598=VERTEX_POINT('',#1784);
#599=VERTEX_POINT('',#1786);
#600=VERTEX_POINT('',#1790);
#601=VERTEX_POINT('',#1792);
#602=VERTEX_POINT('',#1796);
#603=VERTEX_POINT('',#1797);
#604=VERTEX_POINT('',#1799);
#605=VERTEX_POINT('',#1801);
#606=VERTEX_POINT('',#1805);
#607=VERTEX_POINT('',#1807);
#608=VERTEX_POINT('',#1811);
#609=VERTEX_POINT('',#1812);
#610=VERTEX_POINT('',#1814);
#611=VERTEX_POINT('',#1817);
#612=VERTEX_POINT('',#1819);
#613=VERTEX_POINT('',#1821);
#614=VERTEX_POINT('',#1823);
#615=VERTEX_POINT('',#1826);
#616=VERTEX_POINT('',#1829);
#617=VERTEX_POINT('',#1830);
#618=VERTEX_POINT('',#1832);
#619=VERTEX_POINT('',#1834);
#620=VERTEX_POINT('',#1837);
#621=VERTEX_POINT('',#1838);
#622=VERTEX_POINT('',#1840);
#623=VERTEX_POINT('',#1842);
#624=VERTEX_POINT('',#1845);
#625=VERTEX_POINT('',#1846);
#626=VERTEX_POINT('',#1848);
#627=VERTEX_POINT('',#1850);
#628=VERTEX_POINT('',#1853);
#629=VERTEX_POINT('',#1854);
#630=VERTEX_POINT('',#1856);
#631=VERTEX_POINT('',#1858);
#632=VERTEX_POINT('',#1861);
#633=VERTEX_POINT('',#1863);
#634=VERTEX_POINT('',#1865);
#635=VERTEX_POINT('',#1867);
#636=VERTEX_POINT('',#1871);
#637=VERTEX_POINT('',#1873);
#638=VERTEX_POINT('',#1875);
#639=VERTEX_POINT('',#1877);
#640=VERTEX_POINT('',#1880);
#641=VERTEX_POINT('',#1882);
#642=VERTEX_POINT('',#1884);
#643=VERTEX_POINT('',#1886);
#644=VERTEX_POINT('',#1888);
#645=VERTEX_POINT('',#1889);
#646=VERTEX_POINT('',#1891);
#647=VERTEX_POINT('',#1893);
#648=VERTEX_POINT('',#1896);
#649=VERTEX_POINT('',#1898);
#650=VERTEX_POINT('',#1912);
#651=VERTEX_POINT('',#1915);
#652=VERTEX_POINT('',#1918);
#653=VERTEX_POINT('',#1921);
#654=VERTEX_POINT('',#1924);
#655=VERTEX_POINT('',#1927);
#656=VERTEX_POINT('',#1930);
#657=VERTEX_POINT('',#1933);
#658=VERTEX_POINT('',#1936);
#659=VERTEX_POINT('',#1940);
#660=VERTEX_POINT('',#1944);
#661=VERTEX_POINT('',#1948);
#662=VERTEX_POINT('',#1952);
#663=VERTEX_POINT('',#1954);
#664=VERTEX_POINT('',#1958);
#665=VERTEX_POINT('',#1960);
#666=VERTEX_POINT('',#1964);
#667=VERTEX_POINT('',#1966);
#668=VERTEX_POINT('',#1982);
#669=VERTEX_POINT('',#1984);
#670=VERTEX_POINT('',#1997);
#671=VERTEX_POINT('',#1999);
#672=VERTEX_POINT('',#2003);
#673=VERTEX_POINT('',#2007);
#674=VERTEX_POINT('',#2014);
#675=VERTEX_POINT('',#2016);
#676=VERTEX_POINT('',#2020);
#677=VERTEX_POINT('',#2024);
#678=VERTEX_POINT('',#2031);
#679=VERTEX_POINT('',#2033);
#680=VERTEX_POINT('',#2037);
#681=VERTEX_POINT('',#2041);
#682=VERTEX_POINT('',#2052);
#683=VERTEX_POINT('',#2056);
#684=VERTEX_POINT('',#2057);
#685=VERTEX_POINT('',#2071);
#686=VERTEX_POINT('',#2087);
#687=VERTEX_POINT('',#2088);
#688=VERTEX_POINT('',#2093);
#689=VERTEX_POINT('',#2095);
#690=LINE('',#1716,#812);
#691=LINE('',#1724,#813);
#692=LINE('',#1726,#814);
#693=LINE('',#1728,#815);
#694=LINE('',#1730,#816);
#695=LINE('',#1732,#817);
#696=LINE('',#1734,#818);
#697=LINE('',#1736,#819);
#698=LINE('',#1744,#820);
#699=LINE('',#1746,#821);
#700=LINE('',#1748,#822);
#701=LINE('',#1750,#823);
#702=LINE('',#1752,#824);
#703=LINE('',#1754,#825);
#704=LINE('',#1756,#826);
#705=LINE('',#1759,#827);
#706=LINE('',#1761,#828);
#707=LINE('',#1763,#829);
#708=LINE('',#1765,#830);
#709=LINE('',#1767,#831);
#710=LINE('',#1769,#832);
#711=LINE('',#1771,#833);
#712=LINE('',#1773,#834);
#713=LINE('',#1775,#835);
#714=LINE('',#1777,#836);
#715=LINE('',#1778,#837);
#716=LINE('',#1780,#838);
#717=LINE('',#1783,#839);
#718=LINE('',#1785,#840);
#719=LINE('',#1787,#841);
#720=LINE('',#1789,#842);
#721=LINE('',#1791,#843);
#722=LINE('',#1793,#844);
#723=LINE('',#1795,#845);
#724=LINE('',#1798,#846);
#725=LINE('',#1800,#847);
#726=LINE('',#1802,#848);
#727=LINE('',#1804,#849);
#728=LINE('',#1806,#850);
#729=LINE('',#1808,#851);
#730=LINE('',#1810,#852);
#731=LINE('',#1815,#853);
#732=LINE('',#1816,#854);
#733=LINE('',#1820,#855);
#734=LINE('',#1824,#856);
#735=LINE('',#1825,#857);
#736=LINE('',#1828,#858);
#737=LINE('',#1831,#859);
#738=LINE('',#1833,#860);
#739=LINE('',#1835,#861);
#740=LINE('',#1836,#862);
#741=LINE('',#1839,#863);
#742=LINE('',#1841,#864);
#743=LINE('',#1843,#865);
#744=LINE('',#1844,#866);
#745=LINE('',#1847,#867);
#746=LINE('',#1849,#868);
#747=LINE('',#1851,#869);
#748=LINE('',#1852,#870);
#749=LINE('',#1855,#871);
#750=LINE('',#1857,#872);
#751=LINE('',#1859,#873);
#752=LINE('',#1869,#874);
#753=LINE('',#1870,#875);
#754=LINE('',#1874,#876);
#755=LINE('',#1878,#877);
#756=LINE('',#1887,#878);
#757=LINE('',#1890,#879);
#758=LINE('',#1892,#880);
#759=LINE('',#1894,#881);
#760=LINE('',#1900,#882);
#761=LINE('',#1901,#883);
#762=LINE('',#1903,#884);
#763=LINE('',#1904,#885);
#764=LINE('',#1906,#886);
#765=LINE('',#1908,#887);
#766=LINE('',#1951,#888);
#767=LINE('',#1953,#889);
#768=LINE('',#1955,#890);
#769=LINE('',#1957,#891);
#770=LINE('',#1959,#892);
#771=LINE('',#1961,#893);
#772=LINE('',#1963,#894);
#773=LINE('',#1965,#895);
#774=LINE('',#1974,#896);
#775=LINE('',#1983,#897);
#776=LINE('',#1985,#898);
#777=LINE('',#1987,#899);
#778=LINE('',#1988,#900);
#779=LINE('',#1990,#901);
#780=LINE('',#1991,#902);
#781=LINE('',#1993,#903);
#782=LINE('',#1996,#904);
#783=LINE('',#1998,#905);
#784=LINE('',#2000,#906);
#785=LINE('',#2002,#907);
#786=LINE('',#2004,#908);
#787=LINE('',#2006,#909);
#788=LINE('',#2008,#910);
#789=LINE('',#2010,#911);
#790=LINE('',#2013,#912);
#791=LINE('',#2015,#913);
#792=LINE('',#2017,#914);
#793=LINE('',#2019,#915);
#794=LINE('',#2021,#916);
#795=LINE('',#2023,#917);
#796=LINE('',#2025,#918);
#797=LINE('',#2027,#919);
#798=LINE('',#2030,#920);
#799=LINE('',#2032,#921);
#800=LINE('',#2034,#922);
#801=LINE('',#2036,#923);
#802=LINE('',#2038,#924);
#803=LINE('',#2040,#925);
#804=LINE('',#2042,#926);
#805=LINE('',#2044,#927);
#806=LINE('',#2048,#928);
#807=LINE('',#2053,#929);
#808=LINE('',#2072,#930);
#809=LINE('',#2082,#931);
#810=LINE('',#2086,#932);
#811=LINE('',#2114,#933);
#812=VECTOR('',#1392,1.);
#813=VECTOR('',#1393,1.);
#814=VECTOR('',#1394,1.);
#815=VECTOR('',#1395,1.);
#816=VECTOR('',#1396,1.);
#817=VECTOR('',#1397,1.);
#818=VECTOR('',#1398,1.);
#819=VECTOR('',#1401,1.);
#820=VECTOR('',#1402,1.);
#821=VECTOR('',#1403,1.);
#822=VECTOR('',#1404,1.);
#823=VECTOR('',#1405,1.);
#824=VECTOR('',#1406,1.);
#825=VECTOR('',#1407,1.);
#826=VECTOR('',#1410,1.);
#827=VECTOR('',#1411,1.);
#828=VECTOR('',#1412,1.);
#829=VECTOR('',#1413,1.);
#830=VECTOR('',#1416,1.);
#831=VECTOR('',#1417,1.);
#832=VECTOR('',#1418,1.);
#833=VECTOR('',#1421,1.);
#834=VECTOR('',#1422,1.);
#835=VECTOR('',#1423,1.);
#836=VECTOR('',#1426,1.);
#837=VECTOR('',#1427,1.);
#838=VECTOR('',#1430,1.);
#839=VECTOR('',#1431,1.);
#840=VECTOR('',#1432,1.);
#841=VECTOR('',#1433,1.);
#842=VECTOR('',#1436,1.);
#843=VECTOR('',#1437,1.);
#844=VECTOR('',#1438,1.);
#845=VECTOR('',#1441,1.);
#846=VECTOR('',#1442,1.);
#847=VECTOR('',#1443,1.);
#848=VECTOR('',#1444,1.);
#849=VECTOR('',#1447,1.);
#850=VECTOR('',#1448,1.);
#851=VECTOR('',#1449,1.);
#852=VECTOR('',#1452,1.);
#853=VECTOR('',#1455,1.);
#854=VECTOR('',#1456,1.);
#855=VECTOR('',#1459,1.);
#856=VECTOR('',#1462,1.);
#857=VECTOR('',#1463,1.);
#858=VECTOR('',#1466,1.);
#859=VECTOR('',#1467,1.);
#860=VECTOR('',#1468,1.);
#861=VECTOR('',#1469,1.);
#862=VECTOR('',#1470,1.);
#863=VECTOR('',#1471,1.);
#864=VECTOR('',#1472,1.);
#865=VECTOR('',#1473,1.);
#866=VECTOR('',#1474,1.);
#867=VECTOR('',#1475,1.);
#868=VECTOR('',#1476,1.);
#869=VECTOR('',#1477,1.);
#870=VECTOR('',#1478,1.);
#871=VECTOR('',#1479,1.);
#872=VECTOR('',#1480,1.);
#873=VECTOR('',#1481,1.);
#874=VECTOR('',#1492,1.);
#875=VECTOR('',#1493,1.);
#876=VECTOR('',#1496,1.);
#877=VECTOR('',#1499,1.);
#878=VECTOR('',#1508,1.);
#879=VECTOR('',#1509,1.);
#880=VECTOR('',#1510,1.);
#881=VECTOR('',#1511,1.);
#882=VECTOR('',#1518,1.);
#883=VECTOR('',#1519,1.);
#884=VECTOR('',#1522,1.);
#885=VECTOR('',#1523,1.);
#886=VECTOR('',#1526,1.);
#887=VECTOR('',#1529,1.);
#888=VECTOR('',#1590,1.);
#889=VECTOR('',#1591,1.);
#890=VECTOR('',#1592,1.);
#891=VECTOR('',#1595,1.);
#892=VECTOR('',#1596,1.);
#893=VECTOR('',#1597,1.);
#894=VECTOR('',#1600,1.);
#895=VECTOR('',#1601,1.);
#896=VECTOR('',#1602,1.);
#897=VECTOR('',#1603,1.);
#898=VECTOR('',#1604,1.);
#899=VECTOR('',#1607,1.);
#900=VECTOR('',#1608,1.);
#901=VECTOR('',#1611,1.);
#902=VECTOR('',#1612,1.);
#903=VECTOR('',#1615,1.);
#904=VECTOR('',#1620,1.);
#905=VECTOR('',#1621,1.);
#906=VECTOR('',#1622,1.);
#907=VECTOR('',#1625,1.);
#908=VECTOR('',#1626,1.);
#909=VECTOR('',#1629,1.);
#910=VECTOR('',#1630,1.);
#911=VECTOR('',#1633,1.);
#912=VECTOR('',#1638,1.);
#913=VECTOR('',#1639,1.);
#914=VECTOR('',#1640,1.);
#915=VECTOR('',#1643,1.);
#916=VECTOR('',#1644,1.);
#917=VECTOR('',#1647,1.);
#918=VECTOR('',#1648,1.);
#919=VECTOR('',#1651,1.);
#920=VECTOR('',#1656,1.);
#921=VECTOR('',#1657,1.);
#922=VECTOR('',#1658,1.);
#923=VECTOR('',#1661,1.);
#924=VECTOR('',#1662,1.);
#925=VECTOR('',#1665,1.);
#926=VECTOR('',#1666,1.);
#927=VECTOR('',#1669,1.);
#928=VECTOR('',#1676,1.);
#929=VECTOR('',#1683,1.);
#930=VECTOR('',#1690,1.);
#931=VECTOR('',#1695,1.);
#932=VECTOR('',#1702,1.);
#933=VECTOR('',#1711,1.);
#934=EDGE_LOOP('',(#74,#75,#76,#77,#78,#79,#80,#81));
#935=EDGE_LOOP('',(#82,#83,#84,#85,#86,#87,#88,#89));
#936=EDGE_LOOP('',(#90,#91,#92,#93));
#937=EDGE_LOOP('',(#94,#95,#96,#97));
#938=EDGE_LOOP('',(#98,#99,#100,#101));
#939=EDGE_LOOP('',(#102,#103,#104,#105));
#940=EDGE_LOOP('',(#106,#107,#108,#109));
#941=EDGE_LOOP('',(#110,#111,#112,#113));
#942=EDGE_LOOP('',(#114,#115,#116,#117));
#943=EDGE_LOOP('',(#118,#119,#120,#121));
#944=EDGE_LOOP('',(#122,#123,#124,#125,#126,#127,#128,#129,#130,#131,#132,
#133));
#945=EDGE_LOOP('',(#134,#135,#136,#137));
#946=EDGE_LOOP('',(#138,#139,#140,#141));
#947=EDGE_LOOP('',(#142,#143,#144,#145));
#948=EDGE_LOOP('',(#146,#147,#148,#149));
#949=EDGE_LOOP('',(#150));
#950=EDGE_LOOP('',(#151));
#951=EDGE_LOOP('',(#152));
#952=EDGE_LOOP('',(#153));
#953=EDGE_LOOP('',(#154,#155,#156,#157,#158,#159,#160,#161));
#954=EDGE_LOOP('',(#162));
#955=EDGE_LOOP('',(#163));
#956=EDGE_LOOP('',(#164));
#957=EDGE_LOOP('',(#165));
#958=EDGE_LOOP('',(#166,#167,#168,#169));
#959=EDGE_LOOP('',(#170));
#960=EDGE_LOOP('',(#171));
#961=EDGE_LOOP('',(#172,#173,#174,#175));
#962=EDGE_LOOP('',(#176,#177,#178,#179));
#963=EDGE_LOOP('',(#180,#181,#182,#183));
#964=EDGE_LOOP('',(#184,#185,#186,#187));
#965=EDGE_LOOP('',(#188,#189,#190,#191));
#966=EDGE_LOOP('',(#192));
#967=EDGE_LOOP('',(#193));
#968=EDGE_LOOP('',(#194));
#969=EDGE_LOOP('',(#195));
#970=EDGE_LOOP('',(#196));
#971=EDGE_LOOP('',(#197));
#972=EDGE_LOOP('',(#198));
#973=EDGE_LOOP('',(#199));
#974=EDGE_LOOP('',(#200));
#975=EDGE_LOOP('',(#201));
#976=EDGE_LOOP('',(#202));
#977=EDGE_LOOP('',(#203));
#978=EDGE_LOOP('',(#204));
#979=EDGE_LOOP('',(#205));
#980=EDGE_LOOP('',(#206));
#981=EDGE_LOOP('',(#207));
#982=EDGE_LOOP('',(#208));
#983=EDGE_LOOP('',(#209));
#984=EDGE_LOOP('',(#210));
#985=EDGE_LOOP('',(#211));
#986=EDGE_LOOP('',(#212));
#987=EDGE_LOOP('',(#213));
#988=EDGE_LOOP('',(#214));
#989=EDGE_LOOP('',(#215));
#990=EDGE_LOOP('',(#216));
#991=EDGE_LOOP('',(#217));
#992=EDGE_LOOP('',(#218));
#993=EDGE_LOOP('',(#219));
#994=EDGE_LOOP('',(#220,#221,#222,#223));
#995=EDGE_LOOP('',(#224,#225,#226,#227));
#996=EDGE_LOOP('',(#228,#229,#230,#231,#232,#233,#234,#235,#236,#237));
#997=EDGE_LOOP('',(#238,#239,#240,#241));
#998=EDGE_LOOP('',(#242,#243,#244,#245));
#999=EDGE_LOOP('',(#246,#247,#248,#249));
#1000=EDGE_LOOP('',(#250,#251,#252,#253));
#1001=EDGE_LOOP('',(#254,#255,#256,#257));
#1002=EDGE_LOOP('',(#258,#259,#260,#261));
#1003=EDGE_LOOP('',(#262,#263,#264,#265));
#1004=EDGE_LOOP('',(#266,#267,#268,#269));
#1005=EDGE_LOOP('',(#270,#271,#272,#273));
#1006=EDGE_LOOP('',(#274,#275,#276,#277));
#1007=EDGE_LOOP('',(#278,#279,#280,#281));
#1008=EDGE_LOOP('',(#282,#283,#284,#285));
#1009=EDGE_LOOP('',(#286,#287,#288,#289));
#1010=EDGE_LOOP('',(#290,#291,#292,#293));
#1011=EDGE_LOOP('',(#294,#295,#296,#297));
#1012=EDGE_LOOP('',(#298,#299,#300,#301));
#1013=EDGE_LOOP('',(#302,#303,#304,#305));
#1014=EDGE_LOOP('',(#306,#307,#308,#309));
#1015=EDGE_LOOP('',(#310,#311,#312,#313));
#1016=EDGE_LOOP('',(#314,#315,#316,#317));
#1017=EDGE_LOOP('',(#318,#319,#320,#321));
#1018=EDGE_LOOP('',(#322,#323,#324,#325));
#1019=EDGE_LOOP('',(#326,#327,#328,#329));
#1020=EDGE_LOOP('',(#330,#331,#332,#333));
#1021=EDGE_LOOP('',(#334,#335,#336,#337));
#1022=EDGE_LOOP('',(#338));
#1023=EDGE_LOOP('',(#339));
#1024=EDGE_LOOP('',(#340,#341,#342,#343));
#1025=EDGE_LOOP('',(#344,#345,#346,#347));
#1026=EDGE_LOOP('',(#348,#349,#350,#351));
#1027=EDGE_LOOP('',(#352));
#1028=EDGE_LOOP('',(#353,#354));
#1029=EDGE_LOOP('',(#355,#356,#357,#358,#359,#360));
#1030=EDGE_LOOP('',(#361,#362,#363,#364,#365));
#1031=EDGE_LOOP('',(#366,#367,#368,#369));
#1032=EDGE_LOOP('',(#370));
#1033=EDGE_LOOP('',(#371));
#1034=EDGE_LOOP('',(#372,#373,#374,#375));
#1035=EDGE_LOOP('',(#376,#377,#378,#379,#380,#381));
#1036=EDGE_LOOP('',(#382));
#1037=EDGE_LOOP('',(#383,#384));
#1038=EDGE_LOOP('',(#385,#386,#387,#388,#389));
#1039=EDGE_LOOP('',(#390,#391,#392,#393));
#1040=EDGE_LOOP('',(#394,#395,#396,#397,#398,#399));
#1041=EDGE_LOOP('',(#400,#401,#402,#403,#404,#405));
#1042=FACE_BOUND('',#934,.T.);
#1043=FACE_BOUND('',#935,.T.);
#1044=FACE_BOUND('',#936,.T.);
#1045=FACE_BOUND('',#937,.T.);
#1046=FACE_BOUND('',#938,.T.);
#1047=FACE_BOUND('',#939,.T.);
#1048=FACE_BOUND('',#940,.T.);
#1049=FACE_BOUND('',#941,.T.);
#1050=FACE_BOUND('',#942,.T.);
#1051=FACE_BOUND('',#943,.T.);
#1052=FACE_BOUND('',#944,.T.);
#1053=FACE_BOUND('',#945,.T.);
#1054=FACE_BOUND('',#946,.T.);
#1055=FACE_BOUND('',#947,.T.);
#1056=FACE_BOUND('',#948,.T.);
#1057=FACE_BOUND('',#949,.T.);
#1058=FACE_BOUND('',#950,.T.);
#1059=FACE_BOUND('',#951,.T.);
#1060=FACE_BOUND('',#952,.T.);
#1061=FACE_BOUND('',#953,.T.);
#1062=FACE_BOUND('',#954,.T.);
#1063=FACE_BOUND('',#955,.T.);
#1064=FACE_BOUND('',#956,.T.);
#1065=FACE_BOUND('',#957,.T.);
#1066=FACE_BOUND('',#958,.T.);
#1067=FACE_BOUND('',#959,.T.);
#1068=FACE_BOUND('',#960,.T.);
#1069=FACE_BOUND('',#961,.T.);
#1070=FACE_BOUND('',#962,.T.);
#1071=FACE_BOUND('',#963,.T.);
#1072=FACE_BOUND('',#964,.T.);
#1073=FACE_BOUND('',#965,.T.);
#1074=FACE_BOUND('',#966,.T.);
#1075=FACE_BOUND('',#967,.T.);
#1076=FACE_BOUND('',#968,.T.);
#1077=FACE_BOUND('',#969,.T.);
#1078=FACE_BOUND('',#970,.T.);
#1079=FACE_BOUND('',#971,.T.);
#1080=FACE_BOUND('',#972,.T.);
#1081=FACE_BOUND('',#973,.T.);
#1082=FACE_BOUND('',#974,.T.);
#1083=FACE_BOUND('',#975,.T.);
#1084=FACE_BOUND('',#976,.T.);
#1085=FACE_BOUND('',#977,.T.);
#1086=FACE_BOUND('',#978,.T.);
#1087=FACE_BOUND('',#979,.T.);
#1088=FACE_BOUND('',#980,.T.);
#1089=FACE_BOUND('',#981,.T.);
#1090=FACE_BOUND('',#982,.T.);
#1091=FACE_BOUND('',#983,.T.);
#1092=FACE_BOUND('',#984,.T.);
#1093=FACE_BOUND('',#985,.T.);
#1094=FACE_BOUND('',#986,.T.);
#1095=FACE_BOUND('',#987,.T.);
#1096=FACE_BOUND('',#988,.T.);
#1097=FACE_BOUND('',#989,.T.);
#1098=FACE_BOUND('',#990,.T.);
#1099=FACE_BOUND('',#991,.T.);
#1100=FACE_BOUND('',#992,.T.);
#1101=FACE_BOUND('',#993,.T.);
#1102=FACE_BOUND('',#994,.T.);
#1103=FACE_BOUND('',#995,.T.);
#1104=FACE_BOUND('',#996,.T.);
#1105=FACE_BOUND('',#997,.T.);
#1106=FACE_BOUND('',#998,.T.);
#1107=FACE_BOUND('',#999,.T.);
#1108=FACE_BOUND('',#1000,.T.);
#1109=FACE_BOUND('',#1001,.T.);
#1110=FACE_BOUND('',#1002,.T.);
#1111=FACE_BOUND('',#1003,.T.);
#1112=FACE_BOUND('',#1004,.T.);
#1113=FACE_BOUND('',#1005,.T.);
#1114=FACE_BOUND('',#1006,.T.);
#1115=FACE_BOUND('',#1007,.T.);
#1116=FACE_BOUND('',#1008,.T.);
#1117=FACE_BOUND('',#1009,.T.);
#1118=FACE_BOUND('',#1010,.T.);
#1119=FACE_BOUND('',#1011,.T.);
#1120=FACE_BOUND('',#1012,.T.);
#1121=FACE_BOUND('',#1013,.T.);
#1122=FACE_BOUND('',#1014,.T.);
#1123=FACE_BOUND('',#1015,.T.);
#1124=FACE_BOUND('',#1016,.T.);
#1125=FACE_BOUND('',#1017,.T.);
#1126=FACE_BOUND('',#1018,.T.);
#1127=FACE_BOUND('',#1019,.T.);
#1128=FACE_BOUND('',#1020,.T.);
#1129=FACE_BOUND('',#1021,.T.);
#1130=FACE_BOUND('',#1022,.T.);
#1131=FACE_BOUND('',#1023,.T.);
#1132=FACE_BOUND('',#1024,.T.);
#1133=FACE_BOUND('',#1025,.T.);
#1134=FACE_BOUND('',#1026,.T.);
#1135=FACE_BOUND('',#1027,.T.);
#1136=FACE_BOUND('',#1028,.T.);
#1137=FACE_BOUND('',#1029,.T.);
#1138=FACE_BOUND('',#1030,.T.);
#1139=FACE_BOUND('',#1031,.T.);
#1140=FACE_BOUND('',#1032,.T.);
#1141=FACE_BOUND('',#1033,.T.);
#1142=FACE_BOUND('',#1034,.T.);
#1143=FACE_BOUND('',#1035,.T.);
#1144=FACE_BOUND('',#1036,.T.);
#1145=FACE_BOUND('',#1037,.T.);
#1146=FACE_BOUND('',#1038,.T.);
#1147=FACE_BOUND('',#1039,.T.);
#1148=FACE_BOUND('',#1040,.T.);
#1149=FACE_BOUND('',#1041,.T.);
#1150=PLANE('',#1287);
#1151=PLANE('',#1288);
#1152=PLANE('',#1289);
#1153=PLANE('',#1290);
#1154=PLANE('',#1291);
#1155=PLANE('',#1292);
#1156=PLANE('',#1293);
#1157=PLANE('',#1294);
#1158=PLANE('',#1295);
#1159=PLANE('',#1296);
#1160=PLANE('',#1297);
#1161=PLANE('',#1306);
#1162=PLANE('',#1315);
#1163=PLANE('',#1316);
#1164=PLANE('',#1317);
#1165=PLANE('',#1318);
#1166=PLANE('',#1319);
#1167=PLANE('',#1322);
#1168=PLANE('',#1326);
#1169=PLANE('',#1330);
#1170=PLANE('',#1334);
#1171=PLANE('',#1336);
#1172=PLANE('',#1339);
#1173=PLANE('',#1342);
#1174=PLANE('',#1345);
#1175=PLANE('',#1348);
#1176=PLANE('',#1349);
#1177=PLANE('',#1350);
#1178=PLANE('',#1351);
#1179=PLANE('',#1352);
#1180=PLANE('',#1353);
#1181=PLANE('',#1354);
#1182=PLANE('',#1355);
#1183=PLANE('',#1356);
#1184=PLANE('',#1357);
#1185=PLANE('',#1358);
#1186=PLANE('',#1359);
#1187=PLANE('',#1360);
#1188=PLANE('',#1361);
#1189=PLANE('',#1362);
#1190=PLANE('',#1363);
#1191=PLANE('',#1364);
#1192=PLANE('',#1365);
#1193=PLANE('',#1366);
#1194=PLANE('',#1367);
#1195=PLANE('',#1368);
#1196=PLANE('',#1369);
#1197=PLANE('',#1372);
#1198=PLANE('',#1377);
#1199=PLANE('',#1378);
#1200=PLANE('',#1381);
#1201=PLANE('',#1382);
#1202=PLANE('',#1386);
#1203=ADVANCED_FACE('',(#1042),#1150,.F.);
#1204=ADVANCED_FACE('',(#1043),#1151,.T.);
#1205=ADVANCED_FACE('',(#1044),#1152,.T.);
#1206=ADVANCED_FACE('',(#1045),#1153,.F.);
#1207=ADVANCED_FACE('',(#1046),#1154,.T.);
#1208=ADVANCED_FACE('',(#1047),#1155,.F.);
#1209=ADVANCED_FACE('',(#1048),#1156,.F.);
#1210=ADVANCED_FACE('',(#1049),#1157,.F.);
#1211=ADVANCED_FACE('',(#1050),#1158,.F.);
#1212=ADVANCED_FACE('',(#1051),#1159,.F.);
#1213=ADVANCED_FACE('',(#1052,#1053,#1054,#1055,#1056,#1057,#1058,#1059,
#1060),#1160,.F.);
#1214=ADVANCED_FACE('',(#1061,#1062,#1063,#1064,#1065,#1066,#1067,#1068),
#1161,.T.);
#1215=ADVANCED_FACE('',(#1069),#1162,.T.);
#1216=ADVANCED_FACE('',(#1070),#1163,.T.);
#1217=ADVANCED_FACE('',(#1071),#1164,.F.);
#1218=ADVANCED_FACE('',(#1072),#1165,.F.);
#1219=ADVANCED_FACE('',(#1073),#1166,.T.);
#1220=ADVANCED_FACE('',(#1074,#1075),#14,.T.);
#1221=ADVANCED_FACE('',(#1076,#1077),#1167,.T.);
#1222=ADVANCED_FACE('',(#1078,#1079),#15,.T.);
#1223=ADVANCED_FACE('',(#1080,#1081),#1168,.T.);
#1224=ADVANCED_FACE('',(#1082,#1083),#16,.T.);
#1225=ADVANCED_FACE('',(#1084,#1085),#1169,.T.);
#1226=ADVANCED_FACE('',(#1086,#1087),#17,.T.);
#1227=ADVANCED_FACE('',(#1088,#1089),#1170,.T.);
#1228=ADVANCED_FACE('',(#1090),#1171,.T.);
#1229=ADVANCED_FACE('',(#1091,#1092),#18,.T.);
#1230=ADVANCED_FACE('',(#1093),#1172,.T.);
#1231=ADVANCED_FACE('',(#1094,#1095),#19,.T.);
#1232=ADVANCED_FACE('',(#1096),#1173,.T.);
#1233=ADVANCED_FACE('',(#1097,#1098),#20,.T.);
#1234=ADVANCED_FACE('',(#1099),#1174,.T.);
#1235=ADVANCED_FACE('',(#1100,#1101),#21,.T.);
#1236=ADVANCED_FACE('',(#1102),#1175,.T.);
#1237=ADVANCED_FACE('',(#1103),#1176,.T.);
#1238=ADVANCED_FACE('',(#1104),#1177,.T.);
#1239=ADVANCED_FACE('',(#1105),#1178,.T.);
#1240=ADVANCED_FACE('',(#1106),#1179,.T.);
#1241=ADVANCED_FACE('',(#1107),#1180,.F.);
#1242=ADVANCED_FACE('',(#1108,#1109,#1110,#1111),#1181,.T.);
#1243=ADVANCED_FACE('',(#1112),#1182,.T.);
#1244=ADVANCED_FACE('',(#1113),#1183,.F.);
#1245=ADVANCED_FACE('',(#1114),#1184,.F.);
#1246=ADVANCED_FACE('',(#1115),#1185,.T.);
#1247=ADVANCED_FACE('',(#1116,#1117),#1186,.T.);
#1248=ADVANCED_FACE('',(#1118),#1187,.T.);
#1249=ADVANCED_FACE('',(#1119),#1188,.F.);
#1250=ADVANCED_FACE('',(#1120),#1189,.F.);
#1251=ADVANCED_FACE('',(#1121),#1190,.T.);
#1252=ADVANCED_FACE('',(#1122,#1123),#1191,.T.);
#1253=ADVANCED_FACE('',(#1124),#1192,.T.);
#1254=ADVANCED_FACE('',(#1125),#1193,.F.);
#1255=ADVANCED_FACE('',(#1126),#1194,.F.);
#1256=ADVANCED_FACE('',(#1127),#1195,.T.);
#1257=ADVANCED_FACE('',(#1128,#1129),#1196,.T.);
#1258=ADVANCED_FACE('',(#1130,#1131),#22,.F.);
#1259=ADVANCED_FACE('',(#1132),#23,.T.);
#1260=ADVANCED_FACE('',(#1133),#1197,.T.);
#1261=ADVANCED_FACE('',(#1134),#24,.T.);
#1262=ADVANCED_FACE('',(#1135,#1136),#25,.F.);
#1263=ADVANCED_FACE('',(#1137),#1198,.T.);
#1264=ADVANCED_FACE('',(#1138),#1199,.F.);
#1265=ADVANCED_FACE('',(#1139),#26,.T.);
#1266=ADVANCED_FACE('',(#1140,#1141),#27,.F.);
#1267=ADVANCED_FACE('',(#1142),#1200,.F.);
#1268=ADVANCED_FACE('',(#1143),#1201,.T.);
#1269=ADVANCED_FACE('',(#1144,#1145),#28,.F.);
#1270=ADVANCED_FACE('',(#1146),#1202,.T.);
#1271=ADVANCED_FACE('',(#1147),#29,.T.);
#1272=ADVANCED_FACE('',(#1148),#12,.F.);
#1273=ADVANCED_FACE('',(#1149),#13,.F.);
#1274=CLOSED_SHELL('',(#1203,#1204,#1205,#1206,#1207,#1208,#1209,#1210,
#1211,#1212,#1213,#1214,#1215,#1216,#1217,#1218,#1219,#1220,#1221,#1222,
#1223,#1224,#1225,#1226,#1227,#1228,#1229,#1230,#1231,#1232,#1233,#1234,
#1235,#1236,#1237,#1238,#1239,#1240,#1241,#1242,#1243,#1244,#1245,#1246,
#1247,#1248,#1249,#1250,#1251,#1252,#1253,#1254,#1255,#1256,#1257,#1258,
#1259,#1260,#1261,#1262,#1263,#1264,#1265,#1266,#1267,#1268,#1269,#1270,
#1271,#1272,#1273));
#1275=STYLED_ITEM('',(#1276),#1283);
#1276=PRESENTATION_STYLE_ASSIGNMENT((#1277));
#1277=SURFACE_STYLE_USAGE(.BOTH.,#1278);
#1278=SURFACE_SIDE_STYLE('',(#1279));
#1279=SURFACE_STYLE_FILL_AREA(#1280);
#1280=FILL_AREA_STYLE('',(#1281));
#1281=FILL_AREA_STYLE_COLOUR('',#1282);
#1282=COLOUR_RGB('',0.615686274509804,0.811764705882353,0.929411764705882);
#1283=MANIFOLD_SOLID_BREP('Top',#1274);
#1284=SHAPE_DEFINITION_REPRESENTATION(#2154,#1285);
#1285=SHAPE_REPRESENTATION('Top',(#1286),#2149);
#1286=AXIS2_PLACEMENT_3D('',#1714,#1388,#1389);
#1287=AXIS2_PLACEMENT_3D('',#1715,#1390,#1391);
#1288=AXIS2_PLACEMENT_3D('',#1735,#1399,#1400);
#1289=AXIS2_PLACEMENT_3D('',#1755,#1408,#1409);
#1290=AXIS2_PLACEMENT_3D('',#1764,#1414,#1415);
#1291=AXIS2_PLACEMENT_3D('',#1770,#1419,#1420);
#1292=AXIS2_PLACEMENT_3D('',#1776,#1424,#1425);
#1293=AXIS2_PLACEMENT_3D('',#1779,#1428,#1429);
#1294=AXIS2_PLACEMENT_3D('',#1788,#1434,#1435);
#1295=AXIS2_PLACEMENT_3D('',#1794,#1439,#1440);
#1296=AXIS2_PLACEMENT_3D('',#1803,#1445,#1446);
#1297=AXIS2_PLACEMENT_3D('',#1809,#1450,#1451);
#1298=AXIS2_PLACEMENT_3D('',#1813,#1453,#1454);
#1299=AXIS2_PLACEMENT_3D('',#1818,#1457,#1458);
#1300=AXIS2_PLACEMENT_3D('',#1822,#1460,#1461);
#1301=AXIS2_PLACEMENT_3D('',#1827,#1464,#1465);
#1302=AXIS2_PLACEMENT_3D('',#1860,#1482,#1483);
#1303=AXIS2_PLACEMENT_3D('',#1862,#1484,#1485);
#1304=AXIS2_PLACEMENT_3D('',#1864,#1486,#1487);
#1305=AXIS2_PLACEMENT_3D('',#1866,#1488,#1489);
#1306=AXIS2_PLACEMENT_3D('',#1868,#1490,#1491);
#1307=AXIS2_PLACEMENT_3D('',#1872,#1494,#1495);
#1308=AXIS2_PLACEMENT_3D('',#1876,#1497,#1498);
#1309=AXIS2_PLACEMENT_3D('',#1879,#1500,#1501);
#1310=AXIS2_PLACEMENT_3D('',#1881,#1502,#1503);
#1311=AXIS2_PLACEMENT_3D('',#1883,#1504,#1505);
#1312=AXIS2_PLACEMENT_3D('',#1885,#1506,#1507);
#1313=AXIS2_PLACEMENT_3D('',#1895,#1512,#1513);
#1314=AXIS2_PLACEMENT_3D('',#1897,#1514,#1515);
#1315=AXIS2_PLACEMENT_3D('',#1899,#1516,#1517);
#1316=AXIS2_PLACEMENT_3D('',#1902,#1520,#1521);
#1317=AXIS2_PLACEMENT_3D('',#1905,#1524,#1525);
#1318=AXIS2_PLACEMENT_3D('',#1907,#1527,#1528);
#1319=AXIS2_PLACEMENT_3D('',#1909,#1530,#1531);
#1320=AXIS2_PLACEMENT_3D('',#1910,#1532,#1533);
#1321=AXIS2_PLACEMENT_3D('',#1911,#1534,#1535);
#1322=AXIS2_PLACEMENT_3D('',#1913,#1536,#1537);
#1323=AXIS2_PLACEMENT_3D('',#1914,#1538,#1539);
#1324=AXIS2_PLACEMENT_3D('',#1916,#1540,#1541);
#1325=AXIS2_PLACEMENT_3D('',#1917,#1542,#1543);
#1326=AXIS2_PLACEMENT_3D('',#1919,#1544,#1545);
#1327=AXIS2_PLACEMENT_3D('',#1920,#1546,#1547);
#1328=AXIS2_PLACEMENT_3D('',#1922,#1548,#1549);
#1329=AXIS2_PLACEMENT_3D('',#1923,#1550,#1551);
#1330=AXIS2_PLACEMENT_3D('',#1925,#1552,#1553);
#1331=AXIS2_PLACEMENT_3D('',#1926,#1554,#1555);
#1332=AXIS2_PLACEMENT_3D('',#1928,#1556,#1557);
#1333=AXIS2_PLACEMENT_3D('',#1929,#1558,#1559);
#1334=AXIS2_PLACEMENT_3D('',#1931,#1560,#1561);
#1335=AXIS2_PLACEMENT_3D('',#1932,#1562,#1563);
#1336=AXIS2_PLACEMENT_3D('',#1934,#1564,#1565);
#1337=AXIS2_PLACEMENT_3D('',#1935,#1566,#1567);
#1338=AXIS2_PLACEMENT_3D('',#1937,#1568,#1569);
#1339=AXIS2_PLACEMENT_3D('',#1938,#1570,#1571);
#1340=AXIS2_PLACEMENT_3D('',#1939,#1572,#1573);
#1341=AXIS2_PLACEMENT_3D('',#1941,#1574,#1575);
#1342=AXIS2_PLACEMENT_3D('',#1942,#1576,#1577);
#1343=AXIS2_PLACEMENT_3D('',#1943,#1578,#1579);
#1344=AXIS2_PLACEMENT_3D('',#1945,#1580,#1581);
#1345=AXIS2_PLACEMENT_3D('',#1946,#1582,#1583);
#1346=AXIS2_PLACEMENT_3D('',#1947,#1584,#1585);
#1347=AXIS2_PLACEMENT_3D('',#1949,#1586,#1587);
#1348=AXIS2_PLACEMENT_3D('',#1950,#1588,#1589);
#1349=AXIS2_PLACEMENT_3D('',#1956,#1593,#1594);
#1350=AXIS2_PLACEMENT_3D('',#1962,#1598,#1599);
#1351=AXIS2_PLACEMENT_3D('',#1986,#1605,#1606);
#1352=AXIS2_PLACEMENT_3D('',#1989,#1609,#1610);
#1353=AXIS2_PLACEMENT_3D('',#1992,#1613,#1614);
#1354=AXIS2_PLACEMENT_3D('',#1994,#1616,#1617);
#1355=AXIS2_PLACEMENT_3D('',#1995,#1618,#1619);
#1356=AXIS2_PLACEMENT_3D('',#2001,#1623,#1624);
#1357=AXIS2_PLACEMENT_3D('',#2005,#1627,#1628);
#1358=AXIS2_PLACEMENT_3D('',#2009,#1631,#1632);
#1359=AXIS2_PLACEMENT_3D('',#2011,#1634,#1635);
#1360=AXIS2_PLACEMENT_3D('',#2012,#1636,#1637);
#1361=AXIS2_PLACEMENT_3D('',#2018,#1641,#1642);
#1362=AXIS2_PLACEMENT_3D('',#2022,#1645,#1646);
#1363=AXIS2_PLACEMENT_3D('',#2026,#1649,#1650);
#1364=AXIS2_PLACEMENT_3D('',#2028,#1652,#1653);
#1365=AXIS2_PLACEMENT_3D('',#2029,#1654,#1655);
#1366=AXIS2_PLACEMENT_3D('',#2035,#1659,#1660);
#1367=AXIS2_PLACEMENT_3D('',#2039,#1663,#1664);
#1368=AXIS2_PLACEMENT_3D('',#2043,#1667,#1668);
#1369=AXIS2_PLACEMENT_3D('',#2045,#1670,#1671);
#1370=AXIS2_PLACEMENT_3D('',#2046,#1672,#1673);
#1371=AXIS2_PLACEMENT_3D('',#2047,#1674,#1675);
#1372=AXIS2_PLACEMENT_3D('',#2049,#1677,#1678);
#1373=AXIS2_PLACEMENT_3D('',#2050,#1679,#1680);
#1374=AXIS2_PLACEMENT_3D('',#2051,#1681,#1682);
#1375=AXIS2_PLACEMENT_3D('',#2054,#1684,#1685);
#1376=AXIS2_PLACEMENT_3D('',#2055,#1686,#1687);
#1377=AXIS2_PLACEMENT_3D('',#2062,#1688,#1689);
#1378=AXIS2_PLACEMENT_3D('',#2073,#1691,#1692);
#1379=AXIS2_PLACEMENT_3D('',#2081,#1693,#1694);
#1380=AXIS2_PLACEMENT_3D('',#2083,#1696,#1697);
#1381=AXIS2_PLACEMENT_3D('',#2084,#1698,#1699);
#1382=AXIS2_PLACEMENT_3D('',#2085,#1700,#1701);
#1383=AXIS2_PLACEMENT_3D('',#2094,#1703,#1704);
#1384=AXIS2_PLACEMENT_3D('',#2100,#1705,#1706);
#1385=AXIS2_PLACEMENT_3D('',#2101,#1707,#1708);
#1386=AXIS2_PLACEMENT_3D('',#2106,#1709,#1710);
#1387=AXIS2_PLACEMENT_3D('',#2115,#1712,#1713);
#1388=DIRECTION('',(0.,0.,1.));
#1389=DIRECTION('',(1.,0.,0.));
#1390=DIRECTION('',(-1.,0.,0.));
#1391=DIRECTION('',(0.,0.,1.));
#1392=DIRECTION('',(0.,0.,1.));
#1393=DIRECTION('',(0.,0.,1.));
#1394=DIRECTION('',(0.,-1.,0.));
#1395=DIRECTION('',(0.,0.,1.));
#1396=DIRECTION('',(0.,-1.,0.));
#1397=DIRECTION('',(0.,0.,-1.));
#1398=DIRECTION('',(0.,1.,0.));
#1399=DIRECTION('',(-1.,0.,0.));
#1400=DIRECTION('',(0.,0.,1.));
#1401=DIRECTION('',(0.,0.,1.));
#1402=DIRECTION('',(0.,0.,1.));
#1403=DIRECTION('',(0.,-1.,0.));
#1404=DIRECTION('',(0.,0.,-1.));
#1405=DIRECTION('',(0.,-1.,0.));
#1406=DIRECTION('',(0.,0.,1.));
#1407=DIRECTION('',(0.,-1.,0.));
#1408=DIRECTION('',(-1.,-4.39170500247293E-16,0.));
#1409=DIRECTION('',(4.39170500247293E-16,-1.,0.));
#1410=DIRECTION('',(0.,0.,1.));
#1411=DIRECTION('',(4.39170500247293E-16,-1.,0.));
#1412=DIRECTION('',(0.,0.,1.));
#1413=DIRECTION('',(4.39170500247293E-16,-1.,0.));
#1414=DIRECTION('',(0.,1.,0.));
#1415=DIRECTION('',(0.,0.,1.));
#1416=DIRECTION('',(-1.,0.,0.));
#1417=DIRECTION('',(-1.,0.,0.));
#1418=DIRECTION('',(0.,0.,1.));
#1419=DIRECTION('',(0.,1.,0.));
#1420=DIRECTION('',(0.,0.,1.));
#1421=DIRECTION('',(-1.,0.,0.));
#1422=DIRECTION('',(0.,0.,1.));
#1423=DIRECTION('',(-1.,0.,0.));
#1424=DIRECTION('',(-1.,0.,0.));
#1425=DIRECTION('',(0.,0.,1.));
#1426=DIRECTION('',(0.,-1.,0.));
#1427=DIRECTION('',(0.,-1.,0.));
#1428=DIRECTION('',(-2.19585250123647E-16,1.,0.));
#1429=DIRECTION('',(-1.,-2.19585250123647E-16,0.));
#1430=DIRECTION('',(-1.,-2.19585250123647E-16,0.));
#1431=DIRECTION('',(0.,0.,1.));
#1432=DIRECTION('',(-1.,-2.19585250123647E-16,0.));
#1433=DIRECTION('',(0.,0.,1.));
#1434=DIRECTION('',(-1.,0.,0.));
#1435=DIRECTION('',(0.,0.,1.));
#1436=DIRECTION('',(0.,-1.,0.));
#1437=DIRECTION('',(0.,-1.,0.));
#1438=DIRECTION('',(0.,0.,1.));
#1439=DIRECTION('',(-2.19585250123647E-16,1.,0.));
#1440=DIRECTION('',(-1.,-2.19585250123647E-16,0.));
#1441=DIRECTION('',(-1.,-2.19585250123647E-16,0.));
#1442=DIRECTION('',(0.,0.,1.));
#1443=DIRECTION('',(-1.,-2.19585250123647E-16,0.));
#1444=DIRECTION('',(0.,0.,1.));
#1445=DIRECTION('',(-1.,0.,0.));
#1446=DIRECTION('',(0.,0.,1.));
#1447=DIRECTION('',(0.,-1.,0.));
#1448=DIRECTION('',(0.,-1.,0.));
#1449=DIRECTION('',(0.,0.,1.));
#1450=DIRECTION('',(0.,0.,1.));
#1451=DIRECTION('',(1.,0.,0.));
#1452=DIRECTION('',(-1.,0.,0.));
#1453=DIRECTION('',(0.,0.,1.));
#1454=DIRECTION('',(1.,0.,0.));
#1455=DIRECTION('',(1.,0.,0.));
#1456=DIRECTION('',(1.,0.,0.));
#1457=DIRECTION('',(0.,0.,1.));
#1458=DIRECTION('',(1.,0.,0.));
#1459=DIRECTION('',(-1.,-5.45296181053613E-16,0.));
#1460=DIRECTION('',(0.,0.,1.));
#1461=DIRECTION('',(1.,0.,0.));
#1462=DIRECTION('',(-1.,0.,0.));
#1463=DIRECTION('',(-1.,0.,0.));
#1464=DIRECTION('',(0.,0.,1.));
#1465=DIRECTION('',(1.,0.,0.));
#1466=DIRECTION('',(0.,-1.,0.));
#1467=DIRECTION('',(-1.,0.,0.));
#1468=DIRECTION('',(0.,-1.,0.));
#1469=DIRECTION('',(-1.,0.,0.));
#1470=DIRECTION('',(0.,1.,0.));
#1471=DIRECTION('',(1.,0.,0.));
#1472=DIRECTION('',(0.,1.,0.));
#1473=DIRECTION('',(1.,0.,0.));
#1474=DIRECTION('',(6.28522998542322E-17,1.,0.));
#1475=DIRECTION('',(1.,0.,0.));
#1476=DIRECTION('',(6.28522998542321E-17,1.,0.));
#1477=DIRECTION('',(1.,0.,0.));
#1478=DIRECTION('',(0.,1.,0.));
#1479=DIRECTION('',(1.,0.,0.));
#1480=DIRECTION('',(0.,1.,0.));
#1481=DIRECTION('',(1.,0.,0.));
#1482=DIRECTION('',(0.,0.,1.));
#1483=DIRECTION('',(1.,0.,0.));
#1484=DIRECTION('',(0.,0.,1.));
#1485=DIRECTION('',(1.,0.,0.));
#1486=DIRECTION('',(0.,0.,1.));
#1487=DIRECTION('',(1.,0.,0.));
#1488=DIRECTION('',(0.,0.,1.));
#1489=DIRECTION('',(1.,0.,0.));
#1490=DIRECTION('',(0.,0.,1.));
#1491=DIRECTION('',(1.,0.,0.));
#1492=DIRECTION('',(-1.,0.,0.));
#1493=DIRECTION('',(-1.,0.,0.));
#1494=DIRECTION('',(0.,0.,1.));
#1495=DIRECTION('',(1.,0.,0.));
#1496=DIRECTION('',(-1.,0.,0.));
#1497=DIRECTION('',(0.,0.,-1.));
#1498=DIRECTION('',(1.,0.,0.));
#1499=DIRECTION('',(1.,0.,0.));
#1500=DIRECTION('',(0.,0.,1.));
#1501=DIRECTION('',(1.,0.,0.));
#1502=DIRECTION('',(0.,0.,1.));
#1503=DIRECTION('',(1.,0.,0.));
#1504=DIRECTION('',(0.,0.,1.));
#1505=DIRECTION('',(1.,0.,0.));
#1506=DIRECTION('',(0.,0.,1.));
#1507=DIRECTION('',(1.,0.,0.));
#1508=DIRECTION('',(-1.,0.,0.));
#1509=DIRECTION('',(0.,-1.,0.));
#1510=DIRECTION('',(-1.,0.,0.));
#1511=DIRECTION('',(0.,-1.,0.));
#1512=DIRECTION('',(0.,0.,-1.));
#1513=DIRECTION('',(1.,0.,0.));
#1514=DIRECTION('',(0.,0.,1.));
#1515=DIRECTION('',(1.,0.,0.));
#1516=DIRECTION('',(0.,1.,0.));
#1517=DIRECTION('',(0.,0.,1.));
#1518=DIRECTION('',(0.,0.,1.));
#1519=DIRECTION('',(0.,0.,1.));
#1520=DIRECTION('',(-1.,0.,0.));
#1521=DIRECTION('',(0.,0.,1.));
#1522=DIRECTION('',(0.,0.,1.));
#1523=DIRECTION('',(0.,0.,1.));
#1524=DIRECTION('',(0.,1.,0.));
#1525=DIRECTION('',(0.,0.,1.));
#1526=DIRECTION('',(0.,0.,1.));
#1527=DIRECTION('',(-1.,0.,0.));
#1528=DIRECTION('',(0.,0.,1.));
#1529=DIRECTION('',(0.,0.,1.));
#1530=DIRECTION('',(0.,1.,0.));
#1531=DIRECTION('',(0.,0.,1.));
#1532=DIRECTION('',(0.,0.,-1.));
#1533=DIRECTION('',(-1.,0.,0.));
#1534=DIRECTION('',(0.,0.,1.));
#1535=DIRECTION('',(1.,0.,0.));
#1536=DIRECTION('',(0.,0.,1.));
#1537=DIRECTION('',(1.,0.,0.));
#1538=DIRECTION('',(0.,0.,1.));
#1539=DIRECTION('',(1.,0.,0.));
#1540=DIRECTION('',(0.,0.,-1.));
#1541=DIRECTION('',(-1.,0.,0.));
#1542=DIRECTION('',(0.,0.,1.));
#1543=DIRECTION('',(1.,0.,0.));
#1544=DIRECTION('',(0.,0.,1.));
#1545=DIRECTION('',(1.,0.,0.));
#1546=DIRECTION('',(0.,0.,1.));
#1547=DIRECTION('',(1.,0.,0.));
#1548=DIRECTION('',(0.,0.,-1.));
#1549=DIRECTION('',(-1.,0.,0.));
#1550=DIRECTION('',(0.,0.,1.));
#1551=DIRECTION('',(1.,0.,0.));
#1552=DIRECTION('',(0.,0.,1.));
#1553=DIRECTION('',(1.,0.,0.));
#1554=DIRECTION('',(0.,0.,1.));
#1555=DIRECTION('',(1.,0.,0.));
#1556=DIRECTION('',(0.,0.,-1.));
#1557=DIRECTION('',(-1.,0.,0.));
#1558=DIRECTION('',(0.,0.,1.));
#1559=DIRECTION('',(1.,0.,0.));
#1560=DIRECTION('',(0.,0.,1.));
#1561=DIRECTION('',(1.,0.,0.));
#1562=DIRECTION('',(0.,0.,1.));
#1563=DIRECTION('',(1.,0.,0.));
#1564=DIRECTION('',(0.,0.,1.));
#1565=DIRECTION('',(1.,0.,0.));
#1566=DIRECTION('',(0.,0.,1.));
#1567=DIRECTION('',(1.,0.,0.));
#1568=DIRECTION('',(0.,0.,-1.));
#1569=DIRECTION('',(-1.,0.,0.));
#1570=DIRECTION('',(0.,0.,1.));
#1571=DIRECTION('',(1.,0.,0.));
#1572=DIRECTION('',(0.,0.,1.));
#1573=DIRECTION('',(1.,0.,0.));
#1574=DIRECTION('',(0.,0.,-1.));
#1575=DIRECTION('',(-1.,0.,0.));
#1576=DIRECTION('',(0.,0.,1.));
#1577=DIRECTION('',(1.,0.,0.));
#1578=DIRECTION('',(0.,0.,1.));
#1579=DIRECTION('',(1.,0.,0.));
#1580=DIRECTION('',(0.,0.,-1.));
#1581=DIRECTION('',(-1.,0.,0.));
#1582=DIRECTION('',(0.,0.,1.));
#1583=DIRECTION('',(1.,0.,0.));
#1584=DIRECTION('',(0.,0.,1.));
#1585=DIRECTION('',(1.,0.,0.));
#1586=DIRECTION('',(0.,0.,-1.));
#1587=DIRECTION('',(-1.,0.,0.));
#1588=DIRECTION('',(-4.39170500247293E-16,1.,0.));
#1589=DIRECTION('',(-1.,-4.39170500247293E-16,0.));
#1590=DIRECTION('',(1.,8.78341000494585E-16,0.));
#1591=DIRECTION('',(-1.,-4.39170500247293E-16,0.));
#1592=DIRECTION('',(0.,0.,1.));
#1593=DIRECTION('',(-4.39170500247293E-16,1.,0.));
#1594=DIRECTION('',(-1.,-4.39170500247293E-16,0.));
#1595=DIRECTION('',(1.,4.39170500247293E-16,0.));
#1596=DIRECTION('',(-1.,-4.39170500247293E-16,0.));
#1597=DIRECTION('',(0.,0.,1.));
#1598=DIRECTION('',(5.45296181053613E-16,-1.,0.));
#1599=DIRECTION('',(1.,5.45296181053613E-16,0.));
#1600=DIRECTION('',(0.,0.,1.));
#1601=DIRECTION('',(1.,-2.83220159343153E-15,0.));
#1602=DIRECTION('',(1.,5.45296181053613E-16,0.));
#1603=DIRECTION('',(-1.,-2.83220159343153E-15,0.));
#1604=DIRECTION('',(0.,0.,1.));
#1605=DIRECTION('',(-1.,0.,0.));
#1606=DIRECTION('',(0.,0.,1.));
#1607=DIRECTION('',(0.,1.,0.));
#1608=DIRECTION('',(0.,-1.,0.));
#1609=DIRECTION('',(-1.,-2.19585250123647E-16,0.));
#1610=DIRECTION('',(2.19585250123647E-16,-1.,0.));
#1611=DIRECTION('',(-2.19585250123647E-16,1.,0.));
#1612=DIRECTION('',(2.19585250123647E-16,-1.,0.));
#1613=DIRECTION('',(0.,-1.,0.));
#1614=DIRECTION('',(0.,0.,-1.));
#1615=DIRECTION('',(-1.,0.,0.));
#1616=DIRECTION('',(0.,0.,1.));
#1617=DIRECTION('',(1.,0.,0.));
#1618=DIRECTION('',(0.,-1.,0.));
#1619=DIRECTION('',(0.,0.,-1.));
#1620=DIRECTION('',(0.,0.,-1.));
#1621=DIRECTION('',(0.,0.,-1.));
#1622=DIRECTION('',(-1.,0.,0.));
#1623=DIRECTION('',(1.,-6.28522998542321E-17,0.));
#1624=DIRECTION('',(6.28522998542321E-17,1.,0.));
#1625=DIRECTION('',(0.,0.,-1.));
#1626=DIRECTION('',(-6.28522998542321E-17,-1.,0.));
#1627=DIRECTION('',(0.,-1.,0.));
#1628=DIRECTION('',(0.,0.,-1.));
#1629=DIRECTION('',(0.,0.,-1.));
#1630=DIRECTION('',(-1.,0.,0.));
#1631=DIRECTION('',(1.,-6.28522998542322E-17,0.));
#1632=DIRECTION('',(6.28522998542322E-17,1.,0.));
#1633=DIRECTION('',(-6.28522998542322E-17,-1.,0.));
#1634=DIRECTION('',(0.,0.,1.));
#1635=DIRECTION('',(1.,0.,0.));
#1636=DIRECTION('',(0.,-1.,0.));
#1637=DIRECTION('',(0.,0.,-1.));
#1638=DIRECTION('',(0.,0.,-1.));
#1639=DIRECTION('',(0.,0.,-1.));
#1640=DIRECTION('',(-1.,0.,0.));
#1641=DIRECTION('',(1.,0.,0.));
#1642=DIRECTION('',(0.,0.,-1.));
#1643=DIRECTION('',(0.,0.,-1.));
#1644=DIRECTION('',(0.,-1.,0.));
#1645=DIRECTION('',(0.,-1.,0.));
#1646=DIRECTION('',(0.,0.,-1.));
#1647=DIRECTION('',(0.,0.,-1.));
#1648=DIRECTION('',(-1.,0.,0.));
#1649=DIRECTION('',(1.,0.,0.));
#1650=DIRECTION('',(0.,0.,-1.));
#1651=DIRECTION('',(0.,-1.,0.));
#1652=DIRECTION('',(0.,0.,1.));
#1653=DIRECTION('',(1.,0.,0.));
#1654=DIRECTION('',(0.,-1.,0.));
#1655=DIRECTION('',(0.,0.,-1.));
#1656=DIRECTION('',(0.,0.,-1.));
#1657=DIRECTION('',(0.,0.,-1.));
#1658=DIRECTION('',(-1.,0.,0.));
#1659=DIRECTION('',(1.,0.,0.));
#1660=DIRECTION('',(0.,0.,-1.));
#1661=DIRECTION('',(0.,0.,-1.));
#1662=DIRECTION('',(0.,-1.,0.));
#1663=DIRECTION('',(0.,-1.,0.));
#1664=DIRECTION('',(0.,0.,-1.));
#1665=DIRECTION('',(0.,0.,-1.));
#1666=DIRECTION('',(-1.,0.,0.));
#1667=DIRECTION('',(1.,0.,0.));
#1668=DIRECTION('',(0.,0.,-1.));
#1669=DIRECTION('',(0.,-1.,0.));
#1670=DIRECTION('',(0.,0.,1.));
#1671=DIRECTION('',(1.,0.,0.));
#1672=DIRECTION('',(0.,0.,1.));
#1673=DIRECTION('',(1.,0.,0.));
#1674=DIRECTION('',(0.,0.,1.));
#1675=DIRECTION('',(1.,0.,0.));
#1676=DIRECTION('',(0.,0.,1.));
#1677=DIRECTION('',(0.,-1.,0.));
#1678=DIRECTION('',(0.,0.,-1.));
#1679=DIRECTION('',(0.,0.,1.));
#1680=DIRECTION('',(1.,0.,0.));
#1681=DIRECTION('',(0.,0.,1.));
#1682=DIRECTION('',(1.,0.,0.));
#1683=DIRECTION('',(0.,0.,1.));
#1684=DIRECTION('',(0.,0.,1.));
#1685=DIRECTION('',(1.,0.,0.));
#1686=DIRECTION('',(0.,0.,1.));
#1687=DIRECTION('',(1.,0.,0.));
#1688=DIRECTION('',(0.,0.,1.));
#1689=DIRECTION('',(1.,0.,0.));
#1690=DIRECTION('',(1.,0.,0.));
#1691=DIRECTION('',(0.,-1.,0.));
#1692=DIRECTION('',(0.,0.,-1.));
#1693=DIRECTION('',(0.,0.,1.));
#1694=DIRECTION('',(1.,0.,0.));
#1695=DIRECTION('',(0.,0.,1.));
#1696=DIRECTION('',(0.,0.,1.));
#1697=DIRECTION('',(1.,0.,0.));
#1698=DIRECTION('',(0.,1.,0.));
#1699=DIRECTION('',(0.,0.,1.));
#1700=DIRECTION('',(0.,0.,1.));
#1701=DIRECTION('',(1.,0.,0.));
#1702=DIRECTION('',(-1.,0.,0.));
#1703=DIRECTION('',(0.,0.,-1.));
#1704=DIRECTION('',(1.,0.,0.));
#1705=DIRECTION('',(0.,0.,-1.));
#1706=DIRECTION('',(1.,0.,0.));
#1707=DIRECTION('',(0.,0.,1.));
#1708=DIRECTION('',(1.,0.,0.));
#1709=DIRECTION('',(0.,1.,0.));
#1710=DIRECTION('',(0.,0.,1.));
#1711=DIRECTION('',(0.,0.,1.));
#1712=DIRECTION('',(0.,0.,1.));
#1713=DIRECTION('',(1.,0.,0.));
#1714=CARTESIAN_POINT('',(0.,0.,0.));
#1715=CARTESIAN_POINT('',(0.0509,0.,-0.003));
#1716=CARTESIAN_POINT('',(0.0509,-0.04855,-0.003002));
#1717=CARTESIAN_POINT('',(0.0509,-0.04855,0.00217279220613578));
#1718=CARTESIAN_POINT('',(0.0509,-0.04855,0.005));
#1719=CARTESIAN_POINT('',(0.0509,-0.04855,0.00217279220613579));
#1720=CARTESIAN_POINT('',(0.0509,-0.0452833333333333,0.00217279220613579));
#1721=CARTESIAN_POINT('',(0.0509,-0.0420166666666667,0.00217279220613579));
#1722=CARTESIAN_POINT('',(0.0509,-0.03875,0.00217279220613579));
#1723=CARTESIAN_POINT('',(0.0509,-0.03875,0.00217279220613578));
#1724=CARTESIAN_POINT('',(0.0509,-0.03875,-0.003002));
#1725=CARTESIAN_POINT('',(0.0509,-0.03875,-0.003));
#1726=CARTESIAN_POINT('',(0.0509,0.,-0.003));
#1727=CARTESIAN_POINT('',(0.0509,0.01395,-0.003));
#1728=CARTESIAN_POINT('',(0.0509,0.01395,-0.003002));
#1729=CARTESIAN_POINT('',(0.0509,0.01395,0.));
#1730=CARTESIAN_POINT('',(0.0509,0.,0.));
#1731=CARTESIAN_POINT('',(0.0509,-0.02375,0.));
#1732=CARTESIAN_POINT('',(0.0509,-0.02375,0.005));
#1733=CARTESIAN_POINT('',(0.0509,-0.02375,0.005));
#1734=CARTESIAN_POINT('',(0.0509,-0.03615,0.005));
#1735=CARTESIAN_POINT('',(-0.0509,0.,-0.003));
#1736=CARTESIAN_POINT('',(-0.0509,-0.03875,-0.003002));
#1737=CARTESIAN_POINT('',(-0.0509,-0.03875,-0.003));
#1738=CARTESIAN_POINT('',(-0.0509,-0.03875,0.00217279220613578));
#1739=CARTESIAN_POINT('',(-0.0509,-0.03875,0.00217279220613579));
#1740=CARTESIAN_POINT('',(-0.0509,-0.0420166666666667,0.00217279220613579));
#1741=CARTESIAN_POINT('',(-0.0509,-0.0452833333333333,0.00217279220613579));
#1742=CARTESIAN_POINT('',(-0.0509,-0.04855,0.00217279220613579));
#1743=CARTESIAN_POINT('',(-0.0509,-0.04855,0.00217279220613578));
#1744=CARTESIAN_POINT('',(-0.0509,-0.04855,-0.003002));
#1745=CARTESIAN_POINT('',(-0.0509,-0.04855,0.005));
#1746=CARTESIAN_POINT('',(-0.0509,-0.03615,0.005));
#1747=CARTESIAN_POINT('',(-0.0509,-0.02375,0.005));
#1748=CARTESIAN_POINT('',(-0.0509,-0.02375,0.005));
#1749=CARTESIAN_POINT('',(-0.0509,-0.02375,0.));
#1750=CARTESIAN_POINT('',(-0.0509,0.,0.));
#1751=CARTESIAN_POINT('',(-0.0509,0.01395,0.));
#1752=CARTESIAN_POINT('',(-0.0509,0.01395,-0.003002));
#1753=CARTESIAN_POINT('',(-0.0509,0.01395,-0.003));
#1754=CARTESIAN_POINT('',(-0.0509,0.,-0.003));
#1755=CARTESIAN_POINT('',(-0.0271,-0.03565,-0.003002));
#1756=CARTESIAN_POINT('',(-0.0271,-0.02775,-0.003002));
#1757=CARTESIAN_POINT('',(-0.0271,-0.02775,0.0024));
#1758=CARTESIAN_POINT('',(-0.0271,-0.02775,0.005));
#1759=CARTESIAN_POINT('',(-0.0271,-0.03565,0.0024));
#1760=CARTESIAN_POINT('',(-0.0271,-0.04355,0.0024));
#1761=CARTESIAN_POINT('',(-0.0271,-0.04355,-0.003002));
#1762=CARTESIAN_POINT('',(-0.0271,-0.04355,0.005));
#1763=CARTESIAN_POINT('',(-0.0271,-0.03565,0.005));
#1764=CARTESIAN_POINT('',(-0.035,-0.02775,-0.003002));
#1765=CARTESIAN_POINT('',(-0.035,-0.02775,0.0024));
#1766=CARTESIAN_POINT('',(-0.0429,-0.02775,0.0024));
#1767=CARTESIAN_POINT('',(-0.035,-0.02775,0.005));
#1768=CARTESIAN_POINT('',(-0.0429,-0.02775,0.005));
#1769=CARTESIAN_POINT('',(-0.0429,-0.02775,-0.003002));
#1770=CARTESIAN_POINT('',(-0.035,-0.04355,-0.003002));
#1771=CARTESIAN_POINT('',(-0.035,-0.04355,0.0024));
#1772=CARTESIAN_POINT('',(-0.0429,-0.04355,0.0024));
#1773=CARTESIAN_POINT('',(-0.0429,-0.04355,-0.003002));
#1774=CARTESIAN_POINT('',(-0.0429,-0.04355,0.005));
#1775=CARTESIAN_POINT('',(-0.035,-0.04355,0.005));
#1776=CARTESIAN_POINT('',(-0.0429,-0.03565,-0.003002));
#1777=CARTESIAN_POINT('',(-0.0429,-0.03565,0.0024));
#1778=CARTESIAN_POINT('',(-0.0429,-0.03565,0.005));
#1779=CARTESIAN_POINT('',(0.035,-0.02775,-0.003002));
#1780=CARTESIAN_POINT('',(0.035,-0.02775,0.0024));
#1781=CARTESIAN_POINT('',(0.0429,-0.02775,0.0024));
#1782=CARTESIAN_POINT('',(0.0271,-0.02775,0.0024));
#1783=CARTESIAN_POINT('',(0.0429,-0.02775,-0.003002));
#1784=CARTESIAN_POINT('',(0.0429,-0.02775,0.005));
#1785=CARTESIAN_POINT('',(0.035,-0.02775,0.005));
#1786=CARTESIAN_POINT('',(0.0271,-0.02775,0.005));
#1787=CARTESIAN_POINT('',(0.0271,-0.02775,-0.003002));
#1788=CARTESIAN_POINT('',(0.0271,-0.03565,-0.003002));
#1789=CARTESIAN_POINT('',(0.0271,-0.03565,0.0024));
#1790=CARTESIAN_POINT('',(0.0271,-0.04355,0.0024));
#1791=CARTESIAN_POINT('',(0.0271,-0.03565,0.005));
#1792=CARTESIAN_POINT('',(0.0271,-0.04355,0.005));
#1793=CARTESIAN_POINT('',(0.0271,-0.04355,-0.003002));
#1794=CARTESIAN_POINT('',(3.46944695195361E-18,-0.02775,-0.003002));
#1795=CARTESIAN_POINT('',(-5.20417042793042E-18,-0.02775,0.0024));
#1796=CARTESIAN_POINT('',(0.0079,-0.02775,0.0024));
#1797=CARTESIAN_POINT('',(-0.0079,-0.02775,0.0024));
#1798=CARTESIAN_POINT('',(0.0079,-0.02775,-0.003002));
#1799=CARTESIAN_POINT('',(0.0079,-0.02775,0.005));
#1800=CARTESIAN_POINT('',(3.46944695195361E-18,-0.02775,0.005));
#1801=CARTESIAN_POINT('',(-0.0079,-0.02775,0.005));
#1802=CARTESIAN_POINT('',(-0.0079,-0.02775,-0.003002));
#1803=CARTESIAN_POINT('',(-0.0079,-0.03565,-0.003002));
#1804=CARTESIAN_POINT('',(-0.0079,-0.03565,0.0024));
#1805=CARTESIAN_POINT('',(-0.0079,-0.04355,0.0024));
#1806=CARTESIAN_POINT('',(-0.0079,-0.03565,0.005));
#1807=CARTESIAN_POINT('',(-0.0079,-0.04355,0.005));
#1808=CARTESIAN_POINT('',(-0.0079,-0.04355,-0.003002));
#1809=CARTESIAN_POINT('',(0.,0.,-0.003));
#1810=CARTESIAN_POINT('',(0.,0.02375,-0.003));
#1811=CARTESIAN_POINT('',(0.0558,0.02375,-0.003));
#1812=CARTESIAN_POINT('',(-0.0558,0.02375,-0.003));
#1813=CARTESIAN_POINT('',(0.0558,0.01885,-0.003));
#1814=CARTESIAN_POINT('',(0.0558,0.01395,-0.003));
#1815=CARTESIAN_POINT('',(0.05335,0.01395,-0.003));
#1816=CARTESIAN_POINT('',(0.05335,-0.03875,-0.003));
#1817=CARTESIAN_POINT('',(0.0558,-0.03875,-0.003));
#1818=CARTESIAN_POINT('',(0.0558,-0.04365,-0.003));
#1819=CARTESIAN_POINT('',(0.0558,-0.04855,-0.003));
#1820=CARTESIAN_POINT('',(6.93889390390723E-18,-0.04855,-0.003));
#1821=CARTESIAN_POINT('',(-0.0558,-0.04855,-0.003));
#1822=CARTESIAN_POINT('',(-0.0558,-0.04365,-0.003));
#1823=CARTESIAN_POINT('',(-0.0558,-0.03875,-0.003));
#1824=CARTESIAN_POINT('',(-0.05335,-0.03875,-0.003));
#1825=CARTESIAN_POINT('',(-0.05335,0.01395,-0.003));
#1826=CARTESIAN_POINT('',(-0.0558,0.01395,-0.003));
#1827=CARTESIAN_POINT('',(-0.0558,0.01885,-0.003));
#1828=CARTESIAN_POINT('',(0.03835034,0.,-0.003));
#1829=CARTESIAN_POINT('',(0.03835034,0.01120034,-0.003));
#1830=CARTESIAN_POINT('',(0.03835034,-0.01120034,-0.003));
#1831=CARTESIAN_POINT('',(0.,0.01120034,-0.003));
#1832=CARTESIAN_POINT('',(-0.03835034,0.01120034,-0.003));
#1833=CARTESIAN_POINT('',(-0.03835034,0.,-0.003));
#1834=CARTESIAN_POINT('',(-0.03835034,-0.01120034,-0.003));
#1835=CARTESIAN_POINT('',(0.,-0.01120034,-0.003));
#1836=CARTESIAN_POINT('',(0.0281,-0.03565,-0.003));
#1837=CARTESIAN_POINT('',(0.0281,-0.04255,-0.003));
#1838=CARTESIAN_POINT('',(0.0281,-0.02875,-0.003));
#1839=CARTESIAN_POINT('',(0.035,-0.04255,-0.003));
#1840=CARTESIAN_POINT('',(0.0419,-0.04255,-0.003));
#1841=CARTESIAN_POINT('',(0.0419,-0.03565,-0.003));
#1842=CARTESIAN_POINT('',(0.0419,-0.02875,-0.003));
#1843=CARTESIAN_POINT('',(0.035,-0.02875,-0.003));
#1844=CARTESIAN_POINT('',(-0.0069,-0.03565,-0.003));
#1845=CARTESIAN_POINT('',(-0.0069,-0.04255,-0.003));
#1846=CARTESIAN_POINT('',(-0.0069,-0.02875,-0.003));
#1847=CARTESIAN_POINT('',(2.60208521396521E-18,-0.04255,-0.003));
#1848=CARTESIAN_POINT('',(0.0069,-0.04255,-0.003));
#1849=CARTESIAN_POINT('',(0.0069,-0.03565,-0.003));
#1850=CARTESIAN_POINT('',(0.0069,-0.02875,-0.003));
#1851=CARTESIAN_POINT('',(3.46944695195361E-18,-0.02875,-0.003));
#1852=CARTESIAN_POINT('',(-0.0419,-0.03565,-0.003));
#1853=CARTESIAN_POINT('',(-0.0419,-0.04255,-0.003));
#1854=CARTESIAN_POINT('',(-0.0419,-0.02875,-0.003));
#1855=CARTESIAN_POINT('',(-0.035,-0.04255,-0.003));
#1856=CARTESIAN_POINT('',(-0.0281,-0.04255,-0.003));
#1857=CARTESIAN_POINT('',(-0.0281,-0.03565,-0.003));
#1858=CARTESIAN_POINT('',(-0.0281,-0.02875,-0.003));
#1859=CARTESIAN_POINT('',(-0.035,-0.02875,-0.003));
#1860=CARTESIAN_POINT('',(-0.0558,0.01885,-0.003));
#1861=CARTESIAN_POINT('',(-0.0529,0.01885,-0.003));
#1862=CARTESIAN_POINT('',(-0.0558,-0.04365,-0.003));
#1863=CARTESIAN_POINT('',(-0.0529,-0.04365,-0.003));
#1864=CARTESIAN_POINT('',(0.0558,0.01885,-0.003));
#1865=CARTESIAN_POINT('',(0.0587,0.01885,-0.003));
#1866=CARTESIAN_POINT('',(0.0558,-0.04365,-0.003));
#1867=CARTESIAN_POINT('',(0.0587,-0.04365,-0.003));
#1868=CARTESIAN_POINT('',(0.,0.,0.));
#1869=CARTESIAN_POINT('',(0.,-0.02375,0.));
#1870=CARTESIAN_POINT('',(0.05335,0.01395,0.));
#1871=CARTESIAN_POINT('',(0.0558,0.01395,0.));
#1872=CARTESIAN_POINT('',(0.0558,0.01885,0.));
#1873=CARTESIAN_POINT('',(0.0558,0.02375,0.));
#1874=CARTESIAN_POINT('',(0.,0.02375,0.));
#1875=CARTESIAN_POINT('',(-0.0558,0.02375,0.));
#1876=CARTESIAN_POINT('',(-0.0558,0.01885,0.));
#1877=CARTESIAN_POINT('',(-0.0558,0.01395,0.));
#1878=CARTESIAN_POINT('',(-0.05335,0.01395,0.));
#1879=CARTESIAN_POINT('',(-0.04310034,0.01595034,0.));
#1880=CARTESIAN_POINT('',(-0.04060034,0.01595034,0.));
#1881=CARTESIAN_POINT('',(-0.04310034,-0.01595034,0.));
#1882=CARTESIAN_POINT('',(-0.04060034,-0.01595034,0.));
#1883=CARTESIAN_POINT('',(0.04310034,-0.01595034,0.));
#1884=CARTESIAN_POINT('',(0.04560034,-0.01595034,0.));
#1885=CARTESIAN_POINT('',(0.04310034,0.01595034,0.));
#1886=CARTESIAN_POINT('',(0.04560034,0.01595034,0.));
#1887=CARTESIAN_POINT('',(0.,0.01120034,0.));
#1888=CARTESIAN_POINT('',(0.03835034,0.01120034,0.));
#1889=CARTESIAN_POINT('',(-0.03835034,0.01120034,0.));
#1890=CARTESIAN_POINT('',(0.03835034,0.,0.));
#1891=CARTESIAN_POINT('',(0.03835034,-0.01120034,0.));
#1892=CARTESIAN_POINT('',(0.,-0.01120034,0.));
#1893=CARTESIAN_POINT('',(-0.03835034,-0.01120034,0.));
#1894=CARTESIAN_POINT('',(-0.03835034,0.,0.));
#1895=CARTESIAN_POINT('',(-0.0558,0.01885,0.));
#1896=CARTESIAN_POINT('',(-0.0529,0.01885,0.));
#1897=CARTESIAN_POINT('',(0.0558,0.01885,0.));
#1898=CARTESIAN_POINT('',(0.0587,0.01885,0.));
#1899=CARTESIAN_POINT('',(0.,0.02375,-0.003));
#1900=CARTESIAN_POINT('',(0.0558,0.02375,-0.003002));
#1901=CARTESIAN_POINT('',(-0.0558,0.02375,-0.003002));
#1902=CARTESIAN_POINT('',(0.03835034,0.,-0.017));
#1903=CARTESIAN_POINT('',(0.03835034,-0.01120034,-0.017));
#1904=CARTESIAN_POINT('',(0.03835034,0.01120034,-0.017));
#1905=CARTESIAN_POINT('',(0.,0.01120034,-0.017));
#1906=CARTESIAN_POINT('',(-0.03835034,0.01120034,-0.017));
#1907=CARTESIAN_POINT('',(-0.03835034,0.,-0.017));
#1908=CARTESIAN_POINT('',(-0.03835034,-0.01120034,-0.017));
#1909=CARTESIAN_POINT('',(0.,-0.01120034,-0.017));
#1910=CARTESIAN_POINT('',(-0.04310034,0.01595034,0.002));
#1911=CARTESIAN_POINT('',(-0.04310034,0.01595034,0.002));
#1912=CARTESIAN_POINT('',(-0.04060034,0.01595034,0.002));
#1913=CARTESIAN_POINT('',(0.,0.,0.002));
#1914=CARTESIAN_POINT('',(-0.04310034,0.01595034,0.002));
#1915=CARTESIAN_POINT('',(-0.04160034,0.01595034,0.002));
#1916=CARTESIAN_POINT('',(-0.04310034,-0.01595034,0.002));
#1917=CARTESIAN_POINT('',(-0.04310034,-0.01595034,0.002));
#1918=CARTESIAN_POINT('',(-0.04060034,-0.01595034,0.002));
#1919=CARTESIAN_POINT('',(0.,0.,0.002));
#1920=CARTESIAN_POINT('',(-0.04310034,-0.01595034,0.002));
#1921=CARTESIAN_POINT('',(-0.04160034,-0.01595034,0.002));
#1922=CARTESIAN_POINT('',(0.04310034,-0.01595034,0.002));
#1923=CARTESIAN_POINT('',(0.04310034,-0.01595034,0.002));
#1924=CARTESIAN_POINT('',(0.04560034,-0.01595034,0.002));
#1925=CARTESIAN_POINT('',(0.,0.,0.002));
#1926=CARTESIAN_POINT('',(0.04310034,-0.01595034,0.002));
#1927=CARTESIAN_POINT('',(0.04460034,-0.01595034,0.002));
#1928=CARTESIAN_POINT('',(0.04310034,0.01595034,0.002));
#1929=CARTESIAN_POINT('',(0.04310034,0.01595034,0.002));
#1930=CARTESIAN_POINT('',(0.04560034,0.01595034,0.002));
#1931=CARTESIAN_POINT('',(0.,0.,0.002));
#1932=CARTESIAN_POINT('',(0.04310034,0.01595034,0.002));
#1933=CARTESIAN_POINT('',(0.04460034,0.01595034,0.002));
#1934=CARTESIAN_POINT('',(0.,0.,0.008));
#1935=CARTESIAN_POINT('',(-0.04310034,0.01595034,0.008));
#1936=CARTESIAN_POINT('',(-0.04160034,0.01595034,0.008));
#1937=CARTESIAN_POINT('',(-0.04310034,0.01595034,0.008));
#1938=CARTESIAN_POINT('',(0.,0.,0.008));
#1939=CARTESIAN_POINT('',(-0.04310034,-0.01595034,0.008));
#1940=CARTESIAN_POINT('',(-0.04160034,-0.01595034,0.008));
#1941=CARTESIAN_POINT('',(-0.04310034,-0.01595034,0.008));
#1942=CARTESIAN_POINT('',(0.,0.,0.008));
#1943=CARTESIAN_POINT('',(0.04310034,-0.01595034,0.008));
#1944=CARTESIAN_POINT('',(0.04460034,-0.01595034,0.008));
#1945=CARTESIAN_POINT('',(0.04310034,-0.01595034,0.008));
#1946=CARTESIAN_POINT('',(0.,0.,0.008));
#1947=CARTESIAN_POINT('',(0.04310034,0.01595034,0.008));
#1948=CARTESIAN_POINT('',(0.04460034,0.01595034,0.008));
#1949=CARTESIAN_POINT('',(0.04310034,0.01595034,0.008));
#1950=CARTESIAN_POINT('',(1.7347234759768E-18,-0.04355,-0.003002));
#1951=CARTESIAN_POINT('',(0.,-0.04355,0.0024));
#1952=CARTESIAN_POINT('',(0.0079,-0.04355,0.0024));
#1953=CARTESIAN_POINT('',(1.7347234759768E-18,-0.04355,0.005));
#1954=CARTESIAN_POINT('',(0.0079,-0.04355,0.005));
#1955=CARTESIAN_POINT('',(0.0079,-0.04355,-0.003002));
#1956=CARTESIAN_POINT('',(0.035,-0.04355,-0.003002));
#1957=CARTESIAN_POINT('',(0.035,-0.04355,0.0024));
#1958=CARTESIAN_POINT('',(0.0429,-0.04355,0.0024));
#1959=CARTESIAN_POINT('',(0.035,-0.04355,0.005));
#1960=CARTESIAN_POINT('',(0.0429,-0.04355,0.005));
#1961=CARTESIAN_POINT('',(0.0429,-0.04355,-0.003002));
#1962=CARTESIAN_POINT('',(6.93889390390723E-18,-0.04855,-0.003002));
#1963=CARTESIAN_POINT('',(0.0558,-0.04855,-0.003002));
#1964=CARTESIAN_POINT('',(0.0558,-0.04855,0.));
#1965=CARTESIAN_POINT('',(0.05335,-0.04855,0.));
#1966=CARTESIAN_POINT('',(0.0530727922061358,-0.04855,0.));
#1967=CARTESIAN_POINT('',(0.0530727922061358,-0.04855,0.));
#1968=CARTESIAN_POINT('',(0.0527781555368852,-0.04855,2.98684502750977E-33));
#1969=CARTESIAN_POINT('',(0.0521858572518148,-0.04855,3.91794321721633E-5));
#1970=CARTESIAN_POINT('',(0.0513846959634269,-0.04855,0.000482351045528514));
#1971=CARTESIAN_POINT('',(0.0509386370817126,-0.04855,0.00128651732911691));
#1972=CARTESIAN_POINT('',(0.0509,-0.04855,0.00187720152769005));
#1973=CARTESIAN_POINT('',(0.0509,-0.04855,0.00217279220613578));
#1974=CARTESIAN_POINT('',(6.93889390390723E-18,-0.04855,0.005));
#1975=CARTESIAN_POINT('',(-0.0509,-0.04855,0.00217279220613579));
#1976=CARTESIAN_POINT('',(-0.0509,-0.04855,0.00187815553688514));
#1977=CARTESIAN_POINT('',(-0.0509391794321722,-0.0485500000000001,0.00128585725181475));
#1978=CARTESIAN_POINT('',(-0.0513823510455285,-0.04855,0.000484695963426945));
#1979=CARTESIAN_POINT('',(-0.052186517329117,-0.0485500000000001,3.86370817126354E-5));
#1980=CARTESIAN_POINT('',(-0.0527772015276901,-0.04855,0.));
#1981=CARTESIAN_POINT('',(-0.0530727922061358,-0.04855,0.));
#1982=CARTESIAN_POINT('',(-0.0530727922061358,-0.04855,0.));
#1983=CARTESIAN_POINT('',(-0.05335,-0.04855,0.));
#1984=CARTESIAN_POINT('',(-0.0558,-0.04855,0.));
#1985=CARTESIAN_POINT('',(-0.0558,-0.04855,-0.003002));
#1986=CARTESIAN_POINT('',(0.0429,-0.03565,-0.003002));
#1987=CARTESIAN_POINT('',(0.0429,-0.03565,0.0024));
#1988=CARTESIAN_POINT('',(0.0429,-0.03565,0.005));
#1989=CARTESIAN_POINT('',(0.0079,-0.03565,-0.003002));
#1990=CARTESIAN_POINT('',(0.0079,-0.03565,0.0024));
#1991=CARTESIAN_POINT('',(0.0079,-0.03565,0.005));
#1992=CARTESIAN_POINT('',(0.,-0.02375,0.005));
#1993=CARTESIAN_POINT('',(0.,-0.02375,0.005));
#1994=CARTESIAN_POINT('',(0.,-0.0124,0.005));
#1995=CARTESIAN_POINT('',(3.46944695195361E-18,-0.02875,0.0024));
#1996=CARTESIAN_POINT('',(-0.0069,-0.02875,0.0024));
#1997=CARTESIAN_POINT('',(-0.0069,-0.02875,0.0024));
#1998=CARTESIAN_POINT('',(0.0069,-0.02875,0.0024));
#1999=CARTESIAN_POINT('',(0.0069,-0.02875,0.0024));
#2000=CARTESIAN_POINT('',(3.46944695195361E-18,-0.02875,0.0024));
#2001=CARTESIAN_POINT('',(0.0069,-0.03565,0.0024));
#2002=CARTESIAN_POINT('',(0.0069,-0.04255,0.0024));
#2003=CARTESIAN_POINT('',(0.0069,-0.04255,0.0024));
#2004=CARTESIAN_POINT('',(0.0069,-0.03565,0.0024));
#2005=CARTESIAN_POINT('',(2.60208521396521E-18,-0.04255,0.0024));
#2006=CARTESIAN_POINT('',(-0.0069,-0.04255,0.0024));
#2007=CARTESIAN_POINT('',(-0.0069,-0.04255,0.0024));
#2008=CARTESIAN_POINT('',(2.60208521396521E-18,-0.04255,0.0024));
#2009=CARTESIAN_POINT('',(-0.0069,-0.03565,0.0024));
#2010=CARTESIAN_POINT('',(-0.0069,-0.03565,0.0024));
#2011=CARTESIAN_POINT('',(6.93889390390723E-18,-0.03565,0.0024));
#2012=CARTESIAN_POINT('',(0.035,-0.02875,0.0024));
#2013=CARTESIAN_POINT('',(0.0281,-0.02875,0.0024));
#2014=CARTESIAN_POINT('',(0.0281,-0.02875,0.0024));
#2015=CARTESIAN_POINT('',(0.0419,-0.02875,0.0024));
#2016=CARTESIAN_POINT('',(0.0419,-0.02875,0.0024));
#2017=CARTESIAN_POINT('',(0.035,-0.02875,0.0024));
#2018=CARTESIAN_POINT('',(0.0419,-0.03565,0.0024));
#2019=CARTESIAN_POINT('',(0.0419,-0.04255,0.0024));
#2020=CARTESIAN_POINT('',(0.0419,-0.04255,0.0024));
#2021=CARTESIAN_POINT('',(0.0419,-0.03565,0.0024));
#2022=CARTESIAN_POINT('',(0.035,-0.04255,0.0024));
#2023=CARTESIAN_POINT('',(0.0281,-0.04255,0.0024));
#2024=CARTESIAN_POINT('',(0.0281,-0.04255,0.0024));
#2025=CARTESIAN_POINT('',(0.035,-0.04255,0.0024));
#2026=CARTESIAN_POINT('',(0.0281,-0.03565,0.0024));
#2027=CARTESIAN_POINT('',(0.0281,-0.03565,0.0024));
#2028=CARTESIAN_POINT('',(6.93889390390723E-18,-0.03565,0.0024));
#2029=CARTESIAN_POINT('',(-0.035,-0.02875,0.0024));
#2030=CARTESIAN_POINT('',(-0.0419,-0.02875,0.0024));
#2031=CARTESIAN_POINT('',(-0.0419,-0.02875,0.0024));
#2032=CARTESIAN_POINT('',(-0.0281,-0.02875,0.0024));
#2033=CARTESIAN_POINT('',(-0.0281,-0.02875,0.0024));
#2034=CARTESIAN_POINT('',(-0.035,-0.02875,0.0024));
#2035=CARTESIAN_POINT('',(-0.0281,-0.03565,0.0024));
#2036=CARTESIAN_POINT('',(-0.0281,-0.04255,0.0024));
#2037=CARTESIAN_POINT('',(-0.0281,-0.04255,0.0024));
#2038=CARTESIAN_POINT('',(-0.0281,-0.03565,0.0024));
#2039=CARTESIAN_POINT('',(-0.035,-0.04255,0.0024));
#2040=CARTESIAN_POINT('',(-0.0419,-0.04255,0.0024));
#2041=CARTESIAN_POINT('',(-0.0419,-0.04255,0.0024));
#2042=CARTESIAN_POINT('',(-0.035,-0.04255,0.0024));
#2043=CARTESIAN_POINT('',(-0.0419,-0.03565,0.0024));
#2044=CARTESIAN_POINT('',(-0.0419,-0.03565,0.0024));
#2045=CARTESIAN_POINT('',(6.93889390390723E-18,-0.03565,0.0024));
#2046=CARTESIAN_POINT('',(-0.0558,0.01885,-0.003002));
#2047=CARTESIAN_POINT('',(-0.0558,0.01885,-0.003002));
#2048=CARTESIAN_POINT('',(-0.0558,0.01395,-0.003002));
#2049=CARTESIAN_POINT('',(-0.05335,0.01395,-0.003002));
#2050=CARTESIAN_POINT('',(-0.0558,-0.04365,-0.003002));
#2051=CARTESIAN_POINT('',(-0.0558,-0.04365,0.));
#2052=CARTESIAN_POINT('',(-0.0558,-0.03875,0.));
#2053=CARTESIAN_POINT('',(-0.0558,-0.03875,-0.003002));
#2054=CARTESIAN_POINT('',(-0.0558,-0.04365,-0.003002));
#2055=CARTESIAN_POINT('',(-0.0558,-0.04365,0.));
#2056=CARTESIAN_POINT('',(-0.0530727922061358,-0.0426639281724509,0.));
#2057=CARTESIAN_POINT('',(-0.0530727922055872,-0.044636071826032,0.));
#2058=CARTESIAN_POINT('',(-0.0530727922055872,-0.044636071826032,4.14544454172472E-32));
#2059=CARTESIAN_POINT('',(-0.0528429569116449,-0.0440004096069896,5.20954937920639E-23));
#2060=CARTESIAN_POINT('',(-0.0528429576269591,-0.0432995884135392,0.));
#2061=CARTESIAN_POINT('',(-0.0530727922061358,-0.0426639281724509,0.));
#2062=CARTESIAN_POINT('',(1.38777878078145E-17,-0.0124,0.));
#2063=CARTESIAN_POINT('',(-0.0530727922061358,-0.04855,0.));
#2064=CARTESIAN_POINT('',(-0.0530727922061358,-0.0472453572752779,0.));
#2065=CARTESIAN_POINT('',(-0.0530727922061358,-0.0459407145505558,0.));
#2066=CARTESIAN_POINT('',(-0.0530727922061358,-0.0446360718258337,0.));
#2067=CARTESIAN_POINT('',(-0.0530727922061358,-0.0426639281724509,0.));
#2068=CARTESIAN_POINT('',(-0.0530727922061358,-0.0413592854483006,0.));
#2069=CARTESIAN_POINT('',(-0.0530727922061358,-0.0400546427241503,0.));
#2070=CARTESIAN_POINT('',(-0.0530727922061358,-0.03875,0.));
#2071=CARTESIAN_POINT('',(-0.0530727922061358,-0.03875,0.));
#2072=CARTESIAN_POINT('',(-0.05335,-0.03875,0.));
#2073=CARTESIAN_POINT('',(-0.05335,-0.03875,-0.003002));
#2074=CARTESIAN_POINT('',(-0.0530727922061358,-0.03875,0.));
#2075=CARTESIAN_POINT('',(-0.0527781555368852,-0.03875,0.));
#2076=CARTESIAN_POINT('',(-0.0521858572518148,-0.03875,3.9179432172162E-5));
#2077=CARTESIAN_POINT('',(-0.0513846959634269,-0.03875,0.000482351045528523));
#2078=CARTESIAN_POINT('',(-0.0509386370817127,-0.03875,0.00128651732911689));
#2079=CARTESIAN_POINT('',(-0.0509,-0.03875,0.00187720152769004));
#2080=CARTESIAN_POINT('',(-0.0509,-0.03875,0.00217279220613579));
#2081=CARTESIAN_POINT('',(0.0558,0.01885,-0.003002));
#2082=CARTESIAN_POINT('',(0.0558,0.01395,-0.003002));
#2083=CARTESIAN_POINT('',(0.0558,0.01885,-0.003002));
#2084=CARTESIAN_POINT('',(0.05335,0.01395,-0.003002));
#2085=CARTESIAN_POINT('',(1.38777878078145E-17,-0.0124,0.));
#2086=CARTESIAN_POINT('',(0.05335,-0.03875,0.));
#2087=CARTESIAN_POINT('',(0.0558,-0.03875,0.));
#2088=CARTESIAN_POINT('',(0.0530727922061358,-0.03875,0.));
#2089=CARTESIAN_POINT('',(0.0530727922061358,-0.03875,0.));
#2090=CARTESIAN_POINT('',(0.0530727922061358,-0.0400546427247222,0.));
#2091=CARTESIAN_POINT('',(0.0530727922061358,-0.0413592854494443,0.));
#2092=CARTESIAN_POINT('',(0.0530727922061358,-0.0426639281741664,0.));
#2093=CARTESIAN_POINT('',(0.0530727922055872,-0.0426639281739681,0.));
#2094=CARTESIAN_POINT('',(0.0558,-0.04365,0.));
#2095=CARTESIAN_POINT('',(0.0530727922061358,-0.0446360718275492,0.));
#2096=CARTESIAN_POINT('',(0.0530727922061358,-0.0446360718275491,0.));
#2097=CARTESIAN_POINT('',(0.0530727922061358,-0.0459407145516994,0.));
#2098=CARTESIAN_POINT('',(0.0530727922061358,-0.0472453572758497,0.));
#2099=CARTESIAN_POINT('',(0.0530727922061358,-0.04855,0.));
#2100=CARTESIAN_POINT('',(0.0558,-0.04365,0.));
#2101=CARTESIAN_POINT('',(0.0558,-0.04365,-0.003002));
#2102=CARTESIAN_POINT('',(0.0530727922055872,-0.0426639281739681,4.14487715828618E-32));
#2103=CARTESIAN_POINT('',(0.0528429569116449,-0.0432995903930104,5.20931342080794E-23));
#2104=CARTESIAN_POINT('',(0.0528429576269591,-0.0440004115864609,1.49003511742553E-33));
#2105=CARTESIAN_POINT('',(0.0530727922061358,-0.0446360718275492,0.));
#2106=CARTESIAN_POINT('',(0.05335,-0.03875,-0.003002));
#2107=CARTESIAN_POINT('',(0.0509,-0.03875,0.00217279220613578));
#2108=CARTESIAN_POINT('',(0.0509,-0.03875,0.00187815553688513));
#2109=CARTESIAN_POINT('',(0.0509391794321722,-0.03875,0.00128585725181474));
#2110=CARTESIAN_POINT('',(0.0513823510455285,-0.03875,0.000484695963426947));
#2111=CARTESIAN_POINT('',(0.0521865173291169,-0.03875,3.86370817126449E-5));
#2112=CARTESIAN_POINT('',(0.0527772015276901,-0.03875,1.81195234162689E-35));
#2113=CARTESIAN_POINT('',(0.0530727922061358,-0.03875,0.));
#2114=CARTESIAN_POINT('',(0.0558,-0.03875,-0.003002));
#2115=CARTESIAN_POINT('',(0.0558,-0.04365,-0.003002));
#2116=CARTESIAN_POINT('',(-0.0530727922061358,-0.03875,0.));
#2117=CARTESIAN_POINT('',(-0.0530727922061358,-0.04855,0.));
#2118=CARTESIAN_POINT('',(-0.0527468733752154,-0.03875,2.21298328218324E-33));
#2119=CARTESIAN_POINT('',(-0.0527468733752154,-0.04855,2.21298328218324E-33));
#2120=CARTESIAN_POINT('',(-0.0524209545442951,-0.03875,1.18415075088817E-18));
#2121=CARTESIAN_POINT('',(-0.0524209545442951,-0.04855,1.18415075088817E-18));
#2122=CARTESIAN_POINT('',(-0.0516242640687119,-0.03875,0.000217279220613584));
#2123=CARTESIAN_POINT('',(-0.0516242640687119,-0.04855,0.000217279220613584));
#2124=CARTESIAN_POINT('',(-0.0511172792206136,-0.03875,0.00072426406871194));
#2125=CARTESIAN_POINT('',(-0.0511172792206136,-0.04855,0.00072426406871194));
#2126=CARTESIAN_POINT('',(-0.0509,-0.03875,0.00152095454429506));
#2127=CARTESIAN_POINT('',(-0.0509,-0.04855,0.00152095454429506));
#2128=CARTESIAN_POINT('',(-0.0509,-0.03875,0.00184687337521543));
#2129=CARTESIAN_POINT('',(-0.0509,-0.04855,0.00184687337521543));
#2130=CARTESIAN_POINT('',(-0.0509,-0.03875,0.0021727922061358));
#2131=CARTESIAN_POINT('',(-0.0509,-0.04855,0.0021727922061358));
#2132=CARTESIAN_POINT('',(0.0530727922061358,-0.04855,-4.95915147976013E-47));
#2133=CARTESIAN_POINT('',(0.0530727922061358,-0.03875,-4.95915147976013E-47));
#2134=CARTESIAN_POINT('',(0.0527468733752154,-0.04855,-6.10238250383588E-33));
#2135=CARTESIAN_POINT('',(0.0527468733752154,-0.03875,-6.10238250383588E-33));
#2136=CARTESIAN_POINT('',(0.0524209545442951,-0.04855,-2.98148542820554E-18));
#2137=CARTESIAN_POINT('',(0.0524209545442951,-0.03875,-2.98148542820554E-18));
#2138=CARTESIAN_POINT('',(0.0516242640687119,-0.04855,0.000217279220613574));
#2139=CARTESIAN_POINT('',(0.0516242640687119,-0.03875,0.000217279220613574));
#2140=CARTESIAN_POINT('',(0.0511172792206136,-0.04855,0.000724264068711925));
#2141=CARTESIAN_POINT('',(0.0511172792206136,-0.03875,0.000724264068711925));
#2142=CARTESIAN_POINT('',(0.0509,-0.04855,0.00152095454429506));
#2143=CARTESIAN_POINT('',(0.0509,-0.03875,0.00152095454429506));
#2144=CARTESIAN_POINT('',(0.0509,-0.04855,0.00184687337521543));
#2145=CARTESIAN_POINT('',(0.0509,-0.03875,0.00184687337521543));
#2146=CARTESIAN_POINT('',(0.0509,-0.04855,0.0021727922061358));
#2147=CARTESIAN_POINT('',(0.0509,-0.03875,0.0021727922061358));
#2148=MECHANICAL_DESIGN_GEOMETRIC_PRESENTATION_REPRESENTATION('',(#1275),
#2149);
#2149=(
GEOMETRIC_REPRESENTATION_CONTEXT(3)
GLOBAL_UNCERTAINTY_ASSIGNED_CONTEXT((#2150))
GLOBAL_UNIT_ASSIGNED_CONTEXT((#2153,#2152,#2151))
REPRESENTATION_CONTEXT('Top','TOP_LEVEL_ASSEMBLY_PART')
);
#2150=UNCERTAINTY_MEASURE_WITH_UNIT(LENGTH_MEASURE(2.E-5),#2153,
'DISTANCE_ACCURACY_VALUE','Maximum Tolerance applied to model');
#2151=(
NAMED_UNIT(*)
SI_UNIT($,.STERADIAN.)
SOLID_ANGLE_UNIT()
);
#2152=(
NAMED_UNIT(*)
PLANE_ANGLE_UNIT()
SI_UNIT($,.RADIAN.)
);
#2153=(
LENGTH_UNIT()
NAMED_UNIT(*)
SI_UNIT($,.METRE.)
);
#2154=PRODUCT_DEFINITION_SHAPE('','',#2155);
#2155=PRODUCT_DEFINITION('','',#2157,#2156);
#2156=PRODUCT_DEFINITION_CONTEXT('',#2163,'design');
#2157=PRODUCT_DEFINITION_FORMATION_WITH_SPECIFIED_SOURCE('','',#2159,
 .NOT_KNOWN.);
#2158=PRODUCT_RELATED_PRODUCT_CATEGORY('','',(#2159));
#2159=PRODUCT('Top','Top','Top',(#2161));
#2160=PRODUCT_CATEGORY('','');
#2161=PRODUCT_CONTEXT('',#2163,'mechanical');
#2162=APPLICATION_PROTOCOL_DEFINITION('international standard',
'ap242_managed_model_based_3d_engineering',2020,#2163);
#2163=APPLICATION_CONTEXT('managed model based 3d engineering');
ENDSEC;
END-ISO-10303-21;
