ISO-10303-21;
HEADER;
/* Generated by software containing ST-Developer
 * from STEP Tools, Inc. (www.steptools.com) 
 */
/* OPTION: using custom renumber hook */

FILE_DESCRIPTION(
/* description */ ('STEP AP242 Edition 2',
'CAx-IF Rec.Pracs.---Representation and Presentation of Product Manufa
cturing Information (PMI)---4.0---2014-10-13',
'CAx-IF Rec.Pracs.---3D Tessellated Geometry---0.4---2014-09-14','2;1',
'CAx-IF Rec.Pracs.---User Defined Attributes---1.5---2016-08-15'),
/* implementation_level */ '2;1');

FILE_NAME(
/* name */ 'V2 - ScreenCover',
/* time_stamp */ '2026-08-14T14:00:38Z',
/* author */ (''),
/* organization */ (''),
/* preprocessor_version */ 'ST-DEVELOPER v20',
/* originating_system */ 'ONSHAPE BY PTC INC, 1.219',
/* authorisation */ '  ');

FILE_SCHEMA (('AP242_MANAGED_MODEL_BASED_3D_ENGINEERING_MIM_LF { 1 0 10303 442 3 1 4 }'));
ENDSEC;

DATA;
#10=SHAPE_REPRESENTATION_RELATIONSHIP('','',#569,#11);
#11=ADVANCED_BREP_SHAPE_REPRESENTATION('',(#567),#1031);
#12=B_SPLINE_SURFACE_WITH_KNOTS('',5,1,((#998,#999),(#1000,#1001),(#1002,
#1003),(#1004,#1005),(#1006,#1007),(#1008,#1009),(#1010,#1011),(#1012,#1013)),
 .SURF_OF_LINEAR_EXTRUSION.,.F.,.F.,.F.,(6,2,6),(2,2),(0.,0.5,1.),(0.,1.),
 .UNSPECIFIED.);
#13=B_SPLINE_SURFACE_WITH_KNOTS('',5,1,((#1014,#1015),(#1016,#1017),(#1018,
#1019),(#1020,#1021),(#1022,#1023),(#1024,#1025),(#1026,#1027),(#1028,#1029)),
 .SURF_OF_LINEAR_EXTRUSION.,.F.,.F.,.F.,(6,2,6),(2,2),(0.,0.5,1.),(0.,1.),
 .UNSPECIFIED.);
#14=CIRCLE('',#579,0.00165);
#15=CIRCLE('',#580,0.00165);
#16=CIRCLE('',#582,0.00165);
#17=CIRCLE('',#583,0.00165);
#18=CIRCLE('',#585,0.00165);
#19=CIRCLE('',#586,0.00165);
#20=CIRCLE('',#588,0.00165);
#21=CIRCLE('',#589,0.00165);
#22=CIRCLE('',#598,0.0049);
#23=CIRCLE('',#599,0.0049);
#24=CIRCLE('',#600,0.0029);
#25=CIRCLE('',#601,0.0029);
#26=CIRCLE('',#604,0.0049);
#27=CIRCLE('',#606,0.0029);
#28=CIRCLE('',#610,0.0049);
#29=CIRCLE('',#612,0.0029);
#30=CYLINDRICAL_SURFACE('',#578,0.00165);
#31=CYLINDRICAL_SURFACE('',#581,0.00165);
#32=CYLINDRICAL_SURFACE('',#584,0.00165);
#33=CYLINDRICAL_SURFACE('',#587,0.00165);
#34=CYLINDRICAL_SURFACE('',#603,0.0049);
#35=CYLINDRICAL_SURFACE('',#605,0.0029);
#36=CYLINDRICAL_SURFACE('',#609,0.0049);
#37=CYLINDRICAL_SURFACE('',#611,0.0029);
#38=B_SPLINE_CURVE_WITH_KNOTS('',3,(#755,#756,#757,#758),.UNSPECIFIED.,
 .F.,.F.,(4,4),(0.,1.),.UNSPECIFIED.);
#39=B_SPLINE_CURVE_WITH_KNOTS('',3,(#785,#786,#787,#788),.UNSPECIFIED.,
 .F.,.F.,(4,4),(0.,1.),.UNSPECIFIED.);
#40=B_SPLINE_CURVE_WITH_KNOTS('',3,(#842,#843,#844,#845),.UNSPECIFIED.,
 .F.,.F.,(4,4),(0.,1.),.UNSPECIFIED.);
#41=B_SPLINE_CURVE_WITH_KNOTS('',3,(#849,#850,#851,#852),.UNSPECIFIED.,
 .F.,.F.,(4,4),(0.,1.),.UNSPECIFIED.);
#42=B_SPLINE_CURVE_WITH_KNOTS('',3,(#854,#855,#856,#857,#858,#859,#860,
#861,#862,#863,#864,#865,#866,#867,#868,#869,#870,#871,#872,#873,#874,#875),
 .UNSPECIFIED.,.F.,.F.,(4,1,1,1,1,1,1,1,1,1,1,1,1,1,1,1,1,1,1,4),(0.,0.0625,
0.125,0.140625,0.15625,0.1875,0.25,0.3125,0.375,0.5,0.625,0.75,0.78125,
0.8125,0.84375,0.875,0.890625,0.90625,0.9375,1.),.UNSPECIFIED.);
#43=B_SPLINE_CURVE_WITH_KNOTS('',3,(#876,#877,#878,#879,#880,#881,#882,
#883,#884,#885,#886,#887,#888,#889,#890,#891,#892,#893,#894,#895,#896,#897),
 .UNSPECIFIED.,.F.,.F.,(4,1,1,1,1,1,1,1,1,1,1,1,1,1,1,1,1,1,1,4),(0.,0.0625,
0.125,0.140625,0.15625,0.1875,0.25,0.3125,0.375,0.5,0.625,0.75,0.78125,
0.8125,0.84375,0.875,0.890625,0.90625,0.9375,1.),.UNSPECIFIED.);
#44=B_SPLINE_CURVE_WITH_KNOTS('',3,(#924,#925,#926,#927,#928,#929,#930,
#931,#932,#933,#934,#935,#936,#937,#938,#939,#940,#941,#942,#943,#944,#945),
 .UNSPECIFIED.,.F.,.F.,(4,1,1,1,1,1,1,1,1,1,1,1,1,1,1,1,1,1,1,4),(0.,0.0625,
0.125,0.140625,0.15625,0.1875,0.25,0.3125,0.375,0.5,0.625,0.75,0.78125,
0.8125,0.84375,0.875,0.890625,0.90625,0.9375,1.),.UNSPECIFIED.);
#45=B_SPLINE_CURVE_WITH_KNOTS('',3,(#946,#947,#948,#949,#950,#951,#952,
#953,#954,#955,#956,#957,#958,#959,#960,#961,#962,#963,#964,#965,#966,#967),
 .UNSPECIFIED.,.F.,.F.,(4,1,1,1,1,1,1,1,1,1,1,1,1,1,1,1,1,1,1,4),(0.,0.0625,
0.125,0.140625,0.15625,0.1875,0.25,0.3125,0.375,0.5,0.625,0.75,0.78125,
0.8125,0.84375,0.875,0.890625,0.90625,0.9375,1.),.UNSPECIFIED.);
#46=ORIENTED_EDGE('',*,*,#190,.F.);
#47=ORIENTED_EDGE('',*,*,#191,.T.);
#48=ORIENTED_EDGE('',*,*,#192,.T.);
#49=ORIENTED_EDGE('',*,*,#193,.F.);
#50=ORIENTED_EDGE('',*,*,#194,.T.);
#51=ORIENTED_EDGE('',*,*,#195,.F.);
#52=ORIENTED_EDGE('',*,*,#195,.T.);
#53=ORIENTED_EDGE('',*,*,#196,.F.);
#54=ORIENTED_EDGE('',*,*,#197,.T.);
#55=ORIENTED_EDGE('',*,*,#198,.T.);
#56=ORIENTED_EDGE('',*,*,#199,.F.);
#57=ORIENTED_EDGE('',*,*,#200,.F.);
#58=ORIENTED_EDGE('',*,*,#201,.F.);
#59=ORIENTED_EDGE('',*,*,#202,.F.);
#60=ORIENTED_EDGE('',*,*,#203,.F.);
#61=ORIENTED_EDGE('',*,*,#204,.T.);
#62=ORIENTED_EDGE('',*,*,#205,.T.);
#63=ORIENTED_EDGE('',*,*,#201,.T.);
#64=ORIENTED_EDGE('',*,*,#206,.F.);
#65=ORIENTED_EDGE('',*,*,#207,.T.);
#66=ORIENTED_EDGE('',*,*,#208,.F.);
#67=ORIENTED_EDGE('',*,*,#209,.F.);
#68=ORIENTED_EDGE('',*,*,#210,.T.);
#69=ORIENTED_EDGE('',*,*,#211,.T.);
#70=ORIENTED_EDGE('',*,*,#212,.T.);
#71=ORIENTED_EDGE('',*,*,#213,.F.);
#72=ORIENTED_EDGE('',*,*,#214,.F.);
#73=ORIENTED_EDGE('',*,*,#209,.T.);
#74=ORIENTED_EDGE('',*,*,#215,.T.);
#75=ORIENTED_EDGE('',*,*,#216,.F.);
#76=ORIENTED_EDGE('',*,*,#217,.F.);
#77=ORIENTED_EDGE('',*,*,#213,.T.);
#78=ORIENTED_EDGE('',*,*,#218,.F.);
#79=ORIENTED_EDGE('',*,*,#211,.F.);
#80=ORIENTED_EDGE('',*,*,#219,.T.);
#81=ORIENTED_EDGE('',*,*,#216,.T.);
#82=ORIENTED_EDGE('',*,*,#220,.T.);
#83=ORIENTED_EDGE('',*,*,#221,.F.);
#84=ORIENTED_EDGE('',*,*,#222,.T.);
#85=ORIENTED_EDGE('',*,*,#223,.F.);
#86=ORIENTED_EDGE('',*,*,#224,.T.);
#87=ORIENTED_EDGE('',*,*,#225,.F.);
#88=ORIENTED_EDGE('',*,*,#226,.T.);
#89=ORIENTED_EDGE('',*,*,#227,.F.);
#90=ORIENTED_EDGE('',*,*,#228,.T.);
#91=ORIENTED_EDGE('',*,*,#229,.T.);
#92=ORIENTED_EDGE('',*,*,#230,.F.);
#93=ORIENTED_EDGE('',*,*,#231,.T.);
#94=ORIENTED_EDGE('',*,*,#226,.F.);
#95=ORIENTED_EDGE('',*,*,#224,.F.);
#96=ORIENTED_EDGE('',*,*,#222,.F.);
#97=ORIENTED_EDGE('',*,*,#220,.F.);
#98=ORIENTED_EDGE('',*,*,#210,.F.);
#99=ORIENTED_EDGE('',*,*,#214,.T.);
#100=ORIENTED_EDGE('',*,*,#217,.T.);
#101=ORIENTED_EDGE('',*,*,#219,.F.);
#102=ORIENTED_EDGE('',*,*,#230,.T.);
#103=ORIENTED_EDGE('',*,*,#232,.T.);
#104=ORIENTED_EDGE('',*,*,#190,.T.);
#105=ORIENTED_EDGE('',*,*,#202,.T.);
#106=ORIENTED_EDGE('',*,*,#205,.F.);
#107=ORIENTED_EDGE('',*,*,#233,.T.);
#108=ORIENTED_EDGE('',*,*,#234,.F.);
#109=ORIENTED_EDGE('',*,*,#235,.T.);
#110=ORIENTED_EDGE('',*,*,#236,.T.);
#111=ORIENTED_EDGE('',*,*,#237,.T.);
#112=ORIENTED_EDGE('',*,*,#227,.T.);
#113=ORIENTED_EDGE('',*,*,#225,.T.);
#114=ORIENTED_EDGE('',*,*,#223,.T.);
#115=ORIENTED_EDGE('',*,*,#221,.T.);
#116=ORIENTED_EDGE('',*,*,#208,.T.);
#117=ORIENTED_EDGE('',*,*,#218,.T.);
#118=ORIENTED_EDGE('',*,*,#215,.F.);
#119=ORIENTED_EDGE('',*,*,#212,.F.);
#120=ORIENTED_EDGE('',*,*,#235,.F.);
#121=ORIENTED_EDGE('',*,*,#238,.F.);
#122=ORIENTED_EDGE('',*,*,#239,.T.);
#123=ORIENTED_EDGE('',*,*,#240,.T.);
#124=ORIENTED_EDGE('',*,*,#236,.F.);
#125=ORIENTED_EDGE('',*,*,#240,.F.);
#126=ORIENTED_EDGE('',*,*,#241,.T.);
#127=ORIENTED_EDGE('',*,*,#242,.T.);
#128=ORIENTED_EDGE('',*,*,#237,.F.);
#129=ORIENTED_EDGE('',*,*,#242,.F.);
#130=ORIENTED_EDGE('',*,*,#243,.T.);
#131=ORIENTED_EDGE('',*,*,#244,.T.);
#132=ORIENTED_EDGE('',*,*,#234,.T.);
#133=ORIENTED_EDGE('',*,*,#244,.F.);
#134=ORIENTED_EDGE('',*,*,#245,.F.);
#135=ORIENTED_EDGE('',*,*,#238,.T.);
#136=ORIENTED_EDGE('',*,*,#192,.F.);
#137=ORIENTED_EDGE('',*,*,#246,.T.);
#138=ORIENTED_EDGE('',*,*,#228,.F.);
#139=ORIENTED_EDGE('',*,*,#247,.T.);
#140=ORIENTED_EDGE('',*,*,#203,.T.);
#141=ORIENTED_EDGE('',*,*,#248,.F.);
#142=ORIENTED_EDGE('',*,*,#249,.T.);
#143=ORIENTED_EDGE('',*,*,#198,.F.);
#144=ORIENTED_EDGE('',*,*,#250,.T.);
#145=ORIENTED_EDGE('',*,*,#251,.F.);
#146=ORIENTED_EDGE('',*,*,#239,.F.);
#147=ORIENTED_EDGE('',*,*,#245,.T.);
#148=ORIENTED_EDGE('',*,*,#243,.F.);
#149=ORIENTED_EDGE('',*,*,#241,.F.);
#150=ORIENTED_EDGE('',*,*,#252,.F.);
#151=ORIENTED_EDGE('',*,*,#253,.F.);
#152=ORIENTED_EDGE('',*,*,#248,.T.);
#153=ORIENTED_EDGE('',*,*,#207,.F.);
#154=ORIENTED_EDGE('',*,*,#254,.F.);
#155=ORIENTED_EDGE('',*,*,#255,.T.);
#156=ORIENTED_EDGE('',*,*,#249,.F.);
#157=ORIENTED_EDGE('',*,*,#255,.F.);
#158=ORIENTED_EDGE('',*,*,#256,.T.);
#159=ORIENTED_EDGE('',*,*,#199,.T.);
#160=ORIENTED_EDGE('',*,*,#257,.F.);
#161=ORIENTED_EDGE('',*,*,#252,.T.);
#162=ORIENTED_EDGE('',*,*,#254,.T.);
#163=ORIENTED_EDGE('',*,*,#206,.T.);
#164=ORIENTED_EDGE('',*,*,#200,.T.);
#165=ORIENTED_EDGE('',*,*,#256,.F.);
#166=ORIENTED_EDGE('',*,*,#257,.T.);
#167=ORIENTED_EDGE('',*,*,#251,.T.);
#168=ORIENTED_EDGE('',*,*,#258,.F.);
#169=ORIENTED_EDGE('',*,*,#259,.F.);
#170=ORIENTED_EDGE('',*,*,#193,.T.);
#171=ORIENTED_EDGE('',*,*,#250,.F.);
#172=ORIENTED_EDGE('',*,*,#197,.F.);
#173=ORIENTED_EDGE('',*,*,#260,.T.);
#174=ORIENTED_EDGE('',*,*,#258,.T.);
#175=ORIENTED_EDGE('',*,*,#261,.F.);
#176=ORIENTED_EDGE('',*,*,#253,.T.);
#177=ORIENTED_EDGE('',*,*,#259,.T.);
#178=ORIENTED_EDGE('',*,*,#260,.F.);
#179=ORIENTED_EDGE('',*,*,#196,.T.);
#180=ORIENTED_EDGE('',*,*,#194,.F.);
#181=ORIENTED_EDGE('',*,*,#261,.T.);
#182=ORIENTED_EDGE('',*,*,#232,.F.);
#183=ORIENTED_EDGE('',*,*,#229,.F.);
#184=ORIENTED_EDGE('',*,*,#246,.F.);
#185=ORIENTED_EDGE('',*,*,#191,.F.);
#186=ORIENTED_EDGE('',*,*,#233,.F.);
#187=ORIENTED_EDGE('',*,*,#204,.F.);
#188=ORIENTED_EDGE('',*,*,#247,.F.);
#189=ORIENTED_EDGE('',*,*,#231,.F.);
#190=EDGE_CURVE('',#262,#263,#314,.T.);
#191=EDGE_CURVE('',#262,#264,#38,.T.);
#192=EDGE_CURVE('',#264,#265,#315,.T.);
#193=EDGE_CURVE('',#266,#265,#316,.T.);
#194=EDGE_CURVE('',#266,#267,#317,.T.);
#195=EDGE_CURVE('',#263,#267,#318,.T.);
#196=EDGE_CURVE('',#268,#267,#319,.T.);
#197=EDGE_CURVE('',#268,#269,#320,.T.);
#198=EDGE_CURVE('',#269,#270,#321,.T.);
#199=EDGE_CURVE('',#271,#270,#322,.T.);
#200=EDGE_CURVE('',#272,#271,#323,.T.);
#201=EDGE_CURVE('',#273,#272,#324,.T.);
#202=EDGE_CURVE('',#263,#273,#325,.T.);
#203=EDGE_CURVE('',#274,#275,#326,.T.);
#204=EDGE_CURVE('',#274,#276,#39,.T.);
#205=EDGE_CURVE('',#276,#273,#327,.T.);
#206=EDGE_CURVE('',#277,#272,#328,.T.);
#207=EDGE_CURVE('',#277,#275,#329,.T.);
#208=EDGE_CURVE('',#278,#279,#330,.T.);
#209=EDGE_CURVE('',#280,#278,#331,.T.);
#210=EDGE_CURVE('',#280,#281,#332,.T.);
#211=EDGE_CURVE('',#281,#279,#333,.T.);
#212=EDGE_CURVE('',#278,#282,#334,.T.);
#213=EDGE_CURVE('',#283,#282,#335,.T.);
#214=EDGE_CURVE('',#280,#283,#336,.T.);
#215=EDGE_CURVE('',#282,#284,#337,.T.);
#216=EDGE_CURVE('',#285,#284,#338,.T.);
#217=EDGE_CURVE('',#283,#285,#339,.T.);
#218=EDGE_CURVE('',#279,#284,#340,.T.);
#219=EDGE_CURVE('',#281,#285,#341,.T.);
#220=EDGE_CURVE('',#286,#286,#14,.T.);
#221=EDGE_CURVE('',#287,#287,#15,.T.);
#222=EDGE_CURVE('',#288,#288,#16,.T.);
#223=EDGE_CURVE('',#289,#289,#17,.T.);
#224=EDGE_CURVE('',#290,#290,#18,.T.);
#225=EDGE_CURVE('',#291,#291,#19,.T.);
#226=EDGE_CURVE('',#292,#292,#20,.T.);
#227=EDGE_CURVE('',#293,#293,#21,.T.);
#228=EDGE_CURVE('',#294,#295,#342,.T.);
#229=EDGE_CURVE('',#295,#296,#40,.T.);
#230=EDGE_CURVE('',#297,#296,#343,.T.);
#231=EDGE_CURVE('',#297,#294,#41,.T.);
#232=EDGE_CURVE('',#296,#262,#42,.T.);
#233=EDGE_CURVE('',#276,#297,#43,.T.);
#234=EDGE_CURVE('',#298,#299,#344,.T.);
#235=EDGE_CURVE('',#298,#300,#345,.T.);
#236=EDGE_CURVE('',#300,#301,#346,.T.);
#237=EDGE_CURVE('',#301,#299,#347,.T.);
#238=EDGE_CURVE('',#302,#298,#348,.T.);
#239=EDGE_CURVE('',#302,#303,#349,.T.);
#240=EDGE_CURVE('',#303,#300,#350,.T.);
#241=EDGE_CURVE('',#303,#304,#351,.T.);
#242=EDGE_CURVE('',#304,#301,#352,.T.);
#243=EDGE_CURVE('',#304,#305,#353,.T.);
#244=EDGE_CURVE('',#305,#299,#354,.T.);
#245=EDGE_CURVE('',#302,#305,#355,.T.);
#246=EDGE_CURVE('',#264,#295,#44,.T.);
#247=EDGE_CURVE('',#294,#274,#45,.T.);
#248=EDGE_CURVE('',#306,#275,#356,.T.);
#249=EDGE_CURVE('',#306,#270,#22,.T.);
#250=EDGE_CURVE('',#269,#307,#23,.T.);
#251=EDGE_CURVE('',#265,#307,#357,.T.);
#252=EDGE_CURVE('',#308,#308,#24,.T.);
#253=EDGE_CURVE('',#309,#309,#25,.T.);
#254=EDGE_CURVE('',#310,#277,#358,.T.);
#255=EDGE_CURVE('',#310,#306,#359,.T.);
#256=EDGE_CURVE('',#310,#271,#26,.T.);
#257=EDGE_CURVE('',#311,#311,#27,.T.);
#258=EDGE_CURVE('',#312,#307,#360,.T.);
#259=EDGE_CURVE('',#266,#312,#361,.T.);
#260=EDGE_CURVE('',#268,#312,#28,.T.);
#261=EDGE_CURVE('',#313,#313,#29,.T.);
#262=VERTEX_POINT('',#753);
#263=VERTEX_POINT('',#754);
#264=VERTEX_POINT('',#759);
#265=VERTEX_POINT('',#761);
#266=VERTEX_POINT('',#763);
#267=VERTEX_POINT('',#765);
#268=VERTEX_POINT('',#769);
#269=VERTEX_POINT('',#771);
#270=VERTEX_POINT('',#773);
#271=VERTEX_POINT('',#775);
#272=VERTEX_POINT('',#777);
#273=VERTEX_POINT('',#779);
#274=VERTEX_POINT('',#783);
#275=VERTEX_POINT('',#784);
#276=VERTEX_POINT('',#789);
#277=VERTEX_POINT('',#792);
#278=VERTEX_POINT('',#796);
#279=VERTEX_POINT('',#797);
#280=VERTEX_POINT('',#799);
#281=VERTEX_POINT('',#801);
#282=VERTEX_POINT('',#805);
#283=VERTEX_POINT('',#807);
#284=VERTEX_POINT('',#811);
#285=VERTEX_POINT('',#813);
#286=VERTEX_POINT('',#820);
#287=VERTEX_POINT('',#822);
#288=VERTEX_POINT('',#825);
#289=VERTEX_POINT('',#827);
#290=VERTEX_POINT('',#830);
#291=VERTEX_POINT('',#832);
#292=VERTEX_POINT('',#835);
#293=VERTEX_POINT('',#837);
#294=VERTEX_POINT('',#840);
#295=VERTEX_POINT('',#841);
#296=VERTEX_POINT('',#846);
#297=VERTEX_POINT('',#848);
#298=VERTEX_POINT('',#900);
#299=VERTEX_POINT('',#901);
#300=VERTEX_POINT('',#903);
#301=VERTEX_POINT('',#905);
#302=VERTEX_POINT('',#909);
#303=VERTEX_POINT('',#911);
#304=VERTEX_POINT('',#915);
#305=VERTEX_POINT('',#919);
#306=VERTEX_POINT('',#969);
#307=VERTEX_POINT('',#972);
#308=VERTEX_POINT('',#975);
#309=VERTEX_POINT('',#977);
#310=VERTEX_POINT('',#980);
#311=VERTEX_POINT('',#986);
#312=VERTEX_POINT('',#990);
#313=VERTEX_POINT('',#996);
#314=LINE('',#752,#362);
#315=LINE('',#760,#363);
#316=LINE('',#762,#364);
#317=LINE('',#764,#365);
#318=LINE('',#766,#366);
#319=LINE('',#768,#367);
#320=LINE('',#770,#368);
#321=LINE('',#772,#369);
#322=LINE('',#774,#370);
#323=LINE('',#776,#371);
#324=LINE('',#778,#372);
#325=LINE('',#780,#373);
#326=LINE('',#782,#374);
#327=LINE('',#790,#375);
#328=LINE('',#791,#376);
#329=LINE('',#793,#377);
#330=LINE('',#795,#378);
#331=LINE('',#798,#379);
#332=LINE('',#800,#380);
#333=LINE('',#802,#381);
#334=LINE('',#804,#382);
#335=LINE('',#806,#383);
#336=LINE('',#808,#384);
#337=LINE('',#810,#385);
#338=LINE('',#812,#386);
#339=LINE('',#814,#387);
#340=LINE('',#816,#388);
#341=LINE('',#817,#389);
#342=LINE('',#839,#390);
#343=LINE('',#847,#391);
#344=LINE('',#899,#392);
#345=LINE('',#902,#393);
#346=LINE('',#904,#394);
#347=LINE('',#906,#395);
#348=LINE('',#908,#396);
#349=LINE('',#910,#397);
#350=LINE('',#912,#398);
#351=LINE('',#914,#399);
#352=LINE('',#916,#400);
#353=LINE('',#918,#401);
#354=LINE('',#920,#402);
#355=LINE('',#922,#403);
#356=LINE('',#968,#404);
#357=LINE('',#973,#405);
#358=LINE('',#979,#406);
#359=LINE('',#981,#407);
#360=LINE('',#989,#408);
#361=LINE('',#991,#409);
#362=VECTOR('',#618,1.);
#363=VECTOR('',#619,1.);
#364=VECTOR('',#620,1.);
#365=VECTOR('',#621,1.);
#366=VECTOR('',#622,1.);
#367=VECTOR('',#625,1.);
#368=VECTOR('',#626,1.);
#369=VECTOR('',#627,1.);
#370=VECTOR('',#628,1.);
#371=VECTOR('',#629,1.);
#372=VECTOR('',#630,1.);
#373=VECTOR('',#631,1.);
#374=VECTOR('',#634,1.);
#375=VECTOR('',#635,1.);
#376=VECTOR('',#636,1.);
#377=VECTOR('',#637,1.);
#378=VECTOR('',#640,1.);
#379=VECTOR('',#641,1.);
#380=VECTOR('',#642,1.);
#381=VECTOR('',#643,1.);
#382=VECTOR('',#646,1.);
#383=VECTOR('',#647,1.);
#384=VECTOR('',#648,1.);
#385=VECTOR('',#651,1.);
#386=VECTOR('',#652,1.);
#387=VECTOR('',#653,1.);
#388=VECTOR('',#656,1.);
#389=VECTOR('',#657,1.);
#390=VECTOR('',#684,1.);
#391=VECTOR('',#685,1.);
#392=VECTOR('',#690,1.);
#393=VECTOR('',#691,1.);
#394=VECTOR('',#692,1.);
#395=VECTOR('',#693,1.);
#396=VECTOR('',#696,1.);
#397=VECTOR('',#697,1.);
#398=VECTOR('',#698,1.);
#399=VECTOR('',#701,1.);
#400=VECTOR('',#702,1.);
#401=VECTOR('',#705,1.);
#402=VECTOR('',#706,1.);
#403=VECTOR('',#709,1.);
#404=VECTOR('',#712,1.);
#405=VECTOR('',#717,1.);
#406=VECTOR('',#724,1.);
#407=VECTOR('',#725,1.);
#408=VECTOR('',#738,1.);
#409=VECTOR('',#739,1.);
#410=EDGE_LOOP('',(#46,#47,#48,#49,#50,#51));
#411=EDGE_LOOP('',(#52,#53,#54,#55,#56,#57,#58,#59));
#412=EDGE_LOOP('',(#60,#61,#62,#63,#64,#65));
#413=EDGE_LOOP('',(#66,#67,#68,#69));
#414=EDGE_LOOP('',(#70,#71,#72,#73));
#415=EDGE_LOOP('',(#74,#75,#76,#77));
#416=EDGE_LOOP('',(#78,#79,#80,#81));
#417=EDGE_LOOP('',(#82));
#418=EDGE_LOOP('',(#83));
#419=EDGE_LOOP('',(#84));
#420=EDGE_LOOP('',(#85));
#421=EDGE_LOOP('',(#86));
#422=EDGE_LOOP('',(#87));
#423=EDGE_LOOP('',(#88));
#424=EDGE_LOOP('',(#89));
#425=EDGE_LOOP('',(#90,#91,#92,#93));
#426=EDGE_LOOP('',(#94));
#427=EDGE_LOOP('',(#95));
#428=EDGE_LOOP('',(#96));
#429=EDGE_LOOP('',(#97));
#430=EDGE_LOOP('',(#98,#99,#100,#101));
#431=EDGE_LOOP('',(#102,#103,#104,#105,#106,#107));
#432=EDGE_LOOP('',(#108,#109,#110,#111));
#433=EDGE_LOOP('',(#112));
#434=EDGE_LOOP('',(#113));
#435=EDGE_LOOP('',(#114));
#436=EDGE_LOOP('',(#115));
#437=EDGE_LOOP('',(#116,#117,#118,#119));
#438=EDGE_LOOP('',(#120,#121,#122,#123));
#439=EDGE_LOOP('',(#124,#125,#126,#127));
#440=EDGE_LOOP('',(#128,#129,#130,#131));
#441=EDGE_LOOP('',(#132,#133,#134,#135));
#442=EDGE_LOOP('',(#136,#137,#138,#139,#140,#141,#142,#143,#144,#145));
#443=EDGE_LOOP('',(#146,#147,#148,#149));
#444=EDGE_LOOP('',(#150));
#445=EDGE_LOOP('',(#151));
#446=EDGE_LOOP('',(#152,#153,#154,#155));
#447=EDGE_LOOP('',(#156,#157,#158,#159));
#448=EDGE_LOOP('',(#160));
#449=EDGE_LOOP('',(#161));
#450=EDGE_LOOP('',(#162,#163,#164,#165));
#451=EDGE_LOOP('',(#166));
#452=EDGE_LOOP('',(#167,#168,#169,#170));
#453=EDGE_LOOP('',(#171,#172,#173,#174));
#454=EDGE_LOOP('',(#175));
#455=EDGE_LOOP('',(#176));
#456=EDGE_LOOP('',(#177,#178,#179,#180));
#457=EDGE_LOOP('',(#181));
#458=EDGE_LOOP('',(#182,#183,#184,#185));
#459=EDGE_LOOP('',(#186,#187,#188,#189));
#460=FACE_BOUND('',#410,.T.);
#461=FACE_BOUND('',#411,.T.);
#462=FACE_BOUND('',#412,.T.);
#463=FACE_BOUND('',#413,.T.);
#464=FACE_BOUND('',#414,.T.);
#465=FACE_BOUND('',#415,.T.);
#466=FACE_BOUND('',#416,.T.);
#467=FACE_BOUND('',#417,.T.);
#468=FACE_BOUND('',#418,.T.);
#469=FACE_BOUND('',#419,.T.);
#470=FACE_BOUND('',#420,.T.);
#471=FACE_BOUND('',#421,.T.);
#472=FACE_BOUND('',#422,.T.);
#473=FACE_BOUND('',#423,.T.);
#474=FACE_BOUND('',#424,.T.);
#475=FACE_BOUND('',#425,.T.);
#476=FACE_BOUND('',#426,.T.);
#477=FACE_BOUND('',#427,.T.);
#478=FACE_BOUND('',#428,.T.);
#479=FACE_BOUND('',#429,.T.);
#480=FACE_BOUND('',#430,.T.);
#481=FACE_BOUND('',#431,.T.);
#482=FACE_BOUND('',#432,.T.);
#483=FACE_BOUND('',#433,.T.);
#484=FACE_BOUND('',#434,.T.);
#485=FACE_BOUND('',#435,.T.);
#486=FACE_BOUND('',#436,.T.);
#487=FACE_BOUND('',#437,.T.);
#488=FACE_BOUND('',#438,.T.);
#489=FACE_BOUND('',#439,.T.);
#490=FACE_BOUND('',#440,.T.);
#491=FACE_BOUND('',#441,.T.);
#492=FACE_BOUND('',#442,.T.);
#493=FACE_BOUND('',#443,.T.);
#494=FACE_BOUND('',#444,.T.);
#495=FACE_BOUND('',#445,.T.);
#496=FACE_BOUND('',#446,.T.);
#497=FACE_BOUND('',#447,.T.);
#498=FACE_BOUND('',#448,.T.);
#499=FACE_BOUND('',#449,.T.);
#500=FACE_BOUND('',#450,.T.);
#501=FACE_BOUND('',#451,.T.);
#502=FACE_BOUND('',#452,.T.);
#503=FACE_BOUND('',#453,.T.);
#504=FACE_BOUND('',#454,.T.);
#505=FACE_BOUND('',#455,.T.);
#506=FACE_BOUND('',#456,.T.);
#507=FACE_BOUND('',#457,.T.);
#508=FACE_BOUND('',#458,.T.);
#509=FACE_BOUND('',#459,.T.);
#510=PLANE('',#571);
#511=PLANE('',#572);
#512=PLANE('',#573);
#513=PLANE('',#574);
#514=PLANE('',#575);
#515=PLANE('',#576);
#516=PLANE('',#577);
#517=PLANE('',#590);
#518=PLANE('',#591);
#519=PLANE('',#592);
#520=PLANE('',#593);
#521=PLANE('',#594);
#522=PLANE('',#595);
#523=PLANE('',#596);
#524=PLANE('',#597);
#525=PLANE('',#602);
#526=PLANE('',#607);
#527=PLANE('',#608);
#528=PLANE('',#613);
#529=ADVANCED_FACE('',(#460),#510,.F.);
#530=ADVANCED_FACE('',(#461),#511,.F.);
#531=ADVANCED_FACE('',(#462),#512,.T.);
#532=ADVANCED_FACE('',(#463),#513,.T.);
#533=ADVANCED_FACE('',(#464),#514,.F.);
#534=ADVANCED_FACE('',(#465),#515,.F.);
#535=ADVANCED_FACE('',(#466),#516,.T.);
#536=ADVANCED_FACE('',(#467,#468),#30,.F.);
#537=ADVANCED_FACE('',(#469,#470),#31,.F.);
#538=ADVANCED_FACE('',(#471,#472),#32,.F.);
#539=ADVANCED_FACE('',(#473,#474),#33,.F.);
#540=ADVANCED_FACE('',(#475),#517,.F.);
#541=ADVANCED_FACE('',(#476,#477,#478,#479,#480,#481),#518,.T.);
#542=ADVANCED_FACE('',(#482,#483,#484,#485,#486,#487),#519,.F.);
#543=ADVANCED_FACE('',(#488),#520,.T.);
#544=ADVANCED_FACE('',(#489),#521,.T.);
#545=ADVANCED_FACE('',(#490),#522,.T.);
#546=ADVANCED_FACE('',(#491),#523,.F.);
#547=ADVANCED_FACE('',(#492,#493,#494,#495),#524,.F.);
#548=ADVANCED_FACE('',(#496),#525,.F.);
#549=ADVANCED_FACE('',(#497),#34,.T.);
#550=ADVANCED_FACE('',(#498,#499),#35,.F.);
#551=ADVANCED_FACE('',(#500,#501),#526,.F.);
#552=ADVANCED_FACE('',(#502),#527,.F.);
#553=ADVANCED_FACE('',(#503),#36,.T.);
#554=ADVANCED_FACE('',(#504,#505),#37,.F.);
#555=ADVANCED_FACE('',(#506,#507),#528,.F.);
#556=ADVANCED_FACE('',(#508),#12,.T.);
#557=ADVANCED_FACE('',(#509),#13,.T.);
#558=CLOSED_SHELL('',(#529,#530,#531,#532,#533,#534,#535,#536,#537,#538,
#539,#540,#541,#542,#543,#544,#545,#546,#547,#548,#549,#550,#551,#552,#553,
#554,#555,#556,#557));
#559=STYLED_ITEM('',(#560),#567);
#560=PRESENTATION_STYLE_ASSIGNMENT((#561));
#561=SURFACE_STYLE_USAGE(.BOTH.,#562);
#562=SURFACE_SIDE_STYLE('',(#563));
#563=SURFACE_STYLE_FILL_AREA(#564);
#564=FILL_AREA_STYLE('',(#565));
#565=FILL_AREA_STYLE_COLOUR('',#566);
#566=COLOUR_RGB('',0.231372549019608,0.380392156862745,0.705882352941177);
#567=MANIFOLD_SOLID_BREP('ScreenCover',#558);
#568=SHAPE_DEFINITION_REPRESENTATION(#1036,#569);
#569=SHAPE_REPRESENTATION('ScreenCover',(#570),#1031);
#570=AXIS2_PLACEMENT_3D('',#750,#614,#615);
#571=AXIS2_PLACEMENT_3D('',#751,#616,#617);
#572=AXIS2_PLACEMENT_3D('',#767,#623,#624);
#573=AXIS2_PLACEMENT_3D('',#781,#632,#633);
#574=AXIS2_PLACEMENT_3D('',#794,#638,#639);
#575=AXIS2_PLACEMENT_3D('',#803,#644,#645);
#576=AXIS2_PLACEMENT_3D('',#809,#649,#650);
#577=AXIS2_PLACEMENT_3D('',#815,#654,#655);
#578=AXIS2_PLACEMENT_3D('',#818,#658,#659);
#579=AXIS2_PLACEMENT_3D('',#819,#660,#661);
#580=AXIS2_PLACEMENT_3D('',#821,#662,#663);
#581=AXIS2_PLACEMENT_3D('',#823,#664,#665);
#582=AXIS2_PLACEMENT_3D('',#824,#666,#667);
#583=AXIS2_PLACEMENT_3D('',#826,#668,#669);
#584=AXIS2_PLACEMENT_3D('',#828,#670,#671);
#585=AXIS2_PLACEMENT_3D('',#829,#672,#673);
#586=AXIS2_PLACEMENT_3D('',#831,#674,#675);
#587=AXIS2_PLACEMENT_3D('',#833,#676,#677);
#588=AXIS2_PLACEMENT_3D('',#834,#678,#679);
#589=AXIS2_PLACEMENT_3D('',#836,#680,#681);
#590=AXIS2_PLACEMENT_3D('',#838,#682,#683);
#591=AXIS2_PLACEMENT_3D('',#853,#686,#687);
#592=AXIS2_PLACEMENT_3D('',#898,#688,#689);
#593=AXIS2_PLACEMENT_3D('',#907,#694,#695);
#594=AXIS2_PLACEMENT_3D('',#913,#699,#700);
#595=AXIS2_PLACEMENT_3D('',#917,#703,#704);
#596=AXIS2_PLACEMENT_3D('',#921,#707,#708);
#597=AXIS2_PLACEMENT_3D('',#923,#710,#711);
#598=AXIS2_PLACEMENT_3D('',#970,#713,#714);
#599=AXIS2_PLACEMENT_3D('',#971,#715,#716);
#600=AXIS2_PLACEMENT_3D('',#974,#718,#719);
#601=AXIS2_PLACEMENT_3D('',#976,#720,#721);
#602=AXIS2_PLACEMENT_3D('',#978,#722,#723);
#603=AXIS2_PLACEMENT_3D('',#982,#726,#727);
#604=AXIS2_PLACEMENT_3D('',#983,#728,#729);
#605=AXIS2_PLACEMENT_3D('',#984,#730,#731);
#606=AXIS2_PLACEMENT_3D('',#985,#732,#733);
#607=AXIS2_PLACEMENT_3D('',#987,#734,#735);
#608=AXIS2_PLACEMENT_3D('',#988,#736,#737);
#609=AXIS2_PLACEMENT_3D('',#992,#740,#741);
#610=AXIS2_PLACEMENT_3D('',#993,#742,#743);
#611=AXIS2_PLACEMENT_3D('',#994,#744,#745);
#612=AXIS2_PLACEMENT_3D('',#995,#746,#747);
#613=AXIS2_PLACEMENT_3D('',#997,#748,#749);
#614=DIRECTION('',(0.,0.,1.));
#615=DIRECTION('',(1.,0.,0.));
#616=DIRECTION('',(-1.,0.,0.));
#617=DIRECTION('',(0.,0.,1.));
#618=DIRECTION('',(0.,1.,0.));
#619=DIRECTION('',(0.,1.,0.));
#620=DIRECTION('',(0.,0.,-1.));
#621=DIRECTION('',(0.,1.,0.));
#622=DIRECTION('',(0.,0.,-1.));
#623=DIRECTION('',(0.,-1.,0.));
#624=DIRECTION('',(0.,0.,-1.));
#625=DIRECTION('',(-1.,0.,0.));
#626=DIRECTION('',(0.,0.,-1.));
#627=DIRECTION('',(-1.,0.,0.));
#628=DIRECTION('',(0.,0.,-1.));
#629=DIRECTION('',(-1.,0.,0.));
#630=DIRECTION('',(0.,0.,-1.));
#631=DIRECTION('',(-1.,0.,0.));
#632=DIRECTION('',(-1.,0.,0.));
#633=DIRECTION('',(0.,0.,1.));
#634=DIRECTION('',(0.,1.,0.));
#635=DIRECTION('',(0.,1.,0.));
#636=DIRECTION('',(0.,1.,0.));
#637=DIRECTION('',(0.,0.,-1.));
#638=DIRECTION('',(-3.49566179365972E-16,-1.,0.));
#639=DIRECTION('',(1.,-3.49566179365972E-16,0.));
#640=DIRECTION('',(-1.,3.49566179365972E-16,0.));
#641=DIRECTION('',(0.,0.,-1.));
#642=DIRECTION('',(-1.,3.49566179365972E-16,0.));
#643=DIRECTION('',(0.,0.,-1.));
#644=DIRECTION('',(1.,-1.83084271870903E-16,0.));
#645=DIRECTION('',(1.83084271870903E-16,1.,0.));
#646=DIRECTION('',(-1.83084271870903E-16,-1.,0.));
#647=DIRECTION('',(0.,0.,-1.));
#648=DIRECTION('',(-1.83084271870903E-16,-1.,0.));
#649=DIRECTION('',(-8.73915448414929E-17,-1.,0.));
#650=DIRECTION('',(1.,-8.73915448414929E-17,0.));
#651=DIRECTION('',(-1.,8.73915448414929E-17,0.));
#652=DIRECTION('',(0.,0.,-1.));
#653=DIRECTION('',(-1.,8.73915448414929E-17,0.));
#654=DIRECTION('',(1.,-1.83084271870903E-16,0.));
#655=DIRECTION('',(1.83084271870903E-16,1.,0.));
#656=DIRECTION('',(-1.83084271870903E-16,-1.,0.));
#657=DIRECTION('',(-1.83084271870903E-16,-1.,0.));
#658=DIRECTION('',(0.,0.,-1.));
#659=DIRECTION('',(-1.,0.,0.));
#660=DIRECTION('',(0.,0.,1.));
#661=DIRECTION('',(1.,0.,0.));
#662=DIRECTION('',(0.,0.,1.));
#663=DIRECTION('',(1.,0.,0.));
#664=DIRECTION('',(0.,0.,-1.));
#665=DIRECTION('',(-1.,0.,0.));
#666=DIRECTION('',(0.,0.,1.));
#667=DIRECTION('',(1.,0.,0.));
#668=DIRECTION('',(0.,0.,1.));
#669=DIRECTION('',(1.,0.,0.));
#670=DIRECTION('',(0.,0.,-1.));
#671=DIRECTION('',(-1.,0.,0.));
#672=DIRECTION('',(0.,0.,1.));
#673=DIRECTION('',(1.,0.,0.));
#674=DIRECTION('',(0.,0.,1.));
#675=DIRECTION('',(1.,0.,0.));
#676=DIRECTION('',(0.,0.,-1.));
#677=DIRECTION('',(-1.,0.,0.));
#678=DIRECTION('',(0.,0.,1.));
#679=DIRECTION('',(1.,0.,0.));
#680=DIRECTION('',(0.,0.,1.));
#681=DIRECTION('',(1.,0.,0.));
#682=DIRECTION('',(0.,1.,0.));
#683=DIRECTION('',(0.,0.,1.));
#684=DIRECTION('',(1.,0.,0.));
#685=DIRECTION('',(1.,0.,0.));
#686=DIRECTION('',(0.,0.,1.));
#687=DIRECTION('',(1.,0.,0.));
#688=DIRECTION('',(0.,0.,1.));
#689=DIRECTION('',(1.,0.,0.));
#690=DIRECTION('',(1.,0.,0.));
#691=DIRECTION('',(0.,1.,0.));
#692=DIRECTION('',(1.,2.52452775423992E-16,0.));
#693=DIRECTION('',(0.,-1.,0.));
#694=DIRECTION('',(1.,0.,0.));
#695=DIRECTION('',(0.,0.,-1.));
#696=DIRECTION('',(0.,0.,1.));
#697=DIRECTION('',(0.,1.,0.));
#698=DIRECTION('',(0.,0.,1.));
#699=DIRECTION('',(2.52452775423992E-16,-1.,0.));
#700=DIRECTION('',(1.,2.52452775423992E-16,0.));
#701=DIRECTION('',(1.,2.52452775423992E-16,0.));
#702=DIRECTION('',(0.,0.,1.));
#703=DIRECTION('',(-1.,0.,0.));
#704=DIRECTION('',(0.,0.,1.));
#705=DIRECTION('',(0.,-1.,0.));
#706=DIRECTION('',(0.,0.,1.));
#707=DIRECTION('',(0.,-1.,0.));
#708=DIRECTION('',(0.,0.,-1.));
#709=DIRECTION('',(1.,0.,0.));
#710=DIRECTION('',(0.,0.,1.));
#711=DIRECTION('',(1.,0.,0.));
#712=DIRECTION('',(1.,0.,0.));
#713=DIRECTION('',(0.,0.,-1.));
#714=DIRECTION('',(-1.,0.,0.));
#715=DIRECTION('',(0.,0.,-1.));
#716=DIRECTION('',(-1.,0.,0.));
#717=DIRECTION('',(1.,0.,0.));
#718=DIRECTION('',(0.,0.,-1.));
#719=DIRECTION('',(-1.,0.,0.));
#720=DIRECTION('',(0.,0.,-1.));
#721=DIRECTION('',(-1.,0.,0.));
#722=DIRECTION('',(0.,1.,0.));
#723=DIRECTION('',(0.,0.,1.));
#724=DIRECTION('',(1.,0.,0.));
#725=DIRECTION('',(0.,0.,-1.));
#726=DIRECTION('',(0.,0.,-1.));
#727=DIRECTION('',(-1.,0.,0.));
#728=DIRECTION('',(0.,0.,-1.));
#729=DIRECTION('',(-1.,0.,0.));
#730=DIRECTION('',(0.,0.,-1.));
#731=DIRECTION('',(-1.,0.,0.));
#732=DIRECTION('',(0.,0.,-1.));
#733=DIRECTION('',(-1.,0.,0.));
#734=DIRECTION('',(0.,0.,-1.));
#735=DIRECTION('',(1.,0.,0.));
#736=DIRECTION('',(0.,1.,0.));
#737=DIRECTION('',(0.,0.,1.));
#738=DIRECTION('',(0.,0.,-1.));
#739=DIRECTION('',(1.,0.,0.));
#740=DIRECTION('',(0.,0.,-1.));
#741=DIRECTION('',(-1.,0.,0.));
#742=DIRECTION('',(0.,0.,-1.));
#743=DIRECTION('',(-1.,0.,0.));
#744=DIRECTION('',(0.,0.,-1.));
#745=DIRECTION('',(-1.,0.,0.));
#746=DIRECTION('',(0.,0.,-1.));
#747=DIRECTION('',(-1.,0.,0.));
#748=DIRECTION('',(0.,0.,-1.));
#749=DIRECTION('',(1.,0.,0.));
#750=CARTESIAN_POINT('',(0.,0.,0.));
#751=CARTESIAN_POINT('',(0.0509,-0.0044,0.01));
#752=CARTESIAN_POINT('',(0.0509,-0.0044,0.01));
#753=CARTESIAN_POINT('',(0.0509,-0.0174387301627792,0.01));
#754=CARTESIAN_POINT('',(0.0509,0.02375,0.01));
#755=CARTESIAN_POINT('',(0.0509,-0.0174387301627792,0.0100000000000004));
#756=CARTESIAN_POINT('',(0.0509,-0.0174387301627792,0.00810285333333354));
#757=CARTESIAN_POINT('',(0.0509,-0.0174387301627792,0.00620570666666667));
#758=CARTESIAN_POINT('',(0.0509,-0.0174387301627792,0.00430855999999979));
#759=CARTESIAN_POINT('',(0.0509,-0.0174387301627792,0.00430856));
#760=CARTESIAN_POINT('',(0.0509,0.02235017,0.00430856));
#761=CARTESIAN_POINT('',(0.0509,0.01395,0.00430856));
#762=CARTESIAN_POINT('',(0.0509,0.01395,0.00630856));
#763=CARTESIAN_POINT('',(0.0509,0.01395,0.00630856));
#764=CARTESIAN_POINT('',(0.0509,0.02235017,0.00630856));
#765=CARTESIAN_POINT('',(0.0509,0.02375,0.00630856));
#766=CARTESIAN_POINT('',(0.0509,0.02375,0.01));
#767=CARTESIAN_POINT('',(0.00139983,0.02375,0.01));
#768=CARTESIAN_POINT('',(0.05335,0.02375,0.00630856));
#769=CARTESIAN_POINT('',(0.0558,0.02375,0.00630856));
#770=CARTESIAN_POINT('',(0.0558,0.02375,0.00630856));
#771=CARTESIAN_POINT('',(0.0558,0.02375,0.00430856));
#772=CARTESIAN_POINT('',(-0.04950017,0.02375,0.00430856));
#773=CARTESIAN_POINT('',(-0.0558,0.02375,0.00430856));
#774=CARTESIAN_POINT('',(-0.0558,0.02375,0.00630856));
#775=CARTESIAN_POINT('',(-0.0558,0.02375,0.00630856));
#776=CARTESIAN_POINT('',(-0.05335,0.02375,0.00630856));
#777=CARTESIAN_POINT('',(-0.0509,0.02375,0.00630856));
#778=CARTESIAN_POINT('',(-0.0509,0.02375,0.01));
#779=CARTESIAN_POINT('',(-0.0509,0.02375,0.01));
#780=CARTESIAN_POINT('',(0.00139983,0.02375,0.01));
#781=CARTESIAN_POINT('',(-0.0509,0.01885,0.01));
#782=CARTESIAN_POINT('',(-0.0509,0.01885,0.00430856));
#783=CARTESIAN_POINT('',(-0.0509,-0.0174387301627792,0.00430856));
#784=CARTESIAN_POINT('',(-0.0509,0.01395,0.00430856));
#785=CARTESIAN_POINT('',(-0.0509,-0.0174387301627792,0.00430856000000009));
#786=CARTESIAN_POINT('',(-0.0509,-0.0174387301627792,0.00620570666666667));
#787=CARTESIAN_POINT('',(-0.0509,-0.0174387301627792,0.00810285333333325));
#788=CARTESIAN_POINT('',(-0.0509,-0.0174387301627792,0.00999999999999983));
#789=CARTESIAN_POINT('',(-0.0509,-0.0174387301627792,0.01));
#790=CARTESIAN_POINT('',(-0.0509,0.01885,0.01));
#791=CARTESIAN_POINT('',(-0.0509,0.01885,0.00630856));
#792=CARTESIAN_POINT('',(-0.0509,0.01395,0.00630856));
#793=CARTESIAN_POINT('',(-0.0509,0.01395,0.00630856));
#794=CARTESIAN_POINT('',(6.93889390390723E-18,0.01895,0.01));
#795=CARTESIAN_POINT('',(6.93889390390723E-18,0.01895,0.008));
#796=CARTESIAN_POINT('',(0.03970003,0.01895,0.008));
#797=CARTESIAN_POINT('',(-0.03970003,0.01895,0.008));
#798=CARTESIAN_POINT('',(0.03970003,0.01895,0.01));
#799=CARTESIAN_POINT('',(0.03970003,0.01895,0.01));
#800=CARTESIAN_POINT('',(6.93889390390723E-18,0.01895,0.01));
#801=CARTESIAN_POINT('',(-0.03970003,0.01895,0.01));
#802=CARTESIAN_POINT('',(-0.03970003,0.01895,0.01));
#803=CARTESIAN_POINT('',(0.03970003,-1.38777878078145E-17,0.01));
#804=CARTESIAN_POINT('',(0.03970003,-1.38777878078145E-17,0.008));
#805=CARTESIAN_POINT('',(0.03970003,-0.01895,0.008));
#806=CARTESIAN_POINT('',(0.03970003,-0.01895,0.01));
#807=CARTESIAN_POINT('',(0.03970003,-0.01895,0.01));
#808=CARTESIAN_POINT('',(0.03970003,-1.38777878078145E-17,0.01));
#809=CARTESIAN_POINT('',(-6.93889390390723E-18,-0.01895,0.01));
#810=CARTESIAN_POINT('',(-6.93889390390723E-18,-0.01895,0.008));
#811=CARTESIAN_POINT('',(-0.03970003,-0.01895,0.008));
#812=CARTESIAN_POINT('',(-0.03970003,-0.01895,0.01));
#813=CARTESIAN_POINT('',(-0.03970003,-0.01895,0.01));
#814=CARTESIAN_POINT('',(-6.93889390390723E-18,-0.01895,0.01));
#815=CARTESIAN_POINT('',(-0.03970003,1.38777878078145E-17,0.01));
#816=CARTESIAN_POINT('',(-0.03970003,1.38777878078145E-17,0.008));
#817=CARTESIAN_POINT('',(-0.03970003,1.38777878078145E-17,0.01));
#818=CARTESIAN_POINT('',(0.04310034,0.01595034,0.01));
#819=CARTESIAN_POINT('',(0.04310034,0.01595034,0.01));
#820=CARTESIAN_POINT('',(0.04475034,0.01595034,0.01));
#821=CARTESIAN_POINT('',(0.04310034,0.01595034,0.008));
#822=CARTESIAN_POINT('',(0.04475034,0.01595034,0.008));
#823=CARTESIAN_POINT('',(0.04310034,-0.01595034,0.01));
#824=CARTESIAN_POINT('',(0.04310034,-0.01595034,0.01));
#825=CARTESIAN_POINT('',(0.04475034,-0.01595034,0.01));
#826=CARTESIAN_POINT('',(0.04310034,-0.01595034,0.008));
#827=CARTESIAN_POINT('',(0.04475034,-0.01595034,0.008));
#828=CARTESIAN_POINT('',(-0.04310034,-0.01595034,0.01));
#829=CARTESIAN_POINT('',(-0.04310034,-0.01595034,0.01));
#830=CARTESIAN_POINT('',(-0.04145034,-0.01595034,0.01));
#831=CARTESIAN_POINT('',(-0.04310034,-0.01595034,0.008));
#832=CARTESIAN_POINT('',(-0.04145034,-0.01595034,0.008));
#833=CARTESIAN_POINT('',(-0.04310034,0.01595034,0.01));
#834=CARTESIAN_POINT('',(-0.04310034,0.01595034,0.01));
#835=CARTESIAN_POINT('',(-0.04145034,0.01595034,0.01));
#836=CARTESIAN_POINT('',(-0.04310034,0.01595034,0.008));
#837=CARTESIAN_POINT('',(-0.04145034,0.01595034,0.008));
#838=CARTESIAN_POINT('',(0.04950017,-0.02275,0.01));
#839=CARTESIAN_POINT('',(-0.04950017,-0.02275,0.00430856));
#840=CARTESIAN_POINT('',(-0.0455887301627792,-0.02275,0.00430856));
#841=CARTESIAN_POINT('',(0.0455887301627792,-0.02275,0.00430856));
#842=CARTESIAN_POINT('',(0.0455887301627792,-0.02275,0.00430855999999979));
#843=CARTESIAN_POINT('',(0.0455887301627792,-0.02275,0.00620570666666667));
#844=CARTESIAN_POINT('',(0.0455887301627792,-0.02275,0.00810285333333354));
#845=CARTESIAN_POINT('',(0.0455887301627792,-0.02275,0.0100000000000004));
#846=CARTESIAN_POINT('',(0.0455887301627792,-0.02275,0.01));
#847=CARTESIAN_POINT('',(0.04950017,-0.02275,0.01));
#848=CARTESIAN_POINT('',(-0.0455887301627792,-0.02275,0.01));
#849=CARTESIAN_POINT('',(-0.0455887301627792,-0.02275,0.00999999999999983));
#850=CARTESIAN_POINT('',(-0.0455887301627792,-0.02275,0.00810285333333325));
#851=CARTESIAN_POINT('',(-0.0455887301627792,-0.02275,0.00620570666666667));
#852=CARTESIAN_POINT('',(-0.0455887301627792,-0.02275,0.00430856000000009));
#853=CARTESIAN_POINT('',(1.38777878078145E-17,-0.0114,0.01));
#854=CARTESIAN_POINT('',(0.0455887301627792,-0.02275,0.01));
#855=CARTESIAN_POINT('',(0.0458143160925158,-0.02275,0.01));
#856=CARTESIAN_POINT('',(0.0462201949546373,-0.0227430861857215,0.01));
#857=CARTESIAN_POINT('',(0.0466060924287451,-0.0227155663865483,0.01));
#858=CARTESIAN_POINT('',(0.0467949010612482,-0.0226942262161995,0.01));
#859=CARTESIAN_POINT('',(0.0469822338961903,-0.0226685044051028,0.01));
#860=CARTESIAN_POINT('',(0.0472960140995539,-0.022613360817311,0.01));
#861=CARTESIAN_POINT('',(0.0477273003064236,-0.0225053935509132,0.01));
#862=CARTESIAN_POINT('',(0.0482448118335008,-0.0223181553694532,0.01));
#863=CARTESIAN_POINT('',(0.0489161568619479,-0.0219836236714531,0.01));
#864=CARTESIAN_POINT('',(0.0496131471028401,-0.0214482677528944,0.01));
#865=CARTESIAN_POINT('',(0.0502504581585584,-0.0206008496449091,0.01));
#866=CARTESIAN_POINT('',(0.0505674862571649,-0.0198697388869433,0.01));
#867=CARTESIAN_POINT('',(0.0507225772145517,-0.0193089767994947,0.01));
#868=CARTESIAN_POINT('',(0.0507788576812129,-0.0190570749928983,0.01));
#869=CARTESIAN_POINT('',(0.050825254263721,-0.0187916713519966,0.01));
#870=CARTESIAN_POINT('',(0.0508536083487023,-0.0185739472811891,0.01));
#871=CARTESIAN_POINT('',(0.0508722620110639,-0.0183759563937149,0.01));
#872=CARTESIAN_POINT('',(0.0508815669741786,-0.0182481624894827,0.01));
#873=CARTESIAN_POINT('',(0.0508955651828937,-0.0179688294454103,0.01));
#874=CARTESIAN_POINT('',(0.0509,-0.0176691792465288,0.01));
#875=CARTESIAN_POINT('',(0.0509,-0.0174387301627792,0.01));
#876=CARTESIAN_POINT('',(-0.0509,-0.0174387301627792,0.01));
#877=CARTESIAN_POINT('',(-0.0509,-0.0176643160925198,0.01));
#878=CARTESIAN_POINT('',(-0.0508930861857216,-0.0180701949546454,0.01));
#879=CARTESIAN_POINT('',(-0.0508655663865481,-0.0184560924287519,0.01));
#880=CARTESIAN_POINT('',(-0.0508442262161996,-0.0186449010612478,0.01));
#881=CARTESIAN_POINT('',(-0.050818504405102,-0.0188322338961917,0.01));
#882=CARTESIAN_POINT('',(-0.0507633608173093,-0.0191460140995567,0.01));
#883=CARTESIAN_POINT('',(-0.0506553935509122,-0.0195773003064245,0.01));
#884=CARTESIAN_POINT('',(-0.0504681553694523,-0.0200948118335054,0.01));
#885=CARTESIAN_POINT('',(-0.0501336236714457,-0.0207661568619701,0.01));
#886=CARTESIAN_POINT('',(-0.0495982677528976,-0.0214631471028524,0.01));
#887=CARTESIAN_POINT('',(-0.0487508496448822,-0.0221004581585669,0.01));
#888=CARTESIAN_POINT('',(-0.0480197388868939,-0.0224174862571847,0.01));
#889=CARTESIAN_POINT('',(-0.0474589767994997,-0.022572577214551,0.01));
#890=CARTESIAN_POINT('',(-0.0472070749928831,-0.0226288576812138,0.01));
#891=CARTESIAN_POINT('',(-0.0469416713519793,-0.0226752542637219,0.01));
#892=CARTESIAN_POINT('',(-0.046723947281176,-0.022703608348703,0.01));
#893=CARTESIAN_POINT('',(-0.0465259563937149,-0.0227222620110638,0.01));
#894=CARTESIAN_POINT('',(-0.0463981624894852,-0.0227315669741785,0.01));
#895=CARTESIAN_POINT('',(-0.0461188294454156,-0.0227455651828936,0.01));
#896=CARTESIAN_POINT('',(-0.045819179246532,-0.02275,0.01));
#897=CARTESIAN_POINT('',(-0.0455887301627792,-0.02275,0.01));
#898=CARTESIAN_POINT('',(1.38777878078145E-17,-0.0114,0.008));
#899=CARTESIAN_POINT('',(0.,-0.01995034,0.008));
#900=CARTESIAN_POINT('',(-0.04810034,-0.01995034,0.008));
#901=CARTESIAN_POINT('',(0.04810034,-0.01995034,0.008));
#902=CARTESIAN_POINT('',(-0.04810034,0.0005,0.008));
#903=CARTESIAN_POINT('',(-0.04810034,0.02095034,0.008));
#904=CARTESIAN_POINT('',(0.,0.02095034,0.008));
#905=CARTESIAN_POINT('',(0.04810034,0.02095034,0.008));
#906=CARTESIAN_POINT('',(0.04810034,0.000500000000000014,0.008));
#907=CARTESIAN_POINT('',(-0.04810034,0.0005,0.00430856));
#908=CARTESIAN_POINT('',(-0.04810034,-0.01995034,0.00430856));
#909=CARTESIAN_POINT('',(-0.04810034,-0.01995034,0.00430856));
#910=CARTESIAN_POINT('',(-0.04810034,0.0005,0.00430856));
#911=CARTESIAN_POINT('',(-0.04810034,0.02095034,0.00430856));
#912=CARTESIAN_POINT('',(-0.04810034,0.02095034,0.00430856));
#913=CARTESIAN_POINT('',(0.,0.02095034,0.00430856));
#914=CARTESIAN_POINT('',(0.,0.02095034,0.00430856));
#915=CARTESIAN_POINT('',(0.04810034,0.02095034,0.00430856));
#916=CARTESIAN_POINT('',(0.04810034,0.02095034,0.00430856));
#917=CARTESIAN_POINT('',(0.04810034,0.000500000000000014,0.00430856));
#918=CARTESIAN_POINT('',(0.04810034,0.000500000000000014,0.00430856));
#919=CARTESIAN_POINT('',(0.04810034,-0.01995034,0.00430856));
#920=CARTESIAN_POINT('',(0.04810034,-0.01995034,0.00430856));
#921=CARTESIAN_POINT('',(0.,-0.01995034,0.00430856));
#922=CARTESIAN_POINT('',(0.,-0.01995034,0.00430856));
#923=CARTESIAN_POINT('',(1.38777878078145E-17,-0.0114,0.00430856));
#924=CARTESIAN_POINT('',(0.0509,-0.0174387301627792,0.00430856));
#925=CARTESIAN_POINT('',(0.0509,-0.0176643160924975,0.00430856));
#926=CARTESIAN_POINT('',(0.0508930861857212,-0.0180701949546006,0.00430856));
#927=CARTESIAN_POINT('',(0.0508655663865491,-0.0184560924287142,0.00430856));
#928=CARTESIAN_POINT('',(0.0508442262161988,-0.0186449010612498,0.00430856));
#929=CARTESIAN_POINT('',(0.0508185044051064,-0.0188322338961852,0.00430856));
#930=CARTESIAN_POINT('',(0.0507633608173183,-0.0191460140995447,0.00430856));
#931=CARTESIAN_POINT('',(0.0506553935509208,-0.019577300306413,0.00430856));
#932=CARTESIAN_POINT('',(0.0504681553694463,-0.0200948118335117,0.00430856));
#933=CARTESIAN_POINT('',(0.0501336236714305,-0.020766156861983,0.00430856));
#934=CARTESIAN_POINT('',(0.0495982677528869,-0.0214631471028622,0.00430856));
#935=CARTESIAN_POINT('',(0.0487508496448789,-0.0221004581585691,0.00430856));
#936=CARTESIAN_POINT('',(0.0480197388868696,-0.0224174862571954,0.00430856));
#937=CARTESIAN_POINT('',(0.0474589767995073,-0.0225725772145494,0.00430856));
#938=CARTESIAN_POINT('',(0.0472070749928547,-0.022628857681219,0.00430856));
#939=CARTESIAN_POINT('',(0.0469416713519473,-0.0226752542637277,0.00430856));
#940=CARTESIAN_POINT('',(0.0467239472811488,-0.0227036083487075,0.00430856));
#941=CARTESIAN_POINT('',(0.0465259563937191,-0.0227222620110636,0.00430856));
#942=CARTESIAN_POINT('',(0.046398162489467,-0.0227315669741786,0.00430856));
#943=CARTESIAN_POINT('',(0.046118829445384,-0.0227455651828936,0.00430856));
#944=CARTESIAN_POINT('',(0.0458191792465118,-0.02275,0.00430856));
#945=CARTESIAN_POINT('',(0.0455887301627792,-0.02275,0.00430856));
#946=CARTESIAN_POINT('',(-0.0455887301627792,-0.02275,0.00430856));
#947=CARTESIAN_POINT('',(-0.0458143160925141,-0.02275,0.00430856));
#948=CARTESIAN_POINT('',(-0.046220194954634,-0.0227430861857215,0.00430856));
#949=CARTESIAN_POINT('',(-0.046606092428742,-0.0227155663865484,0.00430856));
#950=CARTESIAN_POINT('',(-0.0467949010612484,-0.0226942262161994,0.00430856));
#951=CARTESIAN_POINT('',(-0.0469822338961891,-0.0226685044051033,0.00430856));
#952=CARTESIAN_POINT('',(-0.0472960140995516,-0.0226133608173119,0.00430856));
#953=CARTESIAN_POINT('',(-0.0477273003064205,-0.0225053935509142,0.00430856));
#954=CARTESIAN_POINT('',(-0.0482448118335052,-0.0223181553694518,0.00430856));
#955=CARTESIAN_POINT('',(-0.0489161568619651,-0.0219836236714455,0.00430856));
#956=CARTESIAN_POINT('',(-0.0496131471028437,-0.0214482677529026,0.00430856));
#957=CARTESIAN_POINT('',(-0.0502504581585867,-0.0206008496448637,0.00430856));
#958=CARTESIAN_POINT('',(-0.0505674862572135,-0.0198697388868494,0.00430856));
#959=CARTESIAN_POINT('',(-0.0507225772145499,-0.0193089767995092,0.00430856));
#960=CARTESIAN_POINT('',(-0.0507788576812155,-0.0190570749928491,0.00430856));
#961=CARTESIAN_POINT('',(-0.0508252542637235,-0.0187916713519397,0.00430856));
#962=CARTESIAN_POINT('',(-0.0508536083487044,-0.0185739472811464,0.00430856));
#963=CARTESIAN_POINT('',(-0.0508722620110637,-0.0183759563937146,0.00430856));
#964=CARTESIAN_POINT('',(-0.0508815669741786,-0.0182481624894926,0.00430856));
#965=CARTESIAN_POINT('',(-0.0508955651828936,-0.0179688294454307,0.00430856));
#966=CARTESIAN_POINT('',(-0.0509,-0.0176691792465412,0.00430856));
#967=CARTESIAN_POINT('',(-0.0509,-0.0174387301627792,0.00430856));
#968=CARTESIAN_POINT('',(-0.05335,0.01395,0.00430856));
#969=CARTESIAN_POINT('',(-0.0558,0.01395,0.00430856));
#970=CARTESIAN_POINT('',(-0.0558,0.01885,0.00430856));
#971=CARTESIAN_POINT('',(0.0558,0.01885,0.00430856));
#972=CARTESIAN_POINT('',(0.0558,0.01395,0.00430856));
#973=CARTESIAN_POINT('',(0.05335,0.01395,0.00430856));
#974=CARTESIAN_POINT('',(-0.0558,0.01885,0.00430856));
#975=CARTESIAN_POINT('',(-0.0587,0.01885,0.00430856));
#976=CARTESIAN_POINT('',(0.0558,0.01885,0.00430856));
#977=CARTESIAN_POINT('',(0.0529,0.01885,0.00430856));
#978=CARTESIAN_POINT('',(-0.05335,0.01395,0.00630856));
#979=CARTESIAN_POINT('',(-0.05335,0.01395,0.00630856));
#980=CARTESIAN_POINT('',(-0.0558,0.01395,0.00630856));
#981=CARTESIAN_POINT('',(-0.0558,0.01395,0.00630856));
#982=CARTESIAN_POINT('',(-0.0558,0.01885,0.00630856));
#983=CARTESIAN_POINT('',(-0.0558,0.01885,0.00630856));
#984=CARTESIAN_POINT('',(-0.0558,0.01885,0.00630856));
#985=CARTESIAN_POINT('',(-0.0558,0.01885,0.00630856));
#986=CARTESIAN_POINT('',(-0.0587,0.01885,0.00630856));
#987=CARTESIAN_POINT('',(1.38777878078145E-17,0.000500000000000011,0.00630856));
#988=CARTESIAN_POINT('',(0.05335,0.01395,0.00630856));
#989=CARTESIAN_POINT('',(0.0558,0.01395,0.00630856));
#990=CARTESIAN_POINT('',(0.0558,0.01395,0.00630856));
#991=CARTESIAN_POINT('',(0.05335,0.01395,0.00630856));
#992=CARTESIAN_POINT('',(0.0558,0.01885,0.00630856));
#993=CARTESIAN_POINT('',(0.0558,0.01885,0.00630856));
#994=CARTESIAN_POINT('',(0.0558,0.01885,0.00630856));
#995=CARTESIAN_POINT('',(0.0558,0.01885,0.00630856));
#996=CARTESIAN_POINT('',(0.0529,0.01885,0.00630856));
#997=CARTESIAN_POINT('',(1.38777878078145E-17,0.000500000000000011,0.00630856));
#998=CARTESIAN_POINT('',(0.0509,-0.0174387301627792,0.0100000000000004));
#999=CARTESIAN_POINT('',(0.0509,-0.0174387301627792,0.00430855999999979));
#1000=CARTESIAN_POINT('',(0.0509,-0.0182354206383623,0.0100000000000004));
#1001=CARTESIAN_POINT('',(0.0509,-0.0182354206383623,0.00430855999999979));
#1002=CARTESIAN_POINT('',(0.0509,-0.0190321111139454,0.0100000000000004));
#1003=CARTESIAN_POINT('',(0.0509,-0.0190321111139454,0.00430855999999979));
#1004=CARTESIAN_POINT('',(0.0503688730162779,-0.0209795767209264,0.0100000000000004));
#1005=CARTESIAN_POINT('',(0.0503688730162779,-0.0209795767209264,0.00430855999999979));
#1006=CARTESIAN_POINT('',(0.0491295767209264,-0.0222188730162779,0.0100000000000004));
#1007=CARTESIAN_POINT('',(0.0491295767209264,-0.0222188730162779,0.00430855999999979));
#1008=CARTESIAN_POINT('',(0.0471821111139454,-0.02275,0.0100000000000004));
#1009=CARTESIAN_POINT('',(0.0471821111139454,-0.02275,0.00430855999999979));
#1010=CARTESIAN_POINT('',(0.0463854206383623,-0.02275,0.0100000000000004));
#1011=CARTESIAN_POINT('',(0.0463854206383623,-0.02275,0.00430855999999979));
#1012=CARTESIAN_POINT('',(0.0455887301627792,-0.02275,0.0100000000000004));
#1013=CARTESIAN_POINT('',(0.0455887301627792,-0.02275,0.00430855999999979));
#1014=CARTESIAN_POINT('',(-0.0509,-0.0174387301627792,0.00430856));
#1015=CARTESIAN_POINT('',(-0.0509,-0.0174387301627792,0.01));
#1016=CARTESIAN_POINT('',(-0.0509,-0.0182354206383623,0.00430856));
#1017=CARTESIAN_POINT('',(-0.0509,-0.0182354206383623,0.01));
#1018=CARTESIAN_POINT('',(-0.0509,-0.0190321111139454,0.00430856));
#1019=CARTESIAN_POINT('',(-0.0509,-0.0190321111139454,0.01));
#1020=CARTESIAN_POINT('',(-0.0503688730162779,-0.0209795767209264,0.00430856));
#1021=CARTESIAN_POINT('',(-0.0503688730162779,-0.0209795767209264,0.01));
#1022=CARTESIAN_POINT('',(-0.0491295767209264,-0.0222188730162779,0.00430856));
#1023=CARTESIAN_POINT('',(-0.0491295767209264,-0.0222188730162779,0.01));
#1024=CARTESIAN_POINT('',(-0.0471821111139454,-0.02275,0.00430856));
#1025=CARTESIAN_POINT('',(-0.0471821111139454,-0.02275,0.01));
#1026=CARTESIAN_POINT('',(-0.0463854206383623,-0.02275,0.00430856));
#1027=CARTESIAN_POINT('',(-0.0463854206383623,-0.02275,0.01));
#1028=CARTESIAN_POINT('',(-0.0455887301627792,-0.02275,0.00430856));
#1029=CARTESIAN_POINT('',(-0.0455887301627792,-0.02275,0.01));
#1030=MECHANICAL_DESIGN_GEOMETRIC_PRESENTATION_REPRESENTATION('',(#559),
#1031);
#1031=(
GEOMETRIC_REPRESENTATION_CONTEXT(3)
GLOBAL_UNCERTAINTY_ASSIGNED_CONTEXT((#1032))
GLOBAL_UNIT_ASSIGNED_CONTEXT((#1035,#1034,#1033))
REPRESENTATION_CONTEXT('ScreenCover','TOP_LEVEL_ASSEMBLY_PART')
);
#1032=UNCERTAINTY_MEASURE_WITH_UNIT(LENGTH_MEASURE(2.E-5),#1035,
'DISTANCE_ACCURACY_VALUE','Maximum Tolerance applied to model');
#1033=(
NAMED_UNIT(*)
SI_UNIT($,.STERADIAN.)
SOLID_ANGLE_UNIT()
);
#1034=(
NAMED_UNIT(*)
PLANE_ANGLE_UNIT()
SI_UNIT($,.RADIAN.)
);
#1035=(
LENGTH_UNIT()
NAMED_UNIT(*)
SI_UNIT($,.METRE.)
);
#1036=PRODUCT_DEFINITION_SHAPE('','',#1037);
#1037=PRODUCT_DEFINITION('','',#1039,#1038);
#1038=PRODUCT_DEFINITION_CONTEXT('',#1045,'design');
#1039=PRODUCT_DEFINITION_FORMATION_WITH_SPECIFIED_SOURCE('','',#1041,
 .NOT_KNOWN.);
#1040=PRODUCT_RELATED_PRODUCT_CATEGORY('','',(#1041));
#1041=PRODUCT('ScreenCover','ScreenCover','ScreenCover',(#1043));
#1042=PRODUCT_CATEGORY('','');
#1043=PRODUCT_CONTEXT('',#1045,'mechanical');
#1044=APPLICATION_PROTOCOL_DEFINITION('international standard',
'ap242_managed_model_based_3d_engineering',2020,#1045);
#1045=APPLICATION_CONTEXT('managed model based 3d engineering');
ENDSEC;
END-ISO-10303-21;
